M48
; DRILL file {KiCad (5.1.9)-1} date 10/30/21 21:00:14
; FORMAT={-:-/ absolute / metric / decimal}
; #@! TF.CreationDate,2021-10-30T21:00:14+02:00
; #@! TF.GenerationSoftware,Kicad,Pcbnew,(5.1.9)-1
; #@! TF.FileFunction,Plated,1,2,PTH
FMAT,2
METRIC
T1C0.400
T2C0.500
T3C0.600
T4C0.762
T5C0.800
T6C1.000
T7C1.200
T8C2.500
%
G90
G05
T1
X22.606Y-68.072
X23.114Y-65.532
X23.237Y-24.264
X24.208Y-25.236
X24.587Y-19.078
X26.035Y-65.659
X26.639Y-18.773
X28.956Y-57.658
X28.956Y-145.542
X28.956Y-163.322
X39.028Y-68.941
X39.116Y-108.712
X39.624Y-144.78
X40.519Y-117.18
X40.519Y-136.961
X40.553Y-88.142
X40.553Y-156.39
X41.656Y-102.616
X41.817Y-21.266
X43.18Y-102.108
X44.196Y-100.33
X44.298Y-102.317
X44.298Y-121.707
X44.544Y-23.869
X45.212Y-162.052
X45.466Y-107.696
X45.466Y-159.766
X46.693Y-143.044
X47.34Y-74.075
X47.498Y-105.918
X47.518Y-160.791
X47.752Y-107.696
X47.752Y-125.476
X47.752Y-164.338
X48.006Y-88.646
X48.006Y-145.542
X48.26Y-143.993
X48.839Y-105.503
X49.84Y-163.371
X51.308Y-125.73
X53.467Y-21.267
X53.594Y-71.12
X56.518Y-73.424
X59.24Y-73.424
X60.452Y-71.12
X61.404Y-56.451
X61.776Y-30.695
X62.357Y-42.672
X62.836Y-86.197
X64.008Y-162.306
X64.058Y-141.191
X64.501Y-49.927
X65.786Y-59.817
X66.031Y-35.331
X66.294Y-37.846
X66.294Y-144.78
X66.448Y-84.84
X66.548Y-87.63
X66.548Y-126.238
X66.865Y-54.292
X66.925Y-164.542
X66.929Y-46.863
X67.056Y-107.188
X67.161Y-27.627
X67.288Y-122.307
X67.31Y-32.512
X67.38Y-163.406
X68.019Y-102.317
X68.384Y-43.203
X68.492Y-42.014
X69.075Y-38.124
X71.12Y-17.736
X72.136Y-27.588
X74.863Y-23.401
X75.429Y-51.109
X75.753Y-43.298
X75.851Y-65.145
X76.475Y-35.351
X76.962Y-107.442
X77.158Y-21.571
X78.922Y-23.076
X79.462Y-40.963
X79.476Y-133.005
X79.476Y-152.579
X79.746Y-25.25
X79.887Y-23.634
X80.467Y-141.097
X81.493Y-46.791
X82.296Y-21.667
X82.55Y-33.274
X82.804Y-100.076
X83.038Y-157.469
X83.058Y-102.87
X83.537Y-121.801
X84.458Y-84.948
X85.09Y-106.172
X85.852Y-88.392
X85.852Y-107.696
X85.852Y-126.492
X85.852Y-145.796
X86.106Y-21.844
X86.106Y-164.592
X86.614Y-60.198
X86.804Y-48.323
X87.376Y-19.393
X87.376Y-25.808
X87.96Y-31.282
X88.45Y-77.619
X89.647Y-35.778
X90.932Y-104.998
X91.025Y-36.89
X91.927Y-18.614
X92.456Y-21.637
X92.974Y-18.824
X95.101Y-21.025
X95.101Y-27.008
X96.432Y-38.058
X97.536Y-25.505
X97.536Y-121.666
X98.806Y-48.831
X99.626Y-29.926
X99.825Y-33.771
X100.076Y-21.036
X100.424Y-121.707
X100.424Y-141.088
X102.138Y-30.93
X103.886Y-106.172
X104.415Y-70.717
X104.648Y-88.138
X104.849Y-105.634
X104.902Y-107.442
X104.902Y-126.492
X104.902Y-164.592
X105.156Y-25.782
X105.156Y-145.542
X107.192Y-55.08
X108.406Y-85.532
X108.457Y-161.138
X111.282Y-51.985
X111.76Y-17.912
X111.796Y-44.975
X112.398Y-27.578
X113.664Y-23.452
X114.5Y-45.125
X115.139Y-92.211
X115.57Y-17.462
X115.748Y-50.568
X116.164Y-56.018
X116.332Y-22.098
X116.358Y-136.961
X116.386Y-163.725
X116.389Y-85.532
X116.68Y-62.085
X118.053Y-48.281
X118.667Y-17.829
X118.982Y-52.502
X119.525Y-60.48
X119.976Y-43.789
X120.007Y-121.498
X120.451Y-57.417
X120.684Y-58.95
X121.141Y-51.815
X121.577Y-27.232
X123.182Y-47.581
X123.698Y-87.122
X123.952Y-107.696
X123.952Y-126.492
X123.955Y-141.479
X123.99Y-58.95
X124.124Y-45.966
X124.188Y-27.2
X124.206Y-164.592
X124.372Y-104.969
X124.387Y-47.088
X124.46Y-68.834
X124.592Y-50.297
X128.337Y-41.987
X128.363Y-49.927
X128.679Y-46.237
X129.347Y-63.117
X130.302Y-23.114
X130.733Y-64.562
X131.245Y-67.031
X131.781Y-35.215
X131.919Y-80.807
X132.355Y-136.743
X132.439Y-62.846
X132.588Y-79.248
X132.731Y-125.093
X133.169Y-27.65
X134.874Y-90.17
X134.965Y-29.31
X135.297Y-26.923
X135.382Y-79.756
X135.636Y-119.38
X135.848Y-121.707
X136.393Y-31.357
X136.398Y-85.344
X136.398Y-103.378
X136.842Y-35.218
X137.033Y-24.209
X137.322Y-25.21
X137.968Y-73.663
X138.106Y-141.145
X138.684Y-96.122
X138.684Y-142.24
X138.783Y-36.35
X138.938Y-119.38
X139.954Y-27.686
X140.208Y-37.084
X140.462Y-42.418
X140.716Y-19.812
X140.716Y-85.852
X140.716Y-140.208
X140.746Y-107.416
X141.986Y-123.444
X142.822Y-143.981
X142.961Y-126.707
X143.002Y-88.646
X143.002Y-107.442
X143.002Y-145.542
X143.256Y-164.592
X143.374Y-160.124
X143.519Y-102.317
X143.764Y-103.886
X144.272Y-23.368
X144.329Y-85.532
X144.526Y-19.558
X144.526Y-47.752
X144.911Y-27.224
X146.05Y-44.196
X146.812Y-138.176
X148.632Y-98.177
X149.83Y-34.901
X150.034Y-26.914
X150.748Y-36.418
X151.21Y-88.816
X151.247Y-82.243
X152.146Y-47.498
X152.197Y-35.301
X152.303Y-121.136
X152.426Y-38.442
X153.045Y-23.993
X153.162Y-126.238
X153.452Y-38.217
X153.67Y-122.936
X154.44Y-136.961
X155.394Y-152.57
X155.526Y-133.005
X155.635Y-97.31
X156.138Y-154.369
X156.375Y-122.12
X156.506Y-143.662
X156.532Y-34.604
X156.593Y-49.299
X157.368Y-47.204
X158.496Y-35.052
X158.589Y-49.37
X160.031Y-47.517
X160.162Y-34.798
X160.622Y-44.557
X160.961Y-45.879
X161.29Y-125.476
X161.361Y-49.483
X161.472Y-29.338
X161.77Y-100.439
X161.798Y-23.622
X161.798Y-88.392
X161.798Y-107.442
X161.798Y-145.542
X161.798Y-164.592
X162.56Y-53.34
X162.611Y-48.232
X162.669Y-83.939
X163.0Y-39.247
X163.309Y-38.058
X164.338Y-84.582
X164.652Y-69.707
X164.682Y-118.405
X164.722Y-19.558
X164.846Y-104.648
X165.002Y-27.201
X166.624Y-42.016
X166.775Y-56.95
X166.918Y-21.355
X167.386Y-103.378
X167.981Y-61.795
X168.278Y-160.697
X168.656Y-83.058
X168.926Y-31.153
X169.263Y-37.781
X170.048Y-58.071
X170.674Y-39.636
X171.199Y-23.461
X171.268Y-41.376
X171.337Y-27.358
X172.269Y-89.488
X172.567Y-42.128
X172.6Y-58.521
X172.617Y-33.645
X173.632Y-58.972
X174.498Y-49.022
X174.662Y-39.305
X175.319Y-33.714
X176.26Y-102.081
X176.26Y-141.097
X177.038Y-31.496
X178.054Y-23.675
X178.308Y-103.886
X178.617Y-29.001
X179.896Y-32.299
X180.013Y-34.163
X180.086Y-106.426
X180.738Y-38.905
X180.848Y-145.542
X181.02Y-45.248
X181.102Y-88.392
X181.102Y-107.696
X181.102Y-126.492
X181.102Y-164.592
X181.356Y-31.242
X181.356Y-84.074
X181.993Y-28.325
X182.88Y-25.4
X183.101Y-122.307
X183.229Y-104.951
X183.573Y-28.966
X184.658Y-83.312
X184.994Y-159.21
X186.483Y-32.542
X188.025Y-29.022
X188.683Y-23.876
X189.19Y-46.316
X189.956Y-30.187
X190.754Y-45.72
X191.516Y-35.052
X191.995Y-97.63
X192.187Y-17.207
X192.226Y-43.655
X192.226Y-117.18
X192.865Y-60.518
X193.11Y-29.116
X193.702Y-57.837
X194.31Y-31.496
X194.372Y-135.427
X194.372Y-154.41
X194.564Y-47.244
X195.012Y-57.193
X196.031Y-58.7
X196.088Y-34.29
X196.217Y-123.752
X196.463Y-57.616
X196.914Y-60.797
X197.086Y-28.994
X198.387Y-105.222
X198.529Y-143.14
X199.467Y-30.832
X199.825Y-107.542
X199.898Y-88.646
X199.898Y-164.592
X199.959Y-85.781
X199.986Y-45.971
X200.152Y-126.492
X200.152Y-145.542
X200.784Y-52.546
X201.168Y-143.002
X201.811Y-47.662
X201.93Y-105.156
X202.404Y-19.8
X202.489Y-18.22
X203.2Y-44.704
X203.472Y-34.526
X204.2Y-19.437
X204.223Y-159.21
X206.502Y-83.82
X206.756Y-45.72
X209.047Y-29.946
X209.296Y-85.09
X209.296Y-94.742
X209.55Y-90.424
X209.6Y-28.78
X210.325Y-29.617
X210.566Y-164.084
X213.632Y-22.375
X214.63Y-40.386
X215.576Y-102.317
X215.613Y-82.927
X215.922Y-141.199
X216.796Y-19.79
X218.694Y-88.646
X218.694Y-107.442
X218.694Y-125.73
X218.694Y-145.288
X218.948Y-164.592
X220.0Y-120.9
X220.706Y-160.944
X221.996Y-19.05
X237.49Y-144.78
X237.998Y-107.442
X237.998Y-126.492
X237.998Y-164.338
X238.252Y-88.9
X239.0Y-102.417
X239.188Y-122.307
X240.123Y-85.532
X243.332Y-82.296
T2
X19.715Y-83.185
X19.715Y-175.514
X20.264Y-81.859
X20.264Y-84.511
X20.264Y-174.188
X20.264Y-176.84
X21.59Y-81.31
X21.59Y-85.06
X21.59Y-173.639
X21.59Y-177.389
X22.916Y-81.859
X22.916Y-84.511
X22.916Y-174.188
X22.916Y-176.84
X23.465Y-83.185
X23.465Y-175.514
X37.934Y-69.286
X60.24Y-68.902
X91.516Y-28.189
X97.437Y-21.193
X107.696Y-27.65
X107.85Y-22.018
X112.136Y-22.601
X163.884Y-35.064
X245.14Y-83.185
X245.267Y-175.514
X245.689Y-81.859
X245.689Y-84.511
X245.816Y-174.188
X245.816Y-176.84
X247.015Y-81.31
X247.015Y-85.06
X247.142Y-173.639
X247.142Y-177.389
X248.341Y-81.859
X248.341Y-84.511
X248.468Y-174.188
X248.468Y-176.84
X248.89Y-83.185
X249.017Y-175.514
T4
X25.984Y-59.957
X28.524Y-59.957
X31.064Y-59.957
X33.604Y-59.957
X36.144Y-59.957
X38.684Y-59.957
T5
X152.727Y-20.828
X157.607Y-20.828
T6
X20.574Y-67.056
X20.574Y-69.596
X20.574Y-72.136
X20.574Y-74.676
X20.828Y-59.69
X20.828Y-62.23
X34.036Y-32.131
X36.576Y-32.131
X46.482Y-21.209
X46.482Y-25.527
X49.022Y-21.209
X49.022Y-25.527
X51.562Y-21.209
X51.562Y-25.527
X133.223Y-19.685
X133.223Y-22.225
X135.763Y-19.685
X135.763Y-22.225
X138.303Y-19.685
X138.303Y-22.225
X198.247Y-36.703
X198.247Y-39.243
X198.247Y-41.783
X198.247Y-44.323
X198.247Y-51.308
X198.247Y-53.848
X198.247Y-56.388
X198.247Y-58.928
T7
X24.682Y-87.691
X24.682Y-106.691
X24.682Y-125.691
X24.682Y-144.691
X24.682Y-163.691
X25.368Y-97.521
X25.368Y-116.521
X25.368Y-135.521
X25.368Y-154.521
X25.368Y-173.521
X31.959Y-97.801
X31.959Y-116.801
X31.959Y-135.801
X31.959Y-154.801
X31.959Y-173.801
X35.261Y-87.704
X35.261Y-106.704
X35.261Y-125.704
X35.261Y-144.704
X35.261Y-163.704
X43.682Y-87.691
X43.682Y-106.691
X43.682Y-125.691
X43.682Y-144.691
X43.682Y-163.691
X44.368Y-97.521
X44.368Y-116.521
X44.368Y-135.521
X44.368Y-154.521
X44.368Y-173.521
X50.959Y-97.801
X50.959Y-116.801
X50.959Y-135.801
X50.959Y-154.801
X50.959Y-173.801
X54.261Y-87.704
X54.261Y-106.704
X54.261Y-125.704
X54.261Y-144.704
X54.261Y-163.704
X62.682Y-87.691
X62.682Y-106.691
X62.682Y-125.691
X62.682Y-144.691
X62.682Y-163.691
X63.368Y-97.521
X63.368Y-116.521
X63.368Y-135.521
X63.368Y-154.521
X63.368Y-173.521
X69.959Y-97.801
X69.959Y-116.801
X69.959Y-135.801
X69.959Y-154.801
X69.959Y-173.801
X73.261Y-87.704
X73.261Y-106.704
X73.261Y-125.704
X73.261Y-144.704
X73.261Y-163.704
X81.682Y-87.691
X81.682Y-106.691
X81.682Y-125.691
X81.682Y-144.691
X81.682Y-163.691
X82.368Y-97.521
X82.368Y-116.521
X82.368Y-135.521
X82.368Y-154.521
X82.368Y-173.521
X88.959Y-97.801
X88.959Y-116.801
X88.959Y-135.801
X88.959Y-154.801
X88.959Y-173.801
X92.261Y-87.704
X92.261Y-106.704
X92.261Y-125.704
X92.261Y-144.704
X92.261Y-163.704
X100.682Y-87.691
X100.682Y-106.691
X100.682Y-125.691
X100.682Y-144.691
X100.682Y-163.691
X101.368Y-97.521
X101.368Y-116.521
X101.368Y-135.521
X101.368Y-154.521
X101.368Y-173.521
X107.959Y-97.801
X107.959Y-116.801
X107.959Y-135.801
X107.959Y-154.801
X107.959Y-173.801
X111.261Y-87.704
X111.261Y-106.704
X111.261Y-125.704
X111.261Y-144.704
X111.261Y-163.704
X119.682Y-87.691
X119.682Y-106.691
X119.682Y-125.691
X119.682Y-144.691
X119.682Y-163.691
X120.368Y-97.521
X120.368Y-116.521
X120.368Y-135.521
X120.368Y-154.521
X120.368Y-173.521
X126.959Y-97.801
X126.959Y-116.801
X126.959Y-135.801
X126.959Y-154.801
X126.959Y-173.801
X130.261Y-87.704
X130.261Y-106.704
X130.261Y-125.704
X130.261Y-144.704
X130.261Y-163.704
X138.682Y-87.691
X138.682Y-106.691
X138.682Y-125.691
X138.682Y-144.691
X138.682Y-163.691
X139.368Y-97.521
X139.368Y-116.521
X139.368Y-135.521
X139.368Y-154.521
X139.368Y-173.521
X145.959Y-97.801
X145.959Y-116.801
X145.959Y-135.801
X145.959Y-154.801
X145.959Y-173.801
X149.261Y-87.704
X149.261Y-106.704
X149.261Y-125.704
X149.261Y-144.704
X149.261Y-163.704
X157.682Y-87.691
X157.682Y-106.691
X157.682Y-125.691
X157.682Y-144.691
X157.682Y-163.691
X158.368Y-97.521
X158.368Y-116.521
X158.368Y-135.521
X158.368Y-154.521
X158.368Y-173.521
X164.959Y-97.801
X164.959Y-116.801
X164.959Y-135.801
X164.959Y-154.801
X164.959Y-173.801
X168.261Y-87.704
X168.261Y-106.704
X168.261Y-125.704
X168.261Y-144.704
X168.261Y-163.704
X176.682Y-87.691
X176.682Y-106.691
X176.682Y-125.691
X176.682Y-144.691
X176.682Y-163.691
X177.368Y-97.521
X177.368Y-116.521
X177.368Y-135.521
X177.368Y-154.521
X177.368Y-173.521
X183.959Y-97.801
X183.959Y-116.801
X183.959Y-135.801
X183.959Y-154.801
X183.959Y-173.801
X187.261Y-87.704
X187.261Y-106.704
X187.261Y-125.704
X187.261Y-144.704
X187.261Y-163.704
X195.582Y-106.691
X195.682Y-87.691
X195.682Y-125.691
X195.682Y-144.691
X195.682Y-163.691
X196.268Y-116.521
X196.368Y-97.521
X196.368Y-135.521
X196.368Y-154.521
X196.368Y-173.521
X202.859Y-116.801
X202.959Y-97.801
X202.959Y-135.801
X202.959Y-154.801
X202.959Y-173.801
X206.161Y-106.704
X206.261Y-87.704
X206.261Y-125.704
X206.261Y-144.704
X206.261Y-163.704
X214.682Y-87.691
X214.682Y-106.691
X214.682Y-125.691
X214.682Y-144.691
X214.682Y-163.691
X215.368Y-97.521
X215.368Y-116.521
X215.368Y-135.521
X215.368Y-154.521
X215.368Y-173.521
X221.959Y-97.801
X221.959Y-116.801
X221.959Y-135.801
X221.959Y-154.801
X221.959Y-173.801
X225.261Y-87.704
X225.261Y-106.704
X225.261Y-125.704
X225.261Y-144.704
X225.261Y-163.704
X233.682Y-87.691
X233.682Y-106.691
X233.682Y-125.691
X233.682Y-144.691
X233.682Y-163.691
X234.368Y-97.521
X234.368Y-116.521
X234.368Y-135.521
X234.368Y-154.521
X234.368Y-173.521
X240.959Y-97.801
X240.959Y-116.801
X240.959Y-135.801
X240.959Y-154.801
X240.959Y-173.801
X244.261Y-87.704
X244.261Y-106.704
X244.261Y-125.704
X244.261Y-144.704
X244.261Y-163.704
T8
X21.59Y-83.185
X21.59Y-175.514
X247.015Y-83.185
X247.142Y-175.514
T2
G00X120.254Y-21.522
M15
G01X120.254Y-22.722
M16
G05
G00X128.894Y-21.522
M15
G01X128.894Y-22.722
M16
G05
T3
G00X120.254Y-17.642
M15
G01X120.254Y-18.242
M16
G05
G00X128.894Y-17.642
M15
G01X128.894Y-18.242
M16
G05
T0
M30
