%TF.GenerationSoftware,KiCad,Pcbnew,(5.1.9)-1*%
%TF.CreationDate,2021-10-30T21:00:12+02:00*%
%TF.ProjectId,88RPI,38385250-492e-46b6-9963-61645f706362,rev?*%
%TF.SameCoordinates,Original*%
%TF.FileFunction,Soldermask,Bot*%
%TF.FilePolarity,Negative*%
%FSLAX46Y46*%
G04 Gerber Fmt 4.6, Leading zero omitted, Abs format (unit mm)*
G04 Created by KiCad (PCBNEW (5.1.9)-1) date 2021-10-30 21:00:12*
%MOMM*%
%LPD*%
G01*
G04 APERTURE LIST*
%ADD10R,1.700000X0.900000*%
%ADD11C,1.524000*%
%ADD12O,1.700000X1.700000*%
%ADD13R,1.700000X1.700000*%
%ADD14R,0.300000X1.750000*%
%ADD15C,0.650000*%
%ADD16O,0.900000X2.100000*%
%ADD17O,1.000000X1.600000*%
%ADD18C,1.000000*%
%ADD19R,2.000000X3.000000*%
%ADD20R,1.000000X4.000000*%
%ADD21C,0.800000*%
%ADD22C,5.000000*%
%ADD23C,2.750000*%
%ADD24R,1.700000X3.000000*%
%ADD25C,1.700000*%
%ADD26R,1.500000X0.550000*%
%ADD27R,0.550000X1.500000*%
%ADD28C,1.500000*%
%ADD29R,2.440000X1.120000*%
%ADD30R,1.000000X3.000000*%
G04 APERTURE END LIST*
%TO.C,C3*%
G36*
G01*
X147075000Y-44408000D02*
X147075000Y-43908000D01*
G75*
G02*
X147300000Y-43683000I225000J0D01*
G01*
X147750000Y-43683000D01*
G75*
G02*
X147975000Y-43908000I0J-225000D01*
G01*
X147975000Y-44408000D01*
G75*
G02*
X147750000Y-44633000I-225000J0D01*
G01*
X147300000Y-44633000D01*
G75*
G02*
X147075000Y-44408000I0J225000D01*
G01*
G37*
G36*
G01*
X145525000Y-44408000D02*
X145525000Y-43908000D01*
G75*
G02*
X145750000Y-43683000I225000J0D01*
G01*
X146200000Y-43683000D01*
G75*
G02*
X146425000Y-43908000I0J-225000D01*
G01*
X146425000Y-44408000D01*
G75*
G02*
X146200000Y-44633000I-225000J0D01*
G01*
X145750000Y-44633000D01*
G75*
G02*
X145525000Y-44408000I0J225000D01*
G01*
G37*
%TD*%
%TO.C,C4*%
G36*
G01*
X147300000Y-51408000D02*
X147300000Y-50908000D01*
G75*
G02*
X147525000Y-50683000I225000J0D01*
G01*
X147975000Y-50683000D01*
G75*
G02*
X148200000Y-50908000I0J-225000D01*
G01*
X148200000Y-51408000D01*
G75*
G02*
X147975000Y-51633000I-225000J0D01*
G01*
X147525000Y-51633000D01*
G75*
G02*
X147300000Y-51408000I0J225000D01*
G01*
G37*
G36*
G01*
X145750000Y-51408000D02*
X145750000Y-50908000D01*
G75*
G02*
X145975000Y-50683000I225000J0D01*
G01*
X146425000Y-50683000D01*
G75*
G02*
X146650000Y-50908000I0J-225000D01*
G01*
X146650000Y-51408000D01*
G75*
G02*
X146425000Y-51633000I-225000J0D01*
G01*
X145975000Y-51633000D01*
G75*
G02*
X145750000Y-51408000I0J225000D01*
G01*
G37*
%TD*%
%TO.C,C5*%
G36*
G01*
X146650000Y-46408000D02*
X146650000Y-46908000D01*
G75*
G02*
X146425000Y-47133000I-225000J0D01*
G01*
X145975000Y-47133000D01*
G75*
G02*
X145750000Y-46908000I0J225000D01*
G01*
X145750000Y-46408000D01*
G75*
G02*
X145975000Y-46183000I225000J0D01*
G01*
X146425000Y-46183000D01*
G75*
G02*
X146650000Y-46408000I0J-225000D01*
G01*
G37*
G36*
G01*
X148200000Y-46408000D02*
X148200000Y-46908000D01*
G75*
G02*
X147975000Y-47133000I-225000J0D01*
G01*
X147525000Y-47133000D01*
G75*
G02*
X147300000Y-46908000I0J225000D01*
G01*
X147300000Y-46408000D01*
G75*
G02*
X147525000Y-46183000I225000J0D01*
G01*
X147975000Y-46183000D01*
G75*
G02*
X148200000Y-46408000I0J-225000D01*
G01*
G37*
%TD*%
%TO.C,C6*%
G36*
G01*
X147075000Y-48908000D02*
X147075000Y-48408000D01*
G75*
G02*
X147300000Y-48183000I225000J0D01*
G01*
X147750000Y-48183000D01*
G75*
G02*
X147975000Y-48408000I0J-225000D01*
G01*
X147975000Y-48908000D01*
G75*
G02*
X147750000Y-49133000I-225000J0D01*
G01*
X147300000Y-49133000D01*
G75*
G02*
X147075000Y-48908000I0J225000D01*
G01*
G37*
G36*
G01*
X145525000Y-48908000D02*
X145525000Y-48408000D01*
G75*
G02*
X145750000Y-48183000I225000J0D01*
G01*
X146200000Y-48183000D01*
G75*
G02*
X146425000Y-48408000I0J-225000D01*
G01*
X146425000Y-48908000D01*
G75*
G02*
X146200000Y-49133000I-225000J0D01*
G01*
X145750000Y-49133000D01*
G75*
G02*
X145525000Y-48908000I0J225000D01*
G01*
G37*
%TD*%
%TO.C,C7*%
G36*
G01*
X147300000Y-53844000D02*
X147300000Y-53344000D01*
G75*
G02*
X147525000Y-53119000I225000J0D01*
G01*
X147975000Y-53119000D01*
G75*
G02*
X148200000Y-53344000I0J-225000D01*
G01*
X148200000Y-53844000D01*
G75*
G02*
X147975000Y-54069000I-225000J0D01*
G01*
X147525000Y-54069000D01*
G75*
G02*
X147300000Y-53844000I0J225000D01*
G01*
G37*
G36*
G01*
X145750000Y-53844000D02*
X145750000Y-53344000D01*
G75*
G02*
X145975000Y-53119000I225000J0D01*
G01*
X146425000Y-53119000D01*
G75*
G02*
X146650000Y-53344000I0J-225000D01*
G01*
X146650000Y-53844000D01*
G75*
G02*
X146425000Y-54069000I-225000J0D01*
G01*
X145975000Y-54069000D01*
G75*
G02*
X145750000Y-53844000I0J225000D01*
G01*
G37*
%TD*%
%TO.C,R1*%
G36*
G01*
X142857000Y-33559000D02*
X142857000Y-33009000D01*
G75*
G02*
X143057000Y-32809000I200000J0D01*
G01*
X143457000Y-32809000D01*
G75*
G02*
X143657000Y-33009000I0J-200000D01*
G01*
X143657000Y-33559000D01*
G75*
G02*
X143457000Y-33759000I-200000J0D01*
G01*
X143057000Y-33759000D01*
G75*
G02*
X142857000Y-33559000I0J200000D01*
G01*
G37*
G36*
G01*
X141207000Y-33559000D02*
X141207000Y-33009000D01*
G75*
G02*
X141407000Y-32809000I200000J0D01*
G01*
X141807000Y-32809000D01*
G75*
G02*
X142007000Y-33009000I0J-200000D01*
G01*
X142007000Y-33559000D01*
G75*
G02*
X141807000Y-33759000I-200000J0D01*
G01*
X141407000Y-33759000D01*
G75*
G02*
X141207000Y-33559000I0J200000D01*
G01*
G37*
%TD*%
%TO.C,R2*%
G36*
G01*
X167469000Y-82783000D02*
X167469000Y-83333000D01*
G75*
G02*
X167269000Y-83533000I-200000J0D01*
G01*
X166869000Y-83533000D01*
G75*
G02*
X166669000Y-83333000I0J200000D01*
G01*
X166669000Y-82783000D01*
G75*
G02*
X166869000Y-82583000I200000J0D01*
G01*
X167269000Y-82583000D01*
G75*
G02*
X167469000Y-82783000I0J-200000D01*
G01*
G37*
G36*
G01*
X169119000Y-82783000D02*
X169119000Y-83333000D01*
G75*
G02*
X168919000Y-83533000I-200000J0D01*
G01*
X168519000Y-83533000D01*
G75*
G02*
X168319000Y-83333000I0J200000D01*
G01*
X168319000Y-82783000D01*
G75*
G02*
X168519000Y-82583000I200000J0D01*
G01*
X168919000Y-82583000D01*
G75*
G02*
X169119000Y-82783000I0J-200000D01*
G01*
G37*
%TD*%
D10*
%TO.C,SW61*%
X142432000Y-30984000D03*
X142432000Y-27584000D03*
%TD*%
D11*
%TO.C,J2*%
X21000000Y-31620000D03*
X21000000Y-29080000D03*
X21000000Y-26540000D03*
X21000000Y-24000000D03*
X21000000Y-21460000D03*
X21000000Y-18920000D03*
%TD*%
D12*
%TO.C,J3*%
X138303000Y-22225000D03*
X138303000Y-19685000D03*
X135763000Y-22225000D03*
X135763000Y-19685000D03*
X133223000Y-22225000D03*
D13*
X133223000Y-19685000D03*
%TD*%
D14*
%TO.C,J4*%
X127924000Y-22962000D03*
X127624000Y-22962000D03*
X126824000Y-22962000D03*
X127124000Y-22962000D03*
X122324000Y-22962000D03*
X122024000Y-22962000D03*
X121524000Y-22962000D03*
X121224000Y-22962000D03*
X124324000Y-22962000D03*
X123324000Y-22962000D03*
X122824000Y-22962000D03*
X123824000Y-22962000D03*
X126324000Y-22962000D03*
X125824000Y-22962000D03*
X125324000Y-22962000D03*
X124824000Y-22962000D03*
D15*
X127464000Y-21622000D03*
X121684000Y-21622000D03*
D16*
X128894000Y-22122000D03*
X120254000Y-22122000D03*
D17*
X128894000Y-17942000D03*
X120254000Y-17942000D03*
%TD*%
%TO.C,R3*%
G36*
G01*
X122839000Y-30808800D02*
X123389000Y-30808800D01*
G75*
G02*
X123589000Y-31008800I0J-200000D01*
G01*
X123589000Y-31408800D01*
G75*
G02*
X123389000Y-31608800I-200000J0D01*
G01*
X122839000Y-31608800D01*
G75*
G02*
X122639000Y-31408800I0J200000D01*
G01*
X122639000Y-31008800D01*
G75*
G02*
X122839000Y-30808800I200000J0D01*
G01*
G37*
G36*
G01*
X122839000Y-29158800D02*
X123389000Y-29158800D01*
G75*
G02*
X123589000Y-29358800I0J-200000D01*
G01*
X123589000Y-29758800D01*
G75*
G02*
X123389000Y-29958800I-200000J0D01*
G01*
X122839000Y-29958800D01*
G75*
G02*
X122639000Y-29758800I0J200000D01*
G01*
X122639000Y-29358800D01*
G75*
G02*
X122839000Y-29158800I200000J0D01*
G01*
G37*
%TD*%
%TO.C,R4*%
G36*
G01*
X125089000Y-29933800D02*
X124539000Y-29933800D01*
G75*
G02*
X124339000Y-29733800I0J200000D01*
G01*
X124339000Y-29333800D01*
G75*
G02*
X124539000Y-29133800I200000J0D01*
G01*
X125089000Y-29133800D01*
G75*
G02*
X125289000Y-29333800I0J-200000D01*
G01*
X125289000Y-29733800D01*
G75*
G02*
X125089000Y-29933800I-200000J0D01*
G01*
G37*
G36*
G01*
X125089000Y-31583800D02*
X124539000Y-31583800D01*
G75*
G02*
X124339000Y-31383800I0J200000D01*
G01*
X124339000Y-30983800D01*
G75*
G02*
X124539000Y-30783800I200000J0D01*
G01*
X125089000Y-30783800D01*
G75*
G02*
X125289000Y-30983800I0J-200000D01*
G01*
X125289000Y-31383800D01*
G75*
G02*
X125089000Y-31583800I-200000J0D01*
G01*
G37*
%TD*%
%TO.C,R5*%
G36*
G01*
X51748000Y-74344000D02*
X51198000Y-74344000D01*
G75*
G02*
X50998000Y-74144000I0J200000D01*
G01*
X50998000Y-73744000D01*
G75*
G02*
X51198000Y-73544000I200000J0D01*
G01*
X51748000Y-73544000D01*
G75*
G02*
X51948000Y-73744000I0J-200000D01*
G01*
X51948000Y-74144000D01*
G75*
G02*
X51748000Y-74344000I-200000J0D01*
G01*
G37*
G36*
G01*
X51748000Y-75994000D02*
X51198000Y-75994000D01*
G75*
G02*
X50998000Y-75794000I0J200000D01*
G01*
X50998000Y-75394000D01*
G75*
G02*
X51198000Y-75194000I200000J0D01*
G01*
X51748000Y-75194000D01*
G75*
G02*
X51948000Y-75394000I0J-200000D01*
G01*
X51948000Y-75794000D01*
G75*
G02*
X51748000Y-75994000I-200000J0D01*
G01*
G37*
%TD*%
%TO.C,R6*%
G36*
G01*
X49238000Y-78354000D02*
X48688000Y-78354000D01*
G75*
G02*
X48488000Y-78154000I0J200000D01*
G01*
X48488000Y-77754000D01*
G75*
G02*
X48688000Y-77554000I200000J0D01*
G01*
X49238000Y-77554000D01*
G75*
G02*
X49438000Y-77754000I0J-200000D01*
G01*
X49438000Y-78154000D01*
G75*
G02*
X49238000Y-78354000I-200000J0D01*
G01*
G37*
G36*
G01*
X49238000Y-80004000D02*
X48688000Y-80004000D01*
G75*
G02*
X48488000Y-79804000I0J200000D01*
G01*
X48488000Y-79404000D01*
G75*
G02*
X48688000Y-79204000I200000J0D01*
G01*
X49238000Y-79204000D01*
G75*
G02*
X49438000Y-79404000I0J-200000D01*
G01*
X49438000Y-79804000D01*
G75*
G02*
X49238000Y-80004000I-200000J0D01*
G01*
G37*
%TD*%
%TO.C,R7*%
G36*
G01*
X134854000Y-35327000D02*
X134854000Y-34777000D01*
G75*
G02*
X135054000Y-34577000I200000J0D01*
G01*
X135454000Y-34577000D01*
G75*
G02*
X135654000Y-34777000I0J-200000D01*
G01*
X135654000Y-35327000D01*
G75*
G02*
X135454000Y-35527000I-200000J0D01*
G01*
X135054000Y-35527000D01*
G75*
G02*
X134854000Y-35327000I0J200000D01*
G01*
G37*
G36*
G01*
X133204000Y-35327000D02*
X133204000Y-34777000D01*
G75*
G02*
X133404000Y-34577000I200000J0D01*
G01*
X133804000Y-34577000D01*
G75*
G02*
X134004000Y-34777000I0J-200000D01*
G01*
X134004000Y-35327000D01*
G75*
G02*
X133804000Y-35527000I-200000J0D01*
G01*
X133404000Y-35527000D01*
G75*
G02*
X133204000Y-35327000I0J200000D01*
G01*
G37*
%TD*%
%TO.C,R8*%
G36*
G01*
X139344000Y-38614000D02*
X139344000Y-38064000D01*
G75*
G02*
X139544000Y-37864000I200000J0D01*
G01*
X139944000Y-37864000D01*
G75*
G02*
X140144000Y-38064000I0J-200000D01*
G01*
X140144000Y-38614000D01*
G75*
G02*
X139944000Y-38814000I-200000J0D01*
G01*
X139544000Y-38814000D01*
G75*
G02*
X139344000Y-38614000I0J200000D01*
G01*
G37*
G36*
G01*
X137694000Y-38614000D02*
X137694000Y-38064000D01*
G75*
G02*
X137894000Y-37864000I200000J0D01*
G01*
X138294000Y-37864000D01*
G75*
G02*
X138494000Y-38064000I0J-200000D01*
G01*
X138494000Y-38614000D01*
G75*
G02*
X138294000Y-38814000I-200000J0D01*
G01*
X137894000Y-38814000D01*
G75*
G02*
X137694000Y-38614000I0J200000D01*
G01*
G37*
%TD*%
%TO.C,R9*%
G36*
G01*
X49238000Y-74344000D02*
X48688000Y-74344000D01*
G75*
G02*
X48488000Y-74144000I0J200000D01*
G01*
X48488000Y-73744000D01*
G75*
G02*
X48688000Y-73544000I200000J0D01*
G01*
X49238000Y-73544000D01*
G75*
G02*
X49438000Y-73744000I0J-200000D01*
G01*
X49438000Y-74144000D01*
G75*
G02*
X49238000Y-74344000I-200000J0D01*
G01*
G37*
G36*
G01*
X49238000Y-75994000D02*
X48688000Y-75994000D01*
G75*
G02*
X48488000Y-75794000I0J200000D01*
G01*
X48488000Y-75394000D01*
G75*
G02*
X48688000Y-75194000I200000J0D01*
G01*
X49238000Y-75194000D01*
G75*
G02*
X49438000Y-75394000I0J-200000D01*
G01*
X49438000Y-75794000D01*
G75*
G02*
X49238000Y-75994000I-200000J0D01*
G01*
G37*
%TD*%
%TO.C,J7*%
G36*
G01*
X58868000Y-76126000D02*
X58868000Y-79026000D01*
G75*
G02*
X58618000Y-79276000I-250000J0D01*
G01*
X57618000Y-79276000D01*
G75*
G02*
X57368000Y-79026000I0J250000D01*
G01*
X57368000Y-76126000D01*
G75*
G02*
X57618000Y-75876000I250000J0D01*
G01*
X58618000Y-75876000D01*
G75*
G02*
X58868000Y-76126000I0J-250000D01*
G01*
G37*
G36*
G01*
X65568000Y-76126000D02*
X65568000Y-79026000D01*
G75*
G02*
X65318000Y-79276000I-250000J0D01*
G01*
X64318000Y-79276000D01*
G75*
G02*
X64068000Y-79026000I0J250000D01*
G01*
X64068000Y-76126000D01*
G75*
G02*
X64318000Y-75876000I250000J0D01*
G01*
X65318000Y-75876000D01*
G75*
G02*
X65568000Y-76126000I0J-250000D01*
G01*
G37*
G36*
G01*
X60968000Y-70326000D02*
X60968000Y-73326000D01*
G75*
G02*
X60718000Y-73576000I-250000J0D01*
G01*
X60218000Y-73576000D01*
G75*
G02*
X59968000Y-73326000I0J250000D01*
G01*
X59968000Y-70326000D01*
G75*
G02*
X60218000Y-70076000I250000J0D01*
G01*
X60718000Y-70076000D01*
G75*
G02*
X60968000Y-70326000I0J-250000D01*
G01*
G37*
G36*
G01*
X62968000Y-70326000D02*
X62968000Y-73326000D01*
G75*
G02*
X62718000Y-73576000I-250000J0D01*
G01*
X62218000Y-73576000D01*
G75*
G02*
X61968000Y-73326000I0J250000D01*
G01*
X61968000Y-70326000D01*
G75*
G02*
X62218000Y-70076000I250000J0D01*
G01*
X62718000Y-70076000D01*
G75*
G02*
X62968000Y-70326000I0J-250000D01*
G01*
G37*
%TD*%
D11*
%TO.C,U4*%
X38684200Y-59956700D03*
X36144200Y-59956700D03*
X33604200Y-59956700D03*
X31064200Y-59956700D03*
X28524200Y-59956700D03*
X25984200Y-59956700D03*
%TD*%
D18*
%TO.C,J11*%
X40208200Y-80695800D03*
X32105600Y-80695800D03*
D19*
X43891200Y-76809600D03*
X28371800Y-76682600D03*
D20*
X39624000Y-72542400D03*
X37185600Y-72542400D03*
X35153600Y-72517000D03*
X32664400Y-72517000D03*
%TD*%
D21*
%TO.C,H1*%
X22915825Y-81859175D03*
X21590000Y-81310000D03*
X20264175Y-81859175D03*
X19715000Y-83185000D03*
X20264175Y-84510825D03*
X21590000Y-85060000D03*
X22915825Y-84510825D03*
X23465000Y-83185000D03*
D22*
X21590000Y-83185000D03*
%TD*%
D21*
%TO.C,H2*%
X248340825Y-81859175D03*
X247015000Y-81310000D03*
X245689175Y-81859175D03*
X245140000Y-83185000D03*
X245689175Y-84510825D03*
X247015000Y-85060000D03*
X248340825Y-84510825D03*
X248890000Y-83185000D03*
D22*
X247015000Y-83185000D03*
%TD*%
D21*
%TO.C,H3*%
X22915825Y-174188175D03*
X21590000Y-173639000D03*
X20264175Y-174188175D03*
X19715000Y-175514000D03*
X20264175Y-176839825D03*
X21590000Y-177389000D03*
X22915825Y-176839825D03*
X23465000Y-175514000D03*
D22*
X21590000Y-175514000D03*
%TD*%
D21*
%TO.C,H4*%
X248467825Y-174188175D03*
X247142000Y-173639000D03*
X245816175Y-174188175D03*
X245267000Y-175514000D03*
X245816175Y-176839825D03*
X247142000Y-177389000D03*
X248467825Y-176839825D03*
X249017000Y-175514000D03*
D22*
X247142000Y-175514000D03*
%TD*%
D23*
%TO.C,J9*%
X226104000Y-73384000D03*
X168104000Y-73384000D03*
X168104000Y-24384000D03*
X226104000Y-24384000D03*
D24*
X221252000Y-22375000D03*
X221252000Y-26248500D03*
X218712000Y-22375000D03*
X218712000Y-26248500D03*
X216172000Y-22375000D03*
X216172000Y-26248500D03*
X213632000Y-22375000D03*
X213632000Y-26248500D03*
X211092000Y-22375000D03*
X211092000Y-26248500D03*
X208552000Y-22375000D03*
X208552000Y-26248500D03*
X206012000Y-22375000D03*
X206012000Y-26248500D03*
X203472000Y-22375000D03*
X203472000Y-26248500D03*
X200932000Y-22375000D03*
X200932000Y-26248500D03*
X198392000Y-22375000D03*
X198392000Y-26185000D03*
X195852000Y-22375000D03*
X195834000Y-26225500D03*
X193312000Y-22375000D03*
X193294000Y-26225500D03*
X190772000Y-22375000D03*
X190754000Y-26225500D03*
X188232000Y-22375000D03*
X188214000Y-26225500D03*
X185692000Y-22375000D03*
X185674000Y-26225500D03*
X183152000Y-22375000D03*
X183134000Y-26225500D03*
X180612000Y-22375000D03*
X180594000Y-26225500D03*
X178072000Y-22375000D03*
X178117500Y-26225500D03*
X175532000Y-22375000D03*
X175514000Y-26225500D03*
X172974000Y-22352000D03*
X172974000Y-26225500D03*
%TD*%
D12*
%TO.C,J10*%
X36576000Y-32131000D03*
D13*
X34036000Y-32131000D03*
%TD*%
D25*
%TO.C,SW1*%
X24681900Y-87691500D03*
X35261000Y-87704200D03*
X25367700Y-97521300D03*
X31959000Y-97800700D03*
%TD*%
%TO.C,SW2*%
X50959000Y-97800700D03*
X44367700Y-97521300D03*
X54261000Y-87704200D03*
X43681900Y-87691500D03*
%TD*%
%TO.C,SW3*%
X62681900Y-87691500D03*
X73261000Y-87704200D03*
X63367700Y-97521300D03*
X69959000Y-97800700D03*
%TD*%
%TO.C,SW4*%
X88959000Y-97800700D03*
X82367700Y-97521300D03*
X92261000Y-87704200D03*
X81681900Y-87691500D03*
%TD*%
%TO.C,SW5*%
X100681900Y-87691500D03*
X111261000Y-87704200D03*
X101367700Y-97521300D03*
X107959000Y-97800700D03*
%TD*%
%TO.C,SW6*%
X126959000Y-97800700D03*
X120367700Y-97521300D03*
X130261000Y-87704200D03*
X119681900Y-87691500D03*
%TD*%
%TO.C,SW7*%
X138681900Y-87691500D03*
X149261000Y-87704200D03*
X139367700Y-97521300D03*
X145959000Y-97800700D03*
%TD*%
%TO.C,SW8*%
X164959000Y-97800700D03*
X158367700Y-97521300D03*
X168261000Y-87704200D03*
X157681900Y-87691500D03*
%TD*%
%TO.C,SW9*%
X176681900Y-87691500D03*
X187261000Y-87704200D03*
X177367700Y-97521300D03*
X183959000Y-97800700D03*
%TD*%
%TO.C,SW10*%
X195681900Y-87691500D03*
X206261000Y-87704200D03*
X196367700Y-97521300D03*
X202959000Y-97800700D03*
%TD*%
%TO.C,SW11*%
X214681900Y-87691500D03*
X225261000Y-87704200D03*
X215367700Y-97521300D03*
X221959000Y-97800700D03*
%TD*%
%TO.C,SW12*%
X240959000Y-97800700D03*
X234367700Y-97521300D03*
X244261000Y-87704200D03*
X233681900Y-87691500D03*
%TD*%
%TO.C,SW13*%
X24681900Y-106691500D03*
X35261000Y-106704200D03*
X25367700Y-116521300D03*
X31959000Y-116800700D03*
%TD*%
%TO.C,SW14*%
X50959000Y-116800700D03*
X44367700Y-116521300D03*
X54261000Y-106704200D03*
X43681900Y-106691500D03*
%TD*%
%TO.C,SW15*%
X62681900Y-106691500D03*
X73261000Y-106704200D03*
X63367700Y-116521300D03*
X69959000Y-116800700D03*
%TD*%
%TO.C,SW16*%
X88959000Y-116800700D03*
X82367700Y-116521300D03*
X92261000Y-106704200D03*
X81681900Y-106691500D03*
%TD*%
%TO.C,SW17*%
X100681900Y-106691500D03*
X111261000Y-106704200D03*
X101367700Y-116521300D03*
X107959000Y-116800700D03*
%TD*%
%TO.C,SW18*%
X119681900Y-106691500D03*
X130261000Y-106704200D03*
X120367700Y-116521300D03*
X126959000Y-116800700D03*
%TD*%
%TO.C,SW19*%
X138681900Y-106691500D03*
X149261000Y-106704200D03*
X139367700Y-116521300D03*
X145959000Y-116800700D03*
%TD*%
%TO.C,SW20*%
X164959000Y-116800700D03*
X158367700Y-116521300D03*
X168261000Y-106704200D03*
X157681900Y-106691500D03*
%TD*%
%TO.C,SW21*%
X176681900Y-106691500D03*
X187261000Y-106704200D03*
X177367700Y-116521300D03*
X183959000Y-116800700D03*
%TD*%
%TO.C,SW22*%
X202859000Y-116800700D03*
X196267700Y-116521300D03*
X206161000Y-106704200D03*
X195581900Y-106691500D03*
%TD*%
%TO.C,SW23*%
X214681900Y-106691500D03*
X225261000Y-106704200D03*
X215367700Y-116521300D03*
X221959000Y-116800700D03*
%TD*%
%TO.C,SW24*%
X240959000Y-116800700D03*
X234367700Y-116521300D03*
X244261000Y-106704200D03*
X233681900Y-106691500D03*
%TD*%
%TO.C,SW25*%
X24681900Y-125691500D03*
X35261000Y-125704200D03*
X25367700Y-135521300D03*
X31959000Y-135800700D03*
%TD*%
%TO.C,SW26*%
X50959000Y-135800700D03*
X44367700Y-135521300D03*
X54261000Y-125704200D03*
X43681900Y-125691500D03*
%TD*%
%TO.C,SW27*%
X69959000Y-135800700D03*
X63367700Y-135521300D03*
X73261000Y-125704200D03*
X62681900Y-125691500D03*
%TD*%
%TO.C,SW28*%
X88959000Y-135800700D03*
X82367700Y-135521300D03*
X92261000Y-125704200D03*
X81681900Y-125691500D03*
%TD*%
%TO.C,SW29*%
X100681900Y-125691500D03*
X111261000Y-125704200D03*
X101367700Y-135521300D03*
X107959000Y-135800700D03*
%TD*%
%TO.C,SW30*%
X126959000Y-135800700D03*
X120367700Y-135521300D03*
X130261000Y-125704200D03*
X119681900Y-125691500D03*
%TD*%
%TO.C,SW31*%
X138681900Y-125691500D03*
X149261000Y-125704200D03*
X139367700Y-135521300D03*
X145959000Y-135800700D03*
%TD*%
%TO.C,SW32*%
X164959000Y-135800700D03*
X158367700Y-135521300D03*
X168261000Y-125704200D03*
X157681900Y-125691500D03*
%TD*%
%TO.C,SW33*%
X176681900Y-125691500D03*
X187261000Y-125704200D03*
X177367700Y-135521300D03*
X183959000Y-135800700D03*
%TD*%
%TO.C,SW34*%
X202959000Y-135800700D03*
X196367700Y-135521300D03*
X206261000Y-125704200D03*
X195681900Y-125691500D03*
%TD*%
%TO.C,SW35*%
X221959000Y-135800700D03*
X215367700Y-135521300D03*
X225261000Y-125704200D03*
X214681900Y-125691500D03*
%TD*%
%TO.C,SW36*%
X240959000Y-135800700D03*
X234367700Y-135521300D03*
X244261000Y-125704200D03*
X233681900Y-125691500D03*
%TD*%
%TO.C,SW37*%
X24681900Y-144691500D03*
X35261000Y-144704200D03*
X25367700Y-154521300D03*
X31959000Y-154800700D03*
%TD*%
%TO.C,SW38*%
X50959000Y-154800700D03*
X44367700Y-154521300D03*
X54261000Y-144704200D03*
X43681900Y-144691500D03*
%TD*%
%TO.C,SW39*%
X62681900Y-144691500D03*
X73261000Y-144704200D03*
X63367700Y-154521300D03*
X69959000Y-154800700D03*
%TD*%
%TO.C,SW40*%
X88959000Y-154800700D03*
X82367700Y-154521300D03*
X92261000Y-144704200D03*
X81681900Y-144691500D03*
%TD*%
%TO.C,SW41*%
X100681900Y-144691500D03*
X111261000Y-144704200D03*
X101367700Y-154521300D03*
X107959000Y-154800700D03*
%TD*%
%TO.C,SW42*%
X126959000Y-154800700D03*
X120367700Y-154521300D03*
X130261000Y-144704200D03*
X119681900Y-144691500D03*
%TD*%
%TO.C,SW43*%
X138681900Y-144691500D03*
X149261000Y-144704200D03*
X139367700Y-154521300D03*
X145959000Y-154800700D03*
%TD*%
%TO.C,SW44*%
X164959000Y-154800700D03*
X158367700Y-154521300D03*
X168261000Y-144704200D03*
X157681900Y-144691500D03*
%TD*%
%TO.C,SW45*%
X176681900Y-144691500D03*
X187261000Y-144704200D03*
X177367700Y-154521300D03*
X183959000Y-154800700D03*
%TD*%
%TO.C,SW46*%
X202959000Y-154800700D03*
X196367700Y-154521300D03*
X206261000Y-144704200D03*
X195681900Y-144691500D03*
%TD*%
%TO.C,SW47*%
X221959000Y-154800700D03*
X215367700Y-154521300D03*
X225261000Y-144704200D03*
X214681900Y-144691500D03*
%TD*%
%TO.C,SW48*%
X233681900Y-144691500D03*
X244261000Y-144704200D03*
X234367700Y-154521300D03*
X240959000Y-154800700D03*
%TD*%
%TO.C,SW49*%
X24681900Y-163691500D03*
X35261000Y-163704200D03*
X25367700Y-173521300D03*
X31959000Y-173800700D03*
%TD*%
%TO.C,SW50*%
X50959000Y-173800700D03*
X44367700Y-173521300D03*
X54261000Y-163704200D03*
X43681900Y-163691500D03*
%TD*%
%TO.C,SW51*%
X62681900Y-163691500D03*
X73261000Y-163704200D03*
X63367700Y-173521300D03*
X69959000Y-173800700D03*
%TD*%
%TO.C,SW52*%
X88959000Y-173800700D03*
X82367700Y-173521300D03*
X92261000Y-163704200D03*
X81681900Y-163691500D03*
%TD*%
%TO.C,SW53*%
X100681900Y-163691500D03*
X111261000Y-163704200D03*
X101367700Y-173521300D03*
X107959000Y-173800700D03*
%TD*%
%TO.C,SW54*%
X126959000Y-173800700D03*
X120367700Y-173521300D03*
X130261000Y-163704200D03*
X119681900Y-163691500D03*
%TD*%
%TO.C,SW55*%
X138681900Y-163691500D03*
X149261000Y-163704200D03*
X139367700Y-173521300D03*
X145959000Y-173800700D03*
%TD*%
%TO.C,SW56*%
X164959000Y-173800700D03*
X158367700Y-173521300D03*
X168261000Y-163704200D03*
X157681900Y-163691500D03*
%TD*%
%TO.C,SW57*%
X176681900Y-163691500D03*
X187261000Y-163704200D03*
X177367700Y-173521300D03*
X183959000Y-173800700D03*
%TD*%
%TO.C,SW58*%
X202959000Y-173800700D03*
X196367700Y-173521300D03*
X206261000Y-163704200D03*
X195681900Y-163691500D03*
%TD*%
%TO.C,SW59*%
X214681900Y-163691500D03*
X225261000Y-163704200D03*
X215367700Y-173521300D03*
X221959000Y-173800700D03*
%TD*%
%TO.C,SW60*%
X240959000Y-173800700D03*
X234367700Y-173521300D03*
X244261000Y-163704200D03*
X233681900Y-163691500D03*
%TD*%
%TO.C,C1*%
G36*
G01*
X162437000Y-21661000D02*
X162937000Y-21661000D01*
G75*
G02*
X163162000Y-21886000I0J-225000D01*
G01*
X163162000Y-22336000D01*
G75*
G02*
X162937000Y-22561000I-225000J0D01*
G01*
X162437000Y-22561000D01*
G75*
G02*
X162212000Y-22336000I0J225000D01*
G01*
X162212000Y-21886000D01*
G75*
G02*
X162437000Y-21661000I225000J0D01*
G01*
G37*
G36*
G01*
X162437000Y-20111000D02*
X162937000Y-20111000D01*
G75*
G02*
X163162000Y-20336000I0J-225000D01*
G01*
X163162000Y-20786000D01*
G75*
G02*
X162937000Y-21011000I-225000J0D01*
G01*
X162437000Y-21011000D01*
G75*
G02*
X162212000Y-20786000I0J225000D01*
G01*
X162212000Y-20336000D01*
G75*
G02*
X162437000Y-20111000I225000J0D01*
G01*
G37*
%TD*%
%TO.C,C2*%
G36*
G01*
X147197000Y-20225000D02*
X147697000Y-20225000D01*
G75*
G02*
X147922000Y-20450000I0J-225000D01*
G01*
X147922000Y-20900000D01*
G75*
G02*
X147697000Y-21125000I-225000J0D01*
G01*
X147197000Y-21125000D01*
G75*
G02*
X146972000Y-20900000I0J225000D01*
G01*
X146972000Y-20450000D01*
G75*
G02*
X147197000Y-20225000I225000J0D01*
G01*
G37*
G36*
G01*
X147197000Y-21775000D02*
X147697000Y-21775000D01*
G75*
G02*
X147922000Y-22000000I0J-225000D01*
G01*
X147922000Y-22450000D01*
G75*
G02*
X147697000Y-22675000I-225000J0D01*
G01*
X147197000Y-22675000D01*
G75*
G02*
X146972000Y-22450000I0J225000D01*
G01*
X146972000Y-22000000D01*
G75*
G02*
X147197000Y-21775000I225000J0D01*
G01*
G37*
%TD*%
D26*
%TO.C,U1*%
X154828000Y-40576000D03*
X154828000Y-39776000D03*
X154828000Y-38976000D03*
X154828000Y-38176000D03*
X154828000Y-37376000D03*
X154828000Y-36576000D03*
X154828000Y-35776000D03*
X154828000Y-34976000D03*
X154828000Y-34176000D03*
X154828000Y-33376000D03*
X154828000Y-32576000D03*
D27*
X156528000Y-30876000D03*
X157328000Y-30876000D03*
X158128000Y-30876000D03*
X158928000Y-30876000D03*
X159728000Y-30876000D03*
X160528000Y-30876000D03*
X161328000Y-30876000D03*
X162128000Y-30876000D03*
X162928000Y-30876000D03*
X163728000Y-30876000D03*
X164528000Y-30876000D03*
D26*
X166228000Y-32576000D03*
X166228000Y-33376000D03*
X166228000Y-34176000D03*
X166228000Y-34976000D03*
X166228000Y-35776000D03*
X166228000Y-36576000D03*
X166228000Y-37376000D03*
X166228000Y-38176000D03*
X166228000Y-38976000D03*
X166228000Y-39776000D03*
X166228000Y-40576000D03*
D27*
X164528000Y-42276000D03*
X163728000Y-42276000D03*
X162928000Y-42276000D03*
X162128000Y-42276000D03*
X161328000Y-42276000D03*
X160528000Y-42276000D03*
X159728000Y-42276000D03*
X158928000Y-42276000D03*
X158128000Y-42276000D03*
X157328000Y-42276000D03*
X156528000Y-42276000D03*
%TD*%
D28*
%TO.C,Y1*%
X157607000Y-20828000D03*
X152727000Y-20828000D03*
%TD*%
%TO.C,R65*%
G36*
G01*
X161054000Y-50271000D02*
X161054000Y-50821000D01*
G75*
G02*
X160854000Y-51021000I-200000J0D01*
G01*
X160454000Y-51021000D01*
G75*
G02*
X160254000Y-50821000I0J200000D01*
G01*
X160254000Y-50271000D01*
G75*
G02*
X160454000Y-50071000I200000J0D01*
G01*
X160854000Y-50071000D01*
G75*
G02*
X161054000Y-50271000I0J-200000D01*
G01*
G37*
G36*
G01*
X159404000Y-50271000D02*
X159404000Y-50821000D01*
G75*
G02*
X159204000Y-51021000I-200000J0D01*
G01*
X158804000Y-51021000D01*
G75*
G02*
X158604000Y-50821000I0J200000D01*
G01*
X158604000Y-50271000D01*
G75*
G02*
X158804000Y-50071000I200000J0D01*
G01*
X159204000Y-50071000D01*
G75*
G02*
X159404000Y-50271000I0J-200000D01*
G01*
G37*
%TD*%
%TO.C,R66*%
G36*
G01*
X141078000Y-44217000D02*
X141078000Y-43667000D01*
G75*
G02*
X141278000Y-43467000I200000J0D01*
G01*
X141678000Y-43467000D01*
G75*
G02*
X141878000Y-43667000I0J-200000D01*
G01*
X141878000Y-44217000D01*
G75*
G02*
X141678000Y-44417000I-200000J0D01*
G01*
X141278000Y-44417000D01*
G75*
G02*
X141078000Y-44217000I0J200000D01*
G01*
G37*
G36*
G01*
X139428000Y-44217000D02*
X139428000Y-43667000D01*
G75*
G02*
X139628000Y-43467000I200000J0D01*
G01*
X140028000Y-43467000D01*
G75*
G02*
X140228000Y-43667000I0J-200000D01*
G01*
X140228000Y-44217000D01*
G75*
G02*
X140028000Y-44417000I-200000J0D01*
G01*
X139628000Y-44417000D01*
G75*
G02*
X139428000Y-44217000I0J200000D01*
G01*
G37*
%TD*%
D13*
%TO.C,J1*%
X20574000Y-67056000D03*
D12*
X20574000Y-69596000D03*
X20574000Y-72136000D03*
X20574000Y-74676000D03*
%TD*%
%TO.C,J18*%
X198247000Y-44323000D03*
X198247000Y-41783000D03*
X198247000Y-39243000D03*
D13*
X198247000Y-36703000D03*
%TD*%
D29*
%TO.C,SW62*%
X31255000Y-23749000D03*
X39865000Y-21209000D03*
X31255000Y-21209000D03*
X39865000Y-23749000D03*
%TD*%
D13*
%TO.C,J5*%
X20828000Y-59690000D03*
D12*
X20828000Y-62230000D03*
%TD*%
%TO.C,J12*%
X46482000Y-25527000D03*
X49022000Y-25527000D03*
D13*
X51562000Y-25527000D03*
%TD*%
%TO.C,J15*%
X51562000Y-21209000D03*
D12*
X49022000Y-21209000D03*
X46482000Y-21209000D03*
%TD*%
D30*
%TO.C,J13*%
X60706000Y-25995000D03*
X60706000Y-20955000D03*
X63246000Y-25995000D03*
X63246000Y-20955000D03*
X65786000Y-25995000D03*
X65786000Y-20955000D03*
X68326000Y-25995000D03*
X68326000Y-20955000D03*
X70866000Y-25995000D03*
X70866000Y-20955000D03*
X73406000Y-25995000D03*
X73406000Y-20955000D03*
X75946000Y-25995000D03*
X75946000Y-20955000D03*
X78486000Y-25995000D03*
X78486000Y-20955000D03*
X81026000Y-25995000D03*
X81026000Y-20955000D03*
X83566000Y-25995000D03*
X83566000Y-20955000D03*
X86106000Y-25995000D03*
X86106000Y-20955000D03*
X88646000Y-25995000D03*
X88646000Y-20955000D03*
X91186000Y-25995000D03*
X91186000Y-20955000D03*
X93726000Y-25995000D03*
X93726000Y-20955000D03*
X96266000Y-25995000D03*
X96266000Y-20955000D03*
X98806000Y-25995000D03*
X98806000Y-20955000D03*
X101346000Y-25995000D03*
X101346000Y-20955000D03*
X103886000Y-25995000D03*
X103886000Y-20955000D03*
X106426000Y-25995000D03*
X106426000Y-20955000D03*
X108966000Y-25995000D03*
X108966000Y-20955000D03*
%TD*%
D13*
%TO.C,J8*%
X198247000Y-51308000D03*
D12*
X198247000Y-53848000D03*
X198247000Y-56388000D03*
X198247000Y-58928000D03*
%TD*%
M02*
