%TF.GenerationSoftware,KiCad,Pcbnew,(5.1.9)-1*%
%TF.CreationDate,2021-10-30T21:00:12+02:00*%
%TF.ProjectId,88RPI,38385250-492e-46b6-9963-61645f706362,rev?*%
%TF.SameCoordinates,Original*%
%TF.FileFunction,Paste,Top*%
%TF.FilePolarity,Positive*%
%FSLAX46Y46*%
G04 Gerber Fmt 4.6, Leading zero omitted, Abs format (unit mm)*
G04 Created by KiCad (PCBNEW (5.1.9)-1) date 2021-10-30 21:00:12*
%MOMM*%
%LPD*%
G01*
G04 APERTURE LIST*
%ADD10R,1.000000X1.000000*%
G04 APERTURE END LIST*
%TO.C,SW1*%
G36*
G01*
X30150000Y-88779900D02*
X30150000Y-88304900D01*
G75*
G02*
X30387500Y-88067400I237500J0D01*
G01*
X30962500Y-88067400D01*
G75*
G02*
X31200000Y-88304900I0J-237500D01*
G01*
X31200000Y-88779900D01*
G75*
G02*
X30962500Y-89017400I-237500J0D01*
G01*
X30387500Y-89017400D01*
G75*
G02*
X30150000Y-88779900I0J237500D01*
G01*
G37*
G36*
G01*
X28400000Y-88779900D02*
X28400000Y-88304900D01*
G75*
G02*
X28637500Y-88067400I237500J0D01*
G01*
X29212500Y-88067400D01*
G75*
G02*
X29450000Y-88304900I0J-237500D01*
G01*
X29450000Y-88779900D01*
G75*
G02*
X29212500Y-89017400I-237500J0D01*
G01*
X28637500Y-89017400D01*
G75*
G02*
X28400000Y-88779900I0J237500D01*
G01*
G37*
%TD*%
%TO.C,SW2*%
G36*
G01*
X47400000Y-88779900D02*
X47400000Y-88304900D01*
G75*
G02*
X47637500Y-88067400I237500J0D01*
G01*
X48212500Y-88067400D01*
G75*
G02*
X48450000Y-88304900I0J-237500D01*
G01*
X48450000Y-88779900D01*
G75*
G02*
X48212500Y-89017400I-237500J0D01*
G01*
X47637500Y-89017400D01*
G75*
G02*
X47400000Y-88779900I0J237500D01*
G01*
G37*
G36*
G01*
X49150000Y-88779900D02*
X49150000Y-88304900D01*
G75*
G02*
X49387500Y-88067400I237500J0D01*
G01*
X49962500Y-88067400D01*
G75*
G02*
X50200000Y-88304900I0J-237500D01*
G01*
X50200000Y-88779900D01*
G75*
G02*
X49962500Y-89017400I-237500J0D01*
G01*
X49387500Y-89017400D01*
G75*
G02*
X49150000Y-88779900I0J237500D01*
G01*
G37*
%TD*%
%TO.C,SW3*%
G36*
G01*
X68150000Y-88779900D02*
X68150000Y-88304900D01*
G75*
G02*
X68387500Y-88067400I237500J0D01*
G01*
X68962500Y-88067400D01*
G75*
G02*
X69200000Y-88304900I0J-237500D01*
G01*
X69200000Y-88779900D01*
G75*
G02*
X68962500Y-89017400I-237500J0D01*
G01*
X68387500Y-89017400D01*
G75*
G02*
X68150000Y-88779900I0J237500D01*
G01*
G37*
G36*
G01*
X66400000Y-88779900D02*
X66400000Y-88304900D01*
G75*
G02*
X66637500Y-88067400I237500J0D01*
G01*
X67212500Y-88067400D01*
G75*
G02*
X67450000Y-88304900I0J-237500D01*
G01*
X67450000Y-88779900D01*
G75*
G02*
X67212500Y-89017400I-237500J0D01*
G01*
X66637500Y-89017400D01*
G75*
G02*
X66400000Y-88779900I0J237500D01*
G01*
G37*
%TD*%
%TO.C,SW4*%
G36*
G01*
X85400000Y-88779900D02*
X85400000Y-88304900D01*
G75*
G02*
X85637500Y-88067400I237500J0D01*
G01*
X86212500Y-88067400D01*
G75*
G02*
X86450000Y-88304900I0J-237500D01*
G01*
X86450000Y-88779900D01*
G75*
G02*
X86212500Y-89017400I-237500J0D01*
G01*
X85637500Y-89017400D01*
G75*
G02*
X85400000Y-88779900I0J237500D01*
G01*
G37*
G36*
G01*
X87150000Y-88779900D02*
X87150000Y-88304900D01*
G75*
G02*
X87387500Y-88067400I237500J0D01*
G01*
X87962500Y-88067400D01*
G75*
G02*
X88200000Y-88304900I0J-237500D01*
G01*
X88200000Y-88779900D01*
G75*
G02*
X87962500Y-89017400I-237500J0D01*
G01*
X87387500Y-89017400D01*
G75*
G02*
X87150000Y-88779900I0J237500D01*
G01*
G37*
%TD*%
%TO.C,SW5*%
G36*
G01*
X106150000Y-88779900D02*
X106150000Y-88304900D01*
G75*
G02*
X106387500Y-88067400I237500J0D01*
G01*
X106962500Y-88067400D01*
G75*
G02*
X107200000Y-88304900I0J-237500D01*
G01*
X107200000Y-88779900D01*
G75*
G02*
X106962500Y-89017400I-237500J0D01*
G01*
X106387500Y-89017400D01*
G75*
G02*
X106150000Y-88779900I0J237500D01*
G01*
G37*
G36*
G01*
X104400000Y-88779900D02*
X104400000Y-88304900D01*
G75*
G02*
X104637500Y-88067400I237500J0D01*
G01*
X105212500Y-88067400D01*
G75*
G02*
X105450000Y-88304900I0J-237500D01*
G01*
X105450000Y-88779900D01*
G75*
G02*
X105212500Y-89017400I-237500J0D01*
G01*
X104637500Y-89017400D01*
G75*
G02*
X104400000Y-88779900I0J237500D01*
G01*
G37*
%TD*%
%TO.C,SW6*%
G36*
G01*
X123400000Y-88779900D02*
X123400000Y-88304900D01*
G75*
G02*
X123637500Y-88067400I237500J0D01*
G01*
X124212500Y-88067400D01*
G75*
G02*
X124450000Y-88304900I0J-237500D01*
G01*
X124450000Y-88779900D01*
G75*
G02*
X124212500Y-89017400I-237500J0D01*
G01*
X123637500Y-89017400D01*
G75*
G02*
X123400000Y-88779900I0J237500D01*
G01*
G37*
G36*
G01*
X125150000Y-88779900D02*
X125150000Y-88304900D01*
G75*
G02*
X125387500Y-88067400I237500J0D01*
G01*
X125962500Y-88067400D01*
G75*
G02*
X126200000Y-88304900I0J-237500D01*
G01*
X126200000Y-88779900D01*
G75*
G02*
X125962500Y-89017400I-237500J0D01*
G01*
X125387500Y-89017400D01*
G75*
G02*
X125150000Y-88779900I0J237500D01*
G01*
G37*
%TD*%
%TO.C,SW7*%
G36*
G01*
X144150000Y-88779900D02*
X144150000Y-88304900D01*
G75*
G02*
X144387500Y-88067400I237500J0D01*
G01*
X144962500Y-88067400D01*
G75*
G02*
X145200000Y-88304900I0J-237500D01*
G01*
X145200000Y-88779900D01*
G75*
G02*
X144962500Y-89017400I-237500J0D01*
G01*
X144387500Y-89017400D01*
G75*
G02*
X144150000Y-88779900I0J237500D01*
G01*
G37*
G36*
G01*
X142400000Y-88779900D02*
X142400000Y-88304900D01*
G75*
G02*
X142637500Y-88067400I237500J0D01*
G01*
X143212500Y-88067400D01*
G75*
G02*
X143450000Y-88304900I0J-237500D01*
G01*
X143450000Y-88779900D01*
G75*
G02*
X143212500Y-89017400I-237500J0D01*
G01*
X142637500Y-89017400D01*
G75*
G02*
X142400000Y-88779900I0J237500D01*
G01*
G37*
%TD*%
%TO.C,SW8*%
G36*
G01*
X161400000Y-88779900D02*
X161400000Y-88304900D01*
G75*
G02*
X161637500Y-88067400I237500J0D01*
G01*
X162212500Y-88067400D01*
G75*
G02*
X162450000Y-88304900I0J-237500D01*
G01*
X162450000Y-88779900D01*
G75*
G02*
X162212500Y-89017400I-237500J0D01*
G01*
X161637500Y-89017400D01*
G75*
G02*
X161400000Y-88779900I0J237500D01*
G01*
G37*
G36*
G01*
X163150000Y-88779900D02*
X163150000Y-88304900D01*
G75*
G02*
X163387500Y-88067400I237500J0D01*
G01*
X163962500Y-88067400D01*
G75*
G02*
X164200000Y-88304900I0J-237500D01*
G01*
X164200000Y-88779900D01*
G75*
G02*
X163962500Y-89017400I-237500J0D01*
G01*
X163387500Y-89017400D01*
G75*
G02*
X163150000Y-88779900I0J237500D01*
G01*
G37*
%TD*%
%TO.C,SW9*%
G36*
G01*
X182150000Y-88779900D02*
X182150000Y-88304900D01*
G75*
G02*
X182387500Y-88067400I237500J0D01*
G01*
X182962500Y-88067400D01*
G75*
G02*
X183200000Y-88304900I0J-237500D01*
G01*
X183200000Y-88779900D01*
G75*
G02*
X182962500Y-89017400I-237500J0D01*
G01*
X182387500Y-89017400D01*
G75*
G02*
X182150000Y-88779900I0J237500D01*
G01*
G37*
G36*
G01*
X180400000Y-88779900D02*
X180400000Y-88304900D01*
G75*
G02*
X180637500Y-88067400I237500J0D01*
G01*
X181212500Y-88067400D01*
G75*
G02*
X181450000Y-88304900I0J-237500D01*
G01*
X181450000Y-88779900D01*
G75*
G02*
X181212500Y-89017400I-237500J0D01*
G01*
X180637500Y-89017400D01*
G75*
G02*
X180400000Y-88779900I0J237500D01*
G01*
G37*
%TD*%
%TO.C,SW10*%
G36*
G01*
X201150000Y-88779900D02*
X201150000Y-88304900D01*
G75*
G02*
X201387500Y-88067400I237500J0D01*
G01*
X201962500Y-88067400D01*
G75*
G02*
X202200000Y-88304900I0J-237500D01*
G01*
X202200000Y-88779900D01*
G75*
G02*
X201962500Y-89017400I-237500J0D01*
G01*
X201387500Y-89017400D01*
G75*
G02*
X201150000Y-88779900I0J237500D01*
G01*
G37*
G36*
G01*
X199400000Y-88779900D02*
X199400000Y-88304900D01*
G75*
G02*
X199637500Y-88067400I237500J0D01*
G01*
X200212500Y-88067400D01*
G75*
G02*
X200450000Y-88304900I0J-237500D01*
G01*
X200450000Y-88779900D01*
G75*
G02*
X200212500Y-89017400I-237500J0D01*
G01*
X199637500Y-89017400D01*
G75*
G02*
X199400000Y-88779900I0J237500D01*
G01*
G37*
%TD*%
%TO.C,SW11*%
G36*
G01*
X220150000Y-88779900D02*
X220150000Y-88304900D01*
G75*
G02*
X220387500Y-88067400I237500J0D01*
G01*
X220962500Y-88067400D01*
G75*
G02*
X221200000Y-88304900I0J-237500D01*
G01*
X221200000Y-88779900D01*
G75*
G02*
X220962500Y-89017400I-237500J0D01*
G01*
X220387500Y-89017400D01*
G75*
G02*
X220150000Y-88779900I0J237500D01*
G01*
G37*
G36*
G01*
X218400000Y-88779900D02*
X218400000Y-88304900D01*
G75*
G02*
X218637500Y-88067400I237500J0D01*
G01*
X219212500Y-88067400D01*
G75*
G02*
X219450000Y-88304900I0J-237500D01*
G01*
X219450000Y-88779900D01*
G75*
G02*
X219212500Y-89017400I-237500J0D01*
G01*
X218637500Y-89017400D01*
G75*
G02*
X218400000Y-88779900I0J237500D01*
G01*
G37*
%TD*%
%TO.C,SW12*%
G36*
G01*
X237400000Y-88779900D02*
X237400000Y-88304900D01*
G75*
G02*
X237637500Y-88067400I237500J0D01*
G01*
X238212500Y-88067400D01*
G75*
G02*
X238450000Y-88304900I0J-237500D01*
G01*
X238450000Y-88779900D01*
G75*
G02*
X238212500Y-89017400I-237500J0D01*
G01*
X237637500Y-89017400D01*
G75*
G02*
X237400000Y-88779900I0J237500D01*
G01*
G37*
G36*
G01*
X239150000Y-88779900D02*
X239150000Y-88304900D01*
G75*
G02*
X239387500Y-88067400I237500J0D01*
G01*
X239962500Y-88067400D01*
G75*
G02*
X240200000Y-88304900I0J-237500D01*
G01*
X240200000Y-88779900D01*
G75*
G02*
X239962500Y-89017400I-237500J0D01*
G01*
X239387500Y-89017400D01*
G75*
G02*
X239150000Y-88779900I0J237500D01*
G01*
G37*
%TD*%
%TO.C,SW13*%
G36*
G01*
X30150000Y-107779900D02*
X30150000Y-107304900D01*
G75*
G02*
X30387500Y-107067400I237500J0D01*
G01*
X30962500Y-107067400D01*
G75*
G02*
X31200000Y-107304900I0J-237500D01*
G01*
X31200000Y-107779900D01*
G75*
G02*
X30962500Y-108017400I-237500J0D01*
G01*
X30387500Y-108017400D01*
G75*
G02*
X30150000Y-107779900I0J237500D01*
G01*
G37*
G36*
G01*
X28400000Y-107779900D02*
X28400000Y-107304900D01*
G75*
G02*
X28637500Y-107067400I237500J0D01*
G01*
X29212500Y-107067400D01*
G75*
G02*
X29450000Y-107304900I0J-237500D01*
G01*
X29450000Y-107779900D01*
G75*
G02*
X29212500Y-108017400I-237500J0D01*
G01*
X28637500Y-108017400D01*
G75*
G02*
X28400000Y-107779900I0J237500D01*
G01*
G37*
%TD*%
%TO.C,SW14*%
G36*
G01*
X47400000Y-107779900D02*
X47400000Y-107304900D01*
G75*
G02*
X47637500Y-107067400I237500J0D01*
G01*
X48212500Y-107067400D01*
G75*
G02*
X48450000Y-107304900I0J-237500D01*
G01*
X48450000Y-107779900D01*
G75*
G02*
X48212500Y-108017400I-237500J0D01*
G01*
X47637500Y-108017400D01*
G75*
G02*
X47400000Y-107779900I0J237500D01*
G01*
G37*
G36*
G01*
X49150000Y-107779900D02*
X49150000Y-107304900D01*
G75*
G02*
X49387500Y-107067400I237500J0D01*
G01*
X49962500Y-107067400D01*
G75*
G02*
X50200000Y-107304900I0J-237500D01*
G01*
X50200000Y-107779900D01*
G75*
G02*
X49962500Y-108017400I-237500J0D01*
G01*
X49387500Y-108017400D01*
G75*
G02*
X49150000Y-107779900I0J237500D01*
G01*
G37*
%TD*%
%TO.C,SW15*%
G36*
G01*
X68150000Y-107779900D02*
X68150000Y-107304900D01*
G75*
G02*
X68387500Y-107067400I237500J0D01*
G01*
X68962500Y-107067400D01*
G75*
G02*
X69200000Y-107304900I0J-237500D01*
G01*
X69200000Y-107779900D01*
G75*
G02*
X68962500Y-108017400I-237500J0D01*
G01*
X68387500Y-108017400D01*
G75*
G02*
X68150000Y-107779900I0J237500D01*
G01*
G37*
G36*
G01*
X66400000Y-107779900D02*
X66400000Y-107304900D01*
G75*
G02*
X66637500Y-107067400I237500J0D01*
G01*
X67212500Y-107067400D01*
G75*
G02*
X67450000Y-107304900I0J-237500D01*
G01*
X67450000Y-107779900D01*
G75*
G02*
X67212500Y-108017400I-237500J0D01*
G01*
X66637500Y-108017400D01*
G75*
G02*
X66400000Y-107779900I0J237500D01*
G01*
G37*
%TD*%
%TO.C,SW16*%
G36*
G01*
X85400000Y-107779900D02*
X85400000Y-107304900D01*
G75*
G02*
X85637500Y-107067400I237500J0D01*
G01*
X86212500Y-107067400D01*
G75*
G02*
X86450000Y-107304900I0J-237500D01*
G01*
X86450000Y-107779900D01*
G75*
G02*
X86212500Y-108017400I-237500J0D01*
G01*
X85637500Y-108017400D01*
G75*
G02*
X85400000Y-107779900I0J237500D01*
G01*
G37*
G36*
G01*
X87150000Y-107779900D02*
X87150000Y-107304900D01*
G75*
G02*
X87387500Y-107067400I237500J0D01*
G01*
X87962500Y-107067400D01*
G75*
G02*
X88200000Y-107304900I0J-237500D01*
G01*
X88200000Y-107779900D01*
G75*
G02*
X87962500Y-108017400I-237500J0D01*
G01*
X87387500Y-108017400D01*
G75*
G02*
X87150000Y-107779900I0J237500D01*
G01*
G37*
%TD*%
%TO.C,SW17*%
G36*
G01*
X106150000Y-107779900D02*
X106150000Y-107304900D01*
G75*
G02*
X106387500Y-107067400I237500J0D01*
G01*
X106962500Y-107067400D01*
G75*
G02*
X107200000Y-107304900I0J-237500D01*
G01*
X107200000Y-107779900D01*
G75*
G02*
X106962500Y-108017400I-237500J0D01*
G01*
X106387500Y-108017400D01*
G75*
G02*
X106150000Y-107779900I0J237500D01*
G01*
G37*
G36*
G01*
X104400000Y-107779900D02*
X104400000Y-107304900D01*
G75*
G02*
X104637500Y-107067400I237500J0D01*
G01*
X105212500Y-107067400D01*
G75*
G02*
X105450000Y-107304900I0J-237500D01*
G01*
X105450000Y-107779900D01*
G75*
G02*
X105212500Y-108017400I-237500J0D01*
G01*
X104637500Y-108017400D01*
G75*
G02*
X104400000Y-107779900I0J237500D01*
G01*
G37*
%TD*%
%TO.C,SW18*%
G36*
G01*
X125150000Y-107779900D02*
X125150000Y-107304900D01*
G75*
G02*
X125387500Y-107067400I237500J0D01*
G01*
X125962500Y-107067400D01*
G75*
G02*
X126200000Y-107304900I0J-237500D01*
G01*
X126200000Y-107779900D01*
G75*
G02*
X125962500Y-108017400I-237500J0D01*
G01*
X125387500Y-108017400D01*
G75*
G02*
X125150000Y-107779900I0J237500D01*
G01*
G37*
G36*
G01*
X123400000Y-107779900D02*
X123400000Y-107304900D01*
G75*
G02*
X123637500Y-107067400I237500J0D01*
G01*
X124212500Y-107067400D01*
G75*
G02*
X124450000Y-107304900I0J-237500D01*
G01*
X124450000Y-107779900D01*
G75*
G02*
X124212500Y-108017400I-237500J0D01*
G01*
X123637500Y-108017400D01*
G75*
G02*
X123400000Y-107779900I0J237500D01*
G01*
G37*
%TD*%
%TO.C,SW19*%
G36*
G01*
X144150000Y-107779900D02*
X144150000Y-107304900D01*
G75*
G02*
X144387500Y-107067400I237500J0D01*
G01*
X144962500Y-107067400D01*
G75*
G02*
X145200000Y-107304900I0J-237500D01*
G01*
X145200000Y-107779900D01*
G75*
G02*
X144962500Y-108017400I-237500J0D01*
G01*
X144387500Y-108017400D01*
G75*
G02*
X144150000Y-107779900I0J237500D01*
G01*
G37*
G36*
G01*
X142400000Y-107779900D02*
X142400000Y-107304900D01*
G75*
G02*
X142637500Y-107067400I237500J0D01*
G01*
X143212500Y-107067400D01*
G75*
G02*
X143450000Y-107304900I0J-237500D01*
G01*
X143450000Y-107779900D01*
G75*
G02*
X143212500Y-108017400I-237500J0D01*
G01*
X142637500Y-108017400D01*
G75*
G02*
X142400000Y-107779900I0J237500D01*
G01*
G37*
%TD*%
%TO.C,SW20*%
G36*
G01*
X161400000Y-107779900D02*
X161400000Y-107304900D01*
G75*
G02*
X161637500Y-107067400I237500J0D01*
G01*
X162212500Y-107067400D01*
G75*
G02*
X162450000Y-107304900I0J-237500D01*
G01*
X162450000Y-107779900D01*
G75*
G02*
X162212500Y-108017400I-237500J0D01*
G01*
X161637500Y-108017400D01*
G75*
G02*
X161400000Y-107779900I0J237500D01*
G01*
G37*
G36*
G01*
X163150000Y-107779900D02*
X163150000Y-107304900D01*
G75*
G02*
X163387500Y-107067400I237500J0D01*
G01*
X163962500Y-107067400D01*
G75*
G02*
X164200000Y-107304900I0J-237500D01*
G01*
X164200000Y-107779900D01*
G75*
G02*
X163962500Y-108017400I-237500J0D01*
G01*
X163387500Y-108017400D01*
G75*
G02*
X163150000Y-107779900I0J237500D01*
G01*
G37*
%TD*%
%TO.C,SW21*%
G36*
G01*
X182150000Y-107779900D02*
X182150000Y-107304900D01*
G75*
G02*
X182387500Y-107067400I237500J0D01*
G01*
X182962500Y-107067400D01*
G75*
G02*
X183200000Y-107304900I0J-237500D01*
G01*
X183200000Y-107779900D01*
G75*
G02*
X182962500Y-108017400I-237500J0D01*
G01*
X182387500Y-108017400D01*
G75*
G02*
X182150000Y-107779900I0J237500D01*
G01*
G37*
G36*
G01*
X180400000Y-107779900D02*
X180400000Y-107304900D01*
G75*
G02*
X180637500Y-107067400I237500J0D01*
G01*
X181212500Y-107067400D01*
G75*
G02*
X181450000Y-107304900I0J-237500D01*
G01*
X181450000Y-107779900D01*
G75*
G02*
X181212500Y-108017400I-237500J0D01*
G01*
X180637500Y-108017400D01*
G75*
G02*
X180400000Y-107779900I0J237500D01*
G01*
G37*
%TD*%
%TO.C,SW22*%
G36*
G01*
X199300000Y-107779900D02*
X199300000Y-107304900D01*
G75*
G02*
X199537500Y-107067400I237500J0D01*
G01*
X200112500Y-107067400D01*
G75*
G02*
X200350000Y-107304900I0J-237500D01*
G01*
X200350000Y-107779900D01*
G75*
G02*
X200112500Y-108017400I-237500J0D01*
G01*
X199537500Y-108017400D01*
G75*
G02*
X199300000Y-107779900I0J237500D01*
G01*
G37*
G36*
G01*
X201050000Y-107779900D02*
X201050000Y-107304900D01*
G75*
G02*
X201287500Y-107067400I237500J0D01*
G01*
X201862500Y-107067400D01*
G75*
G02*
X202100000Y-107304900I0J-237500D01*
G01*
X202100000Y-107779900D01*
G75*
G02*
X201862500Y-108017400I-237500J0D01*
G01*
X201287500Y-108017400D01*
G75*
G02*
X201050000Y-107779900I0J237500D01*
G01*
G37*
%TD*%
%TO.C,SW23*%
G36*
G01*
X220150000Y-107779900D02*
X220150000Y-107304900D01*
G75*
G02*
X220387500Y-107067400I237500J0D01*
G01*
X220962500Y-107067400D01*
G75*
G02*
X221200000Y-107304900I0J-237500D01*
G01*
X221200000Y-107779900D01*
G75*
G02*
X220962500Y-108017400I-237500J0D01*
G01*
X220387500Y-108017400D01*
G75*
G02*
X220150000Y-107779900I0J237500D01*
G01*
G37*
G36*
G01*
X218400000Y-107779900D02*
X218400000Y-107304900D01*
G75*
G02*
X218637500Y-107067400I237500J0D01*
G01*
X219212500Y-107067400D01*
G75*
G02*
X219450000Y-107304900I0J-237500D01*
G01*
X219450000Y-107779900D01*
G75*
G02*
X219212500Y-108017400I-237500J0D01*
G01*
X218637500Y-108017400D01*
G75*
G02*
X218400000Y-107779900I0J237500D01*
G01*
G37*
%TD*%
%TO.C,SW24*%
G36*
G01*
X237400000Y-107779900D02*
X237400000Y-107304900D01*
G75*
G02*
X237637500Y-107067400I237500J0D01*
G01*
X238212500Y-107067400D01*
G75*
G02*
X238450000Y-107304900I0J-237500D01*
G01*
X238450000Y-107779900D01*
G75*
G02*
X238212500Y-108017400I-237500J0D01*
G01*
X237637500Y-108017400D01*
G75*
G02*
X237400000Y-107779900I0J237500D01*
G01*
G37*
G36*
G01*
X239150000Y-107779900D02*
X239150000Y-107304900D01*
G75*
G02*
X239387500Y-107067400I237500J0D01*
G01*
X239962500Y-107067400D01*
G75*
G02*
X240200000Y-107304900I0J-237500D01*
G01*
X240200000Y-107779900D01*
G75*
G02*
X239962500Y-108017400I-237500J0D01*
G01*
X239387500Y-108017400D01*
G75*
G02*
X239150000Y-107779900I0J237500D01*
G01*
G37*
%TD*%
%TO.C,SW25*%
G36*
G01*
X30150000Y-126779900D02*
X30150000Y-126304900D01*
G75*
G02*
X30387500Y-126067400I237500J0D01*
G01*
X30962500Y-126067400D01*
G75*
G02*
X31200000Y-126304900I0J-237500D01*
G01*
X31200000Y-126779900D01*
G75*
G02*
X30962500Y-127017400I-237500J0D01*
G01*
X30387500Y-127017400D01*
G75*
G02*
X30150000Y-126779900I0J237500D01*
G01*
G37*
G36*
G01*
X28400000Y-126779900D02*
X28400000Y-126304900D01*
G75*
G02*
X28637500Y-126067400I237500J0D01*
G01*
X29212500Y-126067400D01*
G75*
G02*
X29450000Y-126304900I0J-237500D01*
G01*
X29450000Y-126779900D01*
G75*
G02*
X29212500Y-127017400I-237500J0D01*
G01*
X28637500Y-127017400D01*
G75*
G02*
X28400000Y-126779900I0J237500D01*
G01*
G37*
%TD*%
%TO.C,SW26*%
G36*
G01*
X47400000Y-126779900D02*
X47400000Y-126304900D01*
G75*
G02*
X47637500Y-126067400I237500J0D01*
G01*
X48212500Y-126067400D01*
G75*
G02*
X48450000Y-126304900I0J-237500D01*
G01*
X48450000Y-126779900D01*
G75*
G02*
X48212500Y-127017400I-237500J0D01*
G01*
X47637500Y-127017400D01*
G75*
G02*
X47400000Y-126779900I0J237500D01*
G01*
G37*
G36*
G01*
X49150000Y-126779900D02*
X49150000Y-126304900D01*
G75*
G02*
X49387500Y-126067400I237500J0D01*
G01*
X49962500Y-126067400D01*
G75*
G02*
X50200000Y-126304900I0J-237500D01*
G01*
X50200000Y-126779900D01*
G75*
G02*
X49962500Y-127017400I-237500J0D01*
G01*
X49387500Y-127017400D01*
G75*
G02*
X49150000Y-126779900I0J237500D01*
G01*
G37*
%TD*%
%TO.C,SW27*%
G36*
G01*
X66400000Y-126779900D02*
X66400000Y-126304900D01*
G75*
G02*
X66637500Y-126067400I237500J0D01*
G01*
X67212500Y-126067400D01*
G75*
G02*
X67450000Y-126304900I0J-237500D01*
G01*
X67450000Y-126779900D01*
G75*
G02*
X67212500Y-127017400I-237500J0D01*
G01*
X66637500Y-127017400D01*
G75*
G02*
X66400000Y-126779900I0J237500D01*
G01*
G37*
G36*
G01*
X68150000Y-126779900D02*
X68150000Y-126304900D01*
G75*
G02*
X68387500Y-126067400I237500J0D01*
G01*
X68962500Y-126067400D01*
G75*
G02*
X69200000Y-126304900I0J-237500D01*
G01*
X69200000Y-126779900D01*
G75*
G02*
X68962500Y-127017400I-237500J0D01*
G01*
X68387500Y-127017400D01*
G75*
G02*
X68150000Y-126779900I0J237500D01*
G01*
G37*
%TD*%
%TO.C,SW28*%
G36*
G01*
X85400000Y-126779900D02*
X85400000Y-126304900D01*
G75*
G02*
X85637500Y-126067400I237500J0D01*
G01*
X86212500Y-126067400D01*
G75*
G02*
X86450000Y-126304900I0J-237500D01*
G01*
X86450000Y-126779900D01*
G75*
G02*
X86212500Y-127017400I-237500J0D01*
G01*
X85637500Y-127017400D01*
G75*
G02*
X85400000Y-126779900I0J237500D01*
G01*
G37*
G36*
G01*
X87150000Y-126779900D02*
X87150000Y-126304900D01*
G75*
G02*
X87387500Y-126067400I237500J0D01*
G01*
X87962500Y-126067400D01*
G75*
G02*
X88200000Y-126304900I0J-237500D01*
G01*
X88200000Y-126779900D01*
G75*
G02*
X87962500Y-127017400I-237500J0D01*
G01*
X87387500Y-127017400D01*
G75*
G02*
X87150000Y-126779900I0J237500D01*
G01*
G37*
%TD*%
%TO.C,SW29*%
G36*
G01*
X106150000Y-126779900D02*
X106150000Y-126304900D01*
G75*
G02*
X106387500Y-126067400I237500J0D01*
G01*
X106962500Y-126067400D01*
G75*
G02*
X107200000Y-126304900I0J-237500D01*
G01*
X107200000Y-126779900D01*
G75*
G02*
X106962500Y-127017400I-237500J0D01*
G01*
X106387500Y-127017400D01*
G75*
G02*
X106150000Y-126779900I0J237500D01*
G01*
G37*
G36*
G01*
X104400000Y-126779900D02*
X104400000Y-126304900D01*
G75*
G02*
X104637500Y-126067400I237500J0D01*
G01*
X105212500Y-126067400D01*
G75*
G02*
X105450000Y-126304900I0J-237500D01*
G01*
X105450000Y-126779900D01*
G75*
G02*
X105212500Y-127017400I-237500J0D01*
G01*
X104637500Y-127017400D01*
G75*
G02*
X104400000Y-126779900I0J237500D01*
G01*
G37*
%TD*%
%TO.C,SW30*%
G36*
G01*
X123400000Y-126779900D02*
X123400000Y-126304900D01*
G75*
G02*
X123637500Y-126067400I237500J0D01*
G01*
X124212500Y-126067400D01*
G75*
G02*
X124450000Y-126304900I0J-237500D01*
G01*
X124450000Y-126779900D01*
G75*
G02*
X124212500Y-127017400I-237500J0D01*
G01*
X123637500Y-127017400D01*
G75*
G02*
X123400000Y-126779900I0J237500D01*
G01*
G37*
G36*
G01*
X125150000Y-126779900D02*
X125150000Y-126304900D01*
G75*
G02*
X125387500Y-126067400I237500J0D01*
G01*
X125962500Y-126067400D01*
G75*
G02*
X126200000Y-126304900I0J-237500D01*
G01*
X126200000Y-126779900D01*
G75*
G02*
X125962500Y-127017400I-237500J0D01*
G01*
X125387500Y-127017400D01*
G75*
G02*
X125150000Y-126779900I0J237500D01*
G01*
G37*
%TD*%
%TO.C,SW31*%
G36*
G01*
X144150000Y-126779900D02*
X144150000Y-126304900D01*
G75*
G02*
X144387500Y-126067400I237500J0D01*
G01*
X144962500Y-126067400D01*
G75*
G02*
X145200000Y-126304900I0J-237500D01*
G01*
X145200000Y-126779900D01*
G75*
G02*
X144962500Y-127017400I-237500J0D01*
G01*
X144387500Y-127017400D01*
G75*
G02*
X144150000Y-126779900I0J237500D01*
G01*
G37*
G36*
G01*
X142400000Y-126779900D02*
X142400000Y-126304900D01*
G75*
G02*
X142637500Y-126067400I237500J0D01*
G01*
X143212500Y-126067400D01*
G75*
G02*
X143450000Y-126304900I0J-237500D01*
G01*
X143450000Y-126779900D01*
G75*
G02*
X143212500Y-127017400I-237500J0D01*
G01*
X142637500Y-127017400D01*
G75*
G02*
X142400000Y-126779900I0J237500D01*
G01*
G37*
%TD*%
%TO.C,SW32*%
G36*
G01*
X161400000Y-126779900D02*
X161400000Y-126304900D01*
G75*
G02*
X161637500Y-126067400I237500J0D01*
G01*
X162212500Y-126067400D01*
G75*
G02*
X162450000Y-126304900I0J-237500D01*
G01*
X162450000Y-126779900D01*
G75*
G02*
X162212500Y-127017400I-237500J0D01*
G01*
X161637500Y-127017400D01*
G75*
G02*
X161400000Y-126779900I0J237500D01*
G01*
G37*
G36*
G01*
X163150000Y-126779900D02*
X163150000Y-126304900D01*
G75*
G02*
X163387500Y-126067400I237500J0D01*
G01*
X163962500Y-126067400D01*
G75*
G02*
X164200000Y-126304900I0J-237500D01*
G01*
X164200000Y-126779900D01*
G75*
G02*
X163962500Y-127017400I-237500J0D01*
G01*
X163387500Y-127017400D01*
G75*
G02*
X163150000Y-126779900I0J237500D01*
G01*
G37*
%TD*%
%TO.C,SW33*%
G36*
G01*
X182150000Y-126779900D02*
X182150000Y-126304900D01*
G75*
G02*
X182387500Y-126067400I237500J0D01*
G01*
X182962500Y-126067400D01*
G75*
G02*
X183200000Y-126304900I0J-237500D01*
G01*
X183200000Y-126779900D01*
G75*
G02*
X182962500Y-127017400I-237500J0D01*
G01*
X182387500Y-127017400D01*
G75*
G02*
X182150000Y-126779900I0J237500D01*
G01*
G37*
G36*
G01*
X180400000Y-126779900D02*
X180400000Y-126304900D01*
G75*
G02*
X180637500Y-126067400I237500J0D01*
G01*
X181212500Y-126067400D01*
G75*
G02*
X181450000Y-126304900I0J-237500D01*
G01*
X181450000Y-126779900D01*
G75*
G02*
X181212500Y-127017400I-237500J0D01*
G01*
X180637500Y-127017400D01*
G75*
G02*
X180400000Y-126779900I0J237500D01*
G01*
G37*
%TD*%
%TO.C,SW34*%
G36*
G01*
X199400000Y-126779900D02*
X199400000Y-126304900D01*
G75*
G02*
X199637500Y-126067400I237500J0D01*
G01*
X200212500Y-126067400D01*
G75*
G02*
X200450000Y-126304900I0J-237500D01*
G01*
X200450000Y-126779900D01*
G75*
G02*
X200212500Y-127017400I-237500J0D01*
G01*
X199637500Y-127017400D01*
G75*
G02*
X199400000Y-126779900I0J237500D01*
G01*
G37*
G36*
G01*
X201150000Y-126779900D02*
X201150000Y-126304900D01*
G75*
G02*
X201387500Y-126067400I237500J0D01*
G01*
X201962500Y-126067400D01*
G75*
G02*
X202200000Y-126304900I0J-237500D01*
G01*
X202200000Y-126779900D01*
G75*
G02*
X201962500Y-127017400I-237500J0D01*
G01*
X201387500Y-127017400D01*
G75*
G02*
X201150000Y-126779900I0J237500D01*
G01*
G37*
%TD*%
%TO.C,SW35*%
G36*
G01*
X218400000Y-126779900D02*
X218400000Y-126304900D01*
G75*
G02*
X218637500Y-126067400I237500J0D01*
G01*
X219212500Y-126067400D01*
G75*
G02*
X219450000Y-126304900I0J-237500D01*
G01*
X219450000Y-126779900D01*
G75*
G02*
X219212500Y-127017400I-237500J0D01*
G01*
X218637500Y-127017400D01*
G75*
G02*
X218400000Y-126779900I0J237500D01*
G01*
G37*
G36*
G01*
X220150000Y-126779900D02*
X220150000Y-126304900D01*
G75*
G02*
X220387500Y-126067400I237500J0D01*
G01*
X220962500Y-126067400D01*
G75*
G02*
X221200000Y-126304900I0J-237500D01*
G01*
X221200000Y-126779900D01*
G75*
G02*
X220962500Y-127017400I-237500J0D01*
G01*
X220387500Y-127017400D01*
G75*
G02*
X220150000Y-126779900I0J237500D01*
G01*
G37*
%TD*%
%TO.C,SW36*%
G36*
G01*
X237400000Y-126779900D02*
X237400000Y-126304900D01*
G75*
G02*
X237637500Y-126067400I237500J0D01*
G01*
X238212500Y-126067400D01*
G75*
G02*
X238450000Y-126304900I0J-237500D01*
G01*
X238450000Y-126779900D01*
G75*
G02*
X238212500Y-127017400I-237500J0D01*
G01*
X237637500Y-127017400D01*
G75*
G02*
X237400000Y-126779900I0J237500D01*
G01*
G37*
G36*
G01*
X239150000Y-126779900D02*
X239150000Y-126304900D01*
G75*
G02*
X239387500Y-126067400I237500J0D01*
G01*
X239962500Y-126067400D01*
G75*
G02*
X240200000Y-126304900I0J-237500D01*
G01*
X240200000Y-126779900D01*
G75*
G02*
X239962500Y-127017400I-237500J0D01*
G01*
X239387500Y-127017400D01*
G75*
G02*
X239150000Y-126779900I0J237500D01*
G01*
G37*
%TD*%
%TO.C,SW37*%
G36*
G01*
X30150000Y-145779900D02*
X30150000Y-145304900D01*
G75*
G02*
X30387500Y-145067400I237500J0D01*
G01*
X30962500Y-145067400D01*
G75*
G02*
X31200000Y-145304900I0J-237500D01*
G01*
X31200000Y-145779900D01*
G75*
G02*
X30962500Y-146017400I-237500J0D01*
G01*
X30387500Y-146017400D01*
G75*
G02*
X30150000Y-145779900I0J237500D01*
G01*
G37*
G36*
G01*
X28400000Y-145779900D02*
X28400000Y-145304900D01*
G75*
G02*
X28637500Y-145067400I237500J0D01*
G01*
X29212500Y-145067400D01*
G75*
G02*
X29450000Y-145304900I0J-237500D01*
G01*
X29450000Y-145779900D01*
G75*
G02*
X29212500Y-146017400I-237500J0D01*
G01*
X28637500Y-146017400D01*
G75*
G02*
X28400000Y-145779900I0J237500D01*
G01*
G37*
%TD*%
%TO.C,SW38*%
G36*
G01*
X47400000Y-145779900D02*
X47400000Y-145304900D01*
G75*
G02*
X47637500Y-145067400I237500J0D01*
G01*
X48212500Y-145067400D01*
G75*
G02*
X48450000Y-145304900I0J-237500D01*
G01*
X48450000Y-145779900D01*
G75*
G02*
X48212500Y-146017400I-237500J0D01*
G01*
X47637500Y-146017400D01*
G75*
G02*
X47400000Y-145779900I0J237500D01*
G01*
G37*
G36*
G01*
X49150000Y-145779900D02*
X49150000Y-145304900D01*
G75*
G02*
X49387500Y-145067400I237500J0D01*
G01*
X49962500Y-145067400D01*
G75*
G02*
X50200000Y-145304900I0J-237500D01*
G01*
X50200000Y-145779900D01*
G75*
G02*
X49962500Y-146017400I-237500J0D01*
G01*
X49387500Y-146017400D01*
G75*
G02*
X49150000Y-145779900I0J237500D01*
G01*
G37*
%TD*%
%TO.C,SW39*%
G36*
G01*
X68150000Y-145779900D02*
X68150000Y-145304900D01*
G75*
G02*
X68387500Y-145067400I237500J0D01*
G01*
X68962500Y-145067400D01*
G75*
G02*
X69200000Y-145304900I0J-237500D01*
G01*
X69200000Y-145779900D01*
G75*
G02*
X68962500Y-146017400I-237500J0D01*
G01*
X68387500Y-146017400D01*
G75*
G02*
X68150000Y-145779900I0J237500D01*
G01*
G37*
G36*
G01*
X66400000Y-145779900D02*
X66400000Y-145304900D01*
G75*
G02*
X66637500Y-145067400I237500J0D01*
G01*
X67212500Y-145067400D01*
G75*
G02*
X67450000Y-145304900I0J-237500D01*
G01*
X67450000Y-145779900D01*
G75*
G02*
X67212500Y-146017400I-237500J0D01*
G01*
X66637500Y-146017400D01*
G75*
G02*
X66400000Y-145779900I0J237500D01*
G01*
G37*
%TD*%
%TO.C,SW40*%
G36*
G01*
X85400000Y-145779900D02*
X85400000Y-145304900D01*
G75*
G02*
X85637500Y-145067400I237500J0D01*
G01*
X86212500Y-145067400D01*
G75*
G02*
X86450000Y-145304900I0J-237500D01*
G01*
X86450000Y-145779900D01*
G75*
G02*
X86212500Y-146017400I-237500J0D01*
G01*
X85637500Y-146017400D01*
G75*
G02*
X85400000Y-145779900I0J237500D01*
G01*
G37*
G36*
G01*
X87150000Y-145779900D02*
X87150000Y-145304900D01*
G75*
G02*
X87387500Y-145067400I237500J0D01*
G01*
X87962500Y-145067400D01*
G75*
G02*
X88200000Y-145304900I0J-237500D01*
G01*
X88200000Y-145779900D01*
G75*
G02*
X87962500Y-146017400I-237500J0D01*
G01*
X87387500Y-146017400D01*
G75*
G02*
X87150000Y-145779900I0J237500D01*
G01*
G37*
%TD*%
%TO.C,SW41*%
G36*
G01*
X106150000Y-145779900D02*
X106150000Y-145304900D01*
G75*
G02*
X106387500Y-145067400I237500J0D01*
G01*
X106962500Y-145067400D01*
G75*
G02*
X107200000Y-145304900I0J-237500D01*
G01*
X107200000Y-145779900D01*
G75*
G02*
X106962500Y-146017400I-237500J0D01*
G01*
X106387500Y-146017400D01*
G75*
G02*
X106150000Y-145779900I0J237500D01*
G01*
G37*
G36*
G01*
X104400000Y-145779900D02*
X104400000Y-145304900D01*
G75*
G02*
X104637500Y-145067400I237500J0D01*
G01*
X105212500Y-145067400D01*
G75*
G02*
X105450000Y-145304900I0J-237500D01*
G01*
X105450000Y-145779900D01*
G75*
G02*
X105212500Y-146017400I-237500J0D01*
G01*
X104637500Y-146017400D01*
G75*
G02*
X104400000Y-145779900I0J237500D01*
G01*
G37*
%TD*%
%TO.C,SW42*%
G36*
G01*
X123400000Y-145779900D02*
X123400000Y-145304900D01*
G75*
G02*
X123637500Y-145067400I237500J0D01*
G01*
X124212500Y-145067400D01*
G75*
G02*
X124450000Y-145304900I0J-237500D01*
G01*
X124450000Y-145779900D01*
G75*
G02*
X124212500Y-146017400I-237500J0D01*
G01*
X123637500Y-146017400D01*
G75*
G02*
X123400000Y-145779900I0J237500D01*
G01*
G37*
G36*
G01*
X125150000Y-145779900D02*
X125150000Y-145304900D01*
G75*
G02*
X125387500Y-145067400I237500J0D01*
G01*
X125962500Y-145067400D01*
G75*
G02*
X126200000Y-145304900I0J-237500D01*
G01*
X126200000Y-145779900D01*
G75*
G02*
X125962500Y-146017400I-237500J0D01*
G01*
X125387500Y-146017400D01*
G75*
G02*
X125150000Y-145779900I0J237500D01*
G01*
G37*
%TD*%
%TO.C,SW43*%
G36*
G01*
X144150000Y-145779900D02*
X144150000Y-145304900D01*
G75*
G02*
X144387500Y-145067400I237500J0D01*
G01*
X144962500Y-145067400D01*
G75*
G02*
X145200000Y-145304900I0J-237500D01*
G01*
X145200000Y-145779900D01*
G75*
G02*
X144962500Y-146017400I-237500J0D01*
G01*
X144387500Y-146017400D01*
G75*
G02*
X144150000Y-145779900I0J237500D01*
G01*
G37*
G36*
G01*
X142400000Y-145779900D02*
X142400000Y-145304900D01*
G75*
G02*
X142637500Y-145067400I237500J0D01*
G01*
X143212500Y-145067400D01*
G75*
G02*
X143450000Y-145304900I0J-237500D01*
G01*
X143450000Y-145779900D01*
G75*
G02*
X143212500Y-146017400I-237500J0D01*
G01*
X142637500Y-146017400D01*
G75*
G02*
X142400000Y-145779900I0J237500D01*
G01*
G37*
%TD*%
%TO.C,SW44*%
G36*
G01*
X161400000Y-145779900D02*
X161400000Y-145304900D01*
G75*
G02*
X161637500Y-145067400I237500J0D01*
G01*
X162212500Y-145067400D01*
G75*
G02*
X162450000Y-145304900I0J-237500D01*
G01*
X162450000Y-145779900D01*
G75*
G02*
X162212500Y-146017400I-237500J0D01*
G01*
X161637500Y-146017400D01*
G75*
G02*
X161400000Y-145779900I0J237500D01*
G01*
G37*
G36*
G01*
X163150000Y-145779900D02*
X163150000Y-145304900D01*
G75*
G02*
X163387500Y-145067400I237500J0D01*
G01*
X163962500Y-145067400D01*
G75*
G02*
X164200000Y-145304900I0J-237500D01*
G01*
X164200000Y-145779900D01*
G75*
G02*
X163962500Y-146017400I-237500J0D01*
G01*
X163387500Y-146017400D01*
G75*
G02*
X163150000Y-145779900I0J237500D01*
G01*
G37*
%TD*%
%TO.C,SW45*%
G36*
G01*
X182150000Y-145779900D02*
X182150000Y-145304900D01*
G75*
G02*
X182387500Y-145067400I237500J0D01*
G01*
X182962500Y-145067400D01*
G75*
G02*
X183200000Y-145304900I0J-237500D01*
G01*
X183200000Y-145779900D01*
G75*
G02*
X182962500Y-146017400I-237500J0D01*
G01*
X182387500Y-146017400D01*
G75*
G02*
X182150000Y-145779900I0J237500D01*
G01*
G37*
G36*
G01*
X180400000Y-145779900D02*
X180400000Y-145304900D01*
G75*
G02*
X180637500Y-145067400I237500J0D01*
G01*
X181212500Y-145067400D01*
G75*
G02*
X181450000Y-145304900I0J-237500D01*
G01*
X181450000Y-145779900D01*
G75*
G02*
X181212500Y-146017400I-237500J0D01*
G01*
X180637500Y-146017400D01*
G75*
G02*
X180400000Y-145779900I0J237500D01*
G01*
G37*
%TD*%
%TO.C,SW46*%
G36*
G01*
X199400000Y-145779900D02*
X199400000Y-145304900D01*
G75*
G02*
X199637500Y-145067400I237500J0D01*
G01*
X200212500Y-145067400D01*
G75*
G02*
X200450000Y-145304900I0J-237500D01*
G01*
X200450000Y-145779900D01*
G75*
G02*
X200212500Y-146017400I-237500J0D01*
G01*
X199637500Y-146017400D01*
G75*
G02*
X199400000Y-145779900I0J237500D01*
G01*
G37*
G36*
G01*
X201150000Y-145779900D02*
X201150000Y-145304900D01*
G75*
G02*
X201387500Y-145067400I237500J0D01*
G01*
X201962500Y-145067400D01*
G75*
G02*
X202200000Y-145304900I0J-237500D01*
G01*
X202200000Y-145779900D01*
G75*
G02*
X201962500Y-146017400I-237500J0D01*
G01*
X201387500Y-146017400D01*
G75*
G02*
X201150000Y-145779900I0J237500D01*
G01*
G37*
%TD*%
%TO.C,SW47*%
G36*
G01*
X218400000Y-145779900D02*
X218400000Y-145304900D01*
G75*
G02*
X218637500Y-145067400I237500J0D01*
G01*
X219212500Y-145067400D01*
G75*
G02*
X219450000Y-145304900I0J-237500D01*
G01*
X219450000Y-145779900D01*
G75*
G02*
X219212500Y-146017400I-237500J0D01*
G01*
X218637500Y-146017400D01*
G75*
G02*
X218400000Y-145779900I0J237500D01*
G01*
G37*
G36*
G01*
X220150000Y-145779900D02*
X220150000Y-145304900D01*
G75*
G02*
X220387500Y-145067400I237500J0D01*
G01*
X220962500Y-145067400D01*
G75*
G02*
X221200000Y-145304900I0J-237500D01*
G01*
X221200000Y-145779900D01*
G75*
G02*
X220962500Y-146017400I-237500J0D01*
G01*
X220387500Y-146017400D01*
G75*
G02*
X220150000Y-145779900I0J237500D01*
G01*
G37*
%TD*%
%TO.C,SW48*%
G36*
G01*
X239150000Y-145779900D02*
X239150000Y-145304900D01*
G75*
G02*
X239387500Y-145067400I237500J0D01*
G01*
X239962500Y-145067400D01*
G75*
G02*
X240200000Y-145304900I0J-237500D01*
G01*
X240200000Y-145779900D01*
G75*
G02*
X239962500Y-146017400I-237500J0D01*
G01*
X239387500Y-146017400D01*
G75*
G02*
X239150000Y-145779900I0J237500D01*
G01*
G37*
G36*
G01*
X237400000Y-145779900D02*
X237400000Y-145304900D01*
G75*
G02*
X237637500Y-145067400I237500J0D01*
G01*
X238212500Y-145067400D01*
G75*
G02*
X238450000Y-145304900I0J-237500D01*
G01*
X238450000Y-145779900D01*
G75*
G02*
X238212500Y-146017400I-237500J0D01*
G01*
X237637500Y-146017400D01*
G75*
G02*
X237400000Y-145779900I0J237500D01*
G01*
G37*
%TD*%
%TO.C,SW49*%
G36*
G01*
X30150000Y-164779900D02*
X30150000Y-164304900D01*
G75*
G02*
X30387500Y-164067400I237500J0D01*
G01*
X30962500Y-164067400D01*
G75*
G02*
X31200000Y-164304900I0J-237500D01*
G01*
X31200000Y-164779900D01*
G75*
G02*
X30962500Y-165017400I-237500J0D01*
G01*
X30387500Y-165017400D01*
G75*
G02*
X30150000Y-164779900I0J237500D01*
G01*
G37*
G36*
G01*
X28400000Y-164779900D02*
X28400000Y-164304900D01*
G75*
G02*
X28637500Y-164067400I237500J0D01*
G01*
X29212500Y-164067400D01*
G75*
G02*
X29450000Y-164304900I0J-237500D01*
G01*
X29450000Y-164779900D01*
G75*
G02*
X29212500Y-165017400I-237500J0D01*
G01*
X28637500Y-165017400D01*
G75*
G02*
X28400000Y-164779900I0J237500D01*
G01*
G37*
%TD*%
%TO.C,SW50*%
G36*
G01*
X47400000Y-164779900D02*
X47400000Y-164304900D01*
G75*
G02*
X47637500Y-164067400I237500J0D01*
G01*
X48212500Y-164067400D01*
G75*
G02*
X48450000Y-164304900I0J-237500D01*
G01*
X48450000Y-164779900D01*
G75*
G02*
X48212500Y-165017400I-237500J0D01*
G01*
X47637500Y-165017400D01*
G75*
G02*
X47400000Y-164779900I0J237500D01*
G01*
G37*
G36*
G01*
X49150000Y-164779900D02*
X49150000Y-164304900D01*
G75*
G02*
X49387500Y-164067400I237500J0D01*
G01*
X49962500Y-164067400D01*
G75*
G02*
X50200000Y-164304900I0J-237500D01*
G01*
X50200000Y-164779900D01*
G75*
G02*
X49962500Y-165017400I-237500J0D01*
G01*
X49387500Y-165017400D01*
G75*
G02*
X49150000Y-164779900I0J237500D01*
G01*
G37*
%TD*%
%TO.C,SW51*%
G36*
G01*
X68150000Y-164779900D02*
X68150000Y-164304900D01*
G75*
G02*
X68387500Y-164067400I237500J0D01*
G01*
X68962500Y-164067400D01*
G75*
G02*
X69200000Y-164304900I0J-237500D01*
G01*
X69200000Y-164779900D01*
G75*
G02*
X68962500Y-165017400I-237500J0D01*
G01*
X68387500Y-165017400D01*
G75*
G02*
X68150000Y-164779900I0J237500D01*
G01*
G37*
G36*
G01*
X66400000Y-164779900D02*
X66400000Y-164304900D01*
G75*
G02*
X66637500Y-164067400I237500J0D01*
G01*
X67212500Y-164067400D01*
G75*
G02*
X67450000Y-164304900I0J-237500D01*
G01*
X67450000Y-164779900D01*
G75*
G02*
X67212500Y-165017400I-237500J0D01*
G01*
X66637500Y-165017400D01*
G75*
G02*
X66400000Y-164779900I0J237500D01*
G01*
G37*
%TD*%
%TO.C,SW52*%
G36*
G01*
X85400000Y-164779900D02*
X85400000Y-164304900D01*
G75*
G02*
X85637500Y-164067400I237500J0D01*
G01*
X86212500Y-164067400D01*
G75*
G02*
X86450000Y-164304900I0J-237500D01*
G01*
X86450000Y-164779900D01*
G75*
G02*
X86212500Y-165017400I-237500J0D01*
G01*
X85637500Y-165017400D01*
G75*
G02*
X85400000Y-164779900I0J237500D01*
G01*
G37*
G36*
G01*
X87150000Y-164779900D02*
X87150000Y-164304900D01*
G75*
G02*
X87387500Y-164067400I237500J0D01*
G01*
X87962500Y-164067400D01*
G75*
G02*
X88200000Y-164304900I0J-237500D01*
G01*
X88200000Y-164779900D01*
G75*
G02*
X87962500Y-165017400I-237500J0D01*
G01*
X87387500Y-165017400D01*
G75*
G02*
X87150000Y-164779900I0J237500D01*
G01*
G37*
%TD*%
%TO.C,SW53*%
G36*
G01*
X106150000Y-164779900D02*
X106150000Y-164304900D01*
G75*
G02*
X106387500Y-164067400I237500J0D01*
G01*
X106962500Y-164067400D01*
G75*
G02*
X107200000Y-164304900I0J-237500D01*
G01*
X107200000Y-164779900D01*
G75*
G02*
X106962500Y-165017400I-237500J0D01*
G01*
X106387500Y-165017400D01*
G75*
G02*
X106150000Y-164779900I0J237500D01*
G01*
G37*
G36*
G01*
X104400000Y-164779900D02*
X104400000Y-164304900D01*
G75*
G02*
X104637500Y-164067400I237500J0D01*
G01*
X105212500Y-164067400D01*
G75*
G02*
X105450000Y-164304900I0J-237500D01*
G01*
X105450000Y-164779900D01*
G75*
G02*
X105212500Y-165017400I-237500J0D01*
G01*
X104637500Y-165017400D01*
G75*
G02*
X104400000Y-164779900I0J237500D01*
G01*
G37*
%TD*%
%TO.C,SW54*%
G36*
G01*
X123400000Y-164779900D02*
X123400000Y-164304900D01*
G75*
G02*
X123637500Y-164067400I237500J0D01*
G01*
X124212500Y-164067400D01*
G75*
G02*
X124450000Y-164304900I0J-237500D01*
G01*
X124450000Y-164779900D01*
G75*
G02*
X124212500Y-165017400I-237500J0D01*
G01*
X123637500Y-165017400D01*
G75*
G02*
X123400000Y-164779900I0J237500D01*
G01*
G37*
G36*
G01*
X125150000Y-164779900D02*
X125150000Y-164304900D01*
G75*
G02*
X125387500Y-164067400I237500J0D01*
G01*
X125962500Y-164067400D01*
G75*
G02*
X126200000Y-164304900I0J-237500D01*
G01*
X126200000Y-164779900D01*
G75*
G02*
X125962500Y-165017400I-237500J0D01*
G01*
X125387500Y-165017400D01*
G75*
G02*
X125150000Y-164779900I0J237500D01*
G01*
G37*
%TD*%
%TO.C,SW55*%
G36*
G01*
X144150000Y-164779900D02*
X144150000Y-164304900D01*
G75*
G02*
X144387500Y-164067400I237500J0D01*
G01*
X144962500Y-164067400D01*
G75*
G02*
X145200000Y-164304900I0J-237500D01*
G01*
X145200000Y-164779900D01*
G75*
G02*
X144962500Y-165017400I-237500J0D01*
G01*
X144387500Y-165017400D01*
G75*
G02*
X144150000Y-164779900I0J237500D01*
G01*
G37*
G36*
G01*
X142400000Y-164779900D02*
X142400000Y-164304900D01*
G75*
G02*
X142637500Y-164067400I237500J0D01*
G01*
X143212500Y-164067400D01*
G75*
G02*
X143450000Y-164304900I0J-237500D01*
G01*
X143450000Y-164779900D01*
G75*
G02*
X143212500Y-165017400I-237500J0D01*
G01*
X142637500Y-165017400D01*
G75*
G02*
X142400000Y-164779900I0J237500D01*
G01*
G37*
%TD*%
%TO.C,SW56*%
G36*
G01*
X161400000Y-164779900D02*
X161400000Y-164304900D01*
G75*
G02*
X161637500Y-164067400I237500J0D01*
G01*
X162212500Y-164067400D01*
G75*
G02*
X162450000Y-164304900I0J-237500D01*
G01*
X162450000Y-164779900D01*
G75*
G02*
X162212500Y-165017400I-237500J0D01*
G01*
X161637500Y-165017400D01*
G75*
G02*
X161400000Y-164779900I0J237500D01*
G01*
G37*
G36*
G01*
X163150000Y-164779900D02*
X163150000Y-164304900D01*
G75*
G02*
X163387500Y-164067400I237500J0D01*
G01*
X163962500Y-164067400D01*
G75*
G02*
X164200000Y-164304900I0J-237500D01*
G01*
X164200000Y-164779900D01*
G75*
G02*
X163962500Y-165017400I-237500J0D01*
G01*
X163387500Y-165017400D01*
G75*
G02*
X163150000Y-164779900I0J237500D01*
G01*
G37*
%TD*%
%TO.C,SW57*%
G36*
G01*
X182150000Y-164779900D02*
X182150000Y-164304900D01*
G75*
G02*
X182387500Y-164067400I237500J0D01*
G01*
X182962500Y-164067400D01*
G75*
G02*
X183200000Y-164304900I0J-237500D01*
G01*
X183200000Y-164779900D01*
G75*
G02*
X182962500Y-165017400I-237500J0D01*
G01*
X182387500Y-165017400D01*
G75*
G02*
X182150000Y-164779900I0J237500D01*
G01*
G37*
G36*
G01*
X180400000Y-164779900D02*
X180400000Y-164304900D01*
G75*
G02*
X180637500Y-164067400I237500J0D01*
G01*
X181212500Y-164067400D01*
G75*
G02*
X181450000Y-164304900I0J-237500D01*
G01*
X181450000Y-164779900D01*
G75*
G02*
X181212500Y-165017400I-237500J0D01*
G01*
X180637500Y-165017400D01*
G75*
G02*
X180400000Y-164779900I0J237500D01*
G01*
G37*
%TD*%
%TO.C,SW58*%
G36*
G01*
X199400000Y-164779900D02*
X199400000Y-164304900D01*
G75*
G02*
X199637500Y-164067400I237500J0D01*
G01*
X200212500Y-164067400D01*
G75*
G02*
X200450000Y-164304900I0J-237500D01*
G01*
X200450000Y-164779900D01*
G75*
G02*
X200212500Y-165017400I-237500J0D01*
G01*
X199637500Y-165017400D01*
G75*
G02*
X199400000Y-164779900I0J237500D01*
G01*
G37*
G36*
G01*
X201150000Y-164779900D02*
X201150000Y-164304900D01*
G75*
G02*
X201387500Y-164067400I237500J0D01*
G01*
X201962500Y-164067400D01*
G75*
G02*
X202200000Y-164304900I0J-237500D01*
G01*
X202200000Y-164779900D01*
G75*
G02*
X201962500Y-165017400I-237500J0D01*
G01*
X201387500Y-165017400D01*
G75*
G02*
X201150000Y-164779900I0J237500D01*
G01*
G37*
%TD*%
%TO.C,SW59*%
G36*
G01*
X220150000Y-164779900D02*
X220150000Y-164304900D01*
G75*
G02*
X220387500Y-164067400I237500J0D01*
G01*
X220962500Y-164067400D01*
G75*
G02*
X221200000Y-164304900I0J-237500D01*
G01*
X221200000Y-164779900D01*
G75*
G02*
X220962500Y-165017400I-237500J0D01*
G01*
X220387500Y-165017400D01*
G75*
G02*
X220150000Y-164779900I0J237500D01*
G01*
G37*
G36*
G01*
X218400000Y-164779900D02*
X218400000Y-164304900D01*
G75*
G02*
X218637500Y-164067400I237500J0D01*
G01*
X219212500Y-164067400D01*
G75*
G02*
X219450000Y-164304900I0J-237500D01*
G01*
X219450000Y-164779900D01*
G75*
G02*
X219212500Y-165017400I-237500J0D01*
G01*
X218637500Y-165017400D01*
G75*
G02*
X218400000Y-164779900I0J237500D01*
G01*
G37*
%TD*%
%TO.C,SW60*%
G36*
G01*
X237400000Y-164779900D02*
X237400000Y-164304900D01*
G75*
G02*
X237637500Y-164067400I237500J0D01*
G01*
X238212500Y-164067400D01*
G75*
G02*
X238450000Y-164304900I0J-237500D01*
G01*
X238450000Y-164779900D01*
G75*
G02*
X238212500Y-165017400I-237500J0D01*
G01*
X237637500Y-165017400D01*
G75*
G02*
X237400000Y-164779900I0J237500D01*
G01*
G37*
G36*
G01*
X239150000Y-164779900D02*
X239150000Y-164304900D01*
G75*
G02*
X239387500Y-164067400I237500J0D01*
G01*
X239962500Y-164067400D01*
G75*
G02*
X240200000Y-164304900I0J-237500D01*
G01*
X240200000Y-164779900D01*
G75*
G02*
X239962500Y-165017400I-237500J0D01*
G01*
X239387500Y-165017400D01*
G75*
G02*
X239150000Y-164779900I0J237500D01*
G01*
G37*
%TD*%
D10*
%TO.C,D1*%
X28625000Y-83100000D03*
X26125000Y-83100000D03*
%TD*%
%TO.C,D2*%
X31250000Y-102000000D03*
X28750000Y-102000000D03*
%TD*%
%TO.C,D3*%
X31250000Y-121000000D03*
X28750000Y-121000000D03*
%TD*%
%TO.C,D4*%
X28750000Y-140000000D03*
X31250000Y-140000000D03*
%TD*%
%TO.C,D5*%
X31250000Y-159000000D03*
X28750000Y-159000000D03*
%TD*%
%TO.C,D6*%
X50250000Y-83000000D03*
X47750000Y-83000000D03*
%TD*%
%TO.C,D7*%
X50250000Y-102000000D03*
X47750000Y-102000000D03*
%TD*%
%TO.C,D8*%
X47750000Y-121000000D03*
X50250000Y-121000000D03*
%TD*%
%TO.C,D9*%
X50250000Y-140000000D03*
X47750000Y-140000000D03*
%TD*%
%TO.C,D10*%
X47750000Y-159500000D03*
X50250000Y-159500000D03*
%TD*%
%TO.C,D11*%
X66750000Y-83000000D03*
X69250000Y-83000000D03*
%TD*%
%TO.C,D12*%
X66750000Y-102000000D03*
X69250000Y-102000000D03*
%TD*%
%TO.C,D13*%
X69250000Y-121000000D03*
X66750000Y-121000000D03*
%TD*%
%TO.C,D14*%
X66750000Y-140000000D03*
X69250000Y-140000000D03*
%TD*%
%TO.C,D15*%
X68750000Y-159000000D03*
X66250000Y-159000000D03*
%TD*%
%TO.C,D16*%
X88250000Y-83000000D03*
X85750000Y-83000000D03*
%TD*%
%TO.C,D17*%
X88250000Y-102000000D03*
X85750000Y-102000000D03*
%TD*%
%TO.C,D18*%
X88250000Y-121000000D03*
X85750000Y-121000000D03*
%TD*%
%TO.C,D19*%
X87750000Y-140000000D03*
X85250000Y-140000000D03*
%TD*%
%TO.C,D20*%
X85750000Y-159000000D03*
X88250000Y-159000000D03*
%TD*%
%TO.C,D21*%
X104750000Y-83000000D03*
X107250000Y-83000000D03*
%TD*%
%TO.C,D22*%
X104750000Y-102000000D03*
X107250000Y-102000000D03*
%TD*%
%TO.C,D23*%
X104750000Y-121000000D03*
X107250000Y-121000000D03*
%TD*%
%TO.C,D24*%
X104750000Y-140000000D03*
X107250000Y-140000000D03*
%TD*%
%TO.C,D25*%
X107250000Y-159000000D03*
X104750000Y-159000000D03*
%TD*%
%TO.C,D26*%
X125750000Y-83000000D03*
X123250000Y-83000000D03*
%TD*%
%TO.C,D27*%
X126250000Y-102000000D03*
X123750000Y-102000000D03*
%TD*%
%TO.C,D28*%
X126250000Y-121000000D03*
X123750000Y-121000000D03*
%TD*%
%TO.C,D29*%
X123250000Y-140000000D03*
X125750000Y-140000000D03*
%TD*%
%TO.C,D30*%
X123750000Y-159000000D03*
X126250000Y-159000000D03*
%TD*%
%TO.C,D31*%
X142250000Y-83000000D03*
X144750000Y-83000000D03*
%TD*%
%TO.C,D32*%
X142250000Y-102000000D03*
X144750000Y-102000000D03*
%TD*%
%TO.C,D33*%
X142750000Y-121000000D03*
X145250000Y-121000000D03*
%TD*%
%TO.C,D34*%
X145250000Y-140000000D03*
X142750000Y-140000000D03*
%TD*%
%TO.C,D35*%
X144750000Y-159000000D03*
X142250000Y-159000000D03*
%TD*%
%TO.C,D36*%
X164250000Y-83000000D03*
X161750000Y-83000000D03*
%TD*%
%TO.C,D37*%
X164250000Y-102000000D03*
X161750000Y-102000000D03*
%TD*%
%TO.C,D38*%
X161250000Y-121000000D03*
X163750000Y-121000000D03*
%TD*%
%TO.C,D39*%
X161750000Y-140000000D03*
X164250000Y-140000000D03*
%TD*%
%TO.C,D40*%
X161750000Y-159000000D03*
X164250000Y-159000000D03*
%TD*%
%TO.C,D41*%
X180250000Y-83000000D03*
X182750000Y-83000000D03*
%TD*%
%TO.C,D42*%
X180250000Y-102000000D03*
X182750000Y-102000000D03*
%TD*%
%TO.C,D43*%
X183250000Y-121000000D03*
X180750000Y-121000000D03*
%TD*%
%TO.C,D44*%
X182750000Y-140000000D03*
X180250000Y-140000000D03*
%TD*%
%TO.C,D45*%
X180750000Y-159000000D03*
X183250000Y-159000000D03*
%TD*%
%TO.C,D46*%
X202250000Y-83000000D03*
X199750000Y-83000000D03*
%TD*%
%TO.C,D47*%
X199750000Y-102000000D03*
X202250000Y-102000000D03*
%TD*%
%TO.C,D48*%
X201750000Y-121000000D03*
X199250000Y-121000000D03*
%TD*%
%TO.C,D49*%
X199750000Y-140000000D03*
X202250000Y-140000000D03*
%TD*%
%TO.C,D50*%
X199250000Y-159000000D03*
X201750000Y-159000000D03*
%TD*%
%TO.C,D51*%
X221250000Y-83000000D03*
X218750000Y-83000000D03*
%TD*%
%TO.C,D52*%
X221250000Y-102000000D03*
X218750000Y-102000000D03*
%TD*%
%TO.C,D53*%
X218750000Y-121000000D03*
X221250000Y-121000000D03*
%TD*%
%TO.C,D54*%
X221250000Y-140000000D03*
X218750000Y-140000000D03*
%TD*%
%TO.C,D55*%
X221250000Y-159000000D03*
X218750000Y-159000000D03*
%TD*%
%TO.C,D56*%
X239750000Y-83000000D03*
X237250000Y-83000000D03*
%TD*%
%TO.C,D57*%
X237750000Y-102000000D03*
X240250000Y-102000000D03*
%TD*%
%TO.C,D58*%
X239750000Y-121000000D03*
X237250000Y-121000000D03*
%TD*%
%TO.C,D59*%
X237750000Y-140000000D03*
X240250000Y-140000000D03*
%TD*%
%TO.C,D60*%
X237250000Y-159000000D03*
X239750000Y-159000000D03*
%TD*%
M02*
