%TF.GenerationSoftware,KiCad,Pcbnew,(5.1.9)-1*%
%TF.CreationDate,2021-10-30T21:00:12+02:00*%
%TF.ProjectId,88RPI,38385250-492e-46b6-9963-61645f706362,rev?*%
%TF.SameCoordinates,Original*%
%TF.FileFunction,Profile,NP*%
%FSLAX46Y46*%
G04 Gerber Fmt 4.6, Leading zero omitted, Abs format (unit mm)*
G04 Created by KiCad (PCBNEW (5.1.9)-1) date 2021-10-30 21:00:12*
%MOMM*%
%LPD*%
G01*
G04 APERTURE LIST*
%TA.AperFunction,Profile*%
%ADD10C,0.050000*%
%TD*%
%TA.AperFunction,Profile*%
%ADD11C,0.200000*%
%TD*%
G04 APERTURE END LIST*
D10*
X82346800Y-75336400D02*
G75*
G03*
X82346800Y-75336400I-1476699J0D01*
G01*
X123545600Y-76250800D02*
G75*
G03*
X123545600Y-76250800I-1476699J0D01*
G01*
X109731499Y-37592000D02*
G75*
G03*
X109731499Y-37592000I-1476699J0D01*
G01*
X41783000Y-62738000D02*
X41783000Y-36449000D01*
X50673000Y-62738000D02*
X41783000Y-62738000D01*
X50673000Y-36449000D02*
X50673000Y-62738000D01*
X41783000Y-36449000D02*
X50673000Y-36449000D01*
X18700000Y-178400000D02*
X18700000Y-16400000D01*
X250000000Y-178300000D02*
X18700000Y-178400000D01*
X250000000Y-16400000D02*
X250000000Y-178300000D01*
X18700000Y-16400000D02*
X250000000Y-16400000D01*
D11*
%TO.C,SW1*%
X24182059Y-95421903D02*
X27368000Y-95421903D01*
X27568000Y-95621903D02*
X27568000Y-96264000D01*
X24182059Y-89438232D02*
X35721518Y-89438232D01*
X35921518Y-95221903D02*
X35921518Y-89638232D01*
X23982059Y-95221903D02*
X23982059Y-89638232D01*
X32368310Y-95621903D02*
X32368310Y-96264000D01*
X27768000Y-96464000D02*
X32168310Y-96464000D01*
X32568310Y-95421903D02*
X35721518Y-95421903D01*
X27768000Y-96464000D02*
G75*
G02*
X27568000Y-96264000I0J200000D01*
G01*
X27368000Y-95421903D02*
G75*
G02*
X27568000Y-95621903I0J-200000D01*
G01*
X35721518Y-89438232D02*
G75*
G02*
X35921518Y-89638232I0J-200000D01*
G01*
X24182059Y-95421903D02*
G75*
G02*
X23982059Y-95221903I0J200000D01*
G01*
X35921518Y-95221903D02*
G75*
G02*
X35721518Y-95421903I-200000J0D01*
G01*
X23982059Y-89638232D02*
G75*
G02*
X24182059Y-89438232I200000J0D01*
G01*
X32368310Y-96264000D02*
G75*
G02*
X32168310Y-96464000I-200000J0D01*
G01*
X32368310Y-95621903D02*
G75*
G02*
X32568310Y-95421903I200000J0D01*
G01*
%TO.C,SW2*%
X51568310Y-95421903D02*
X54721518Y-95421903D01*
X46768000Y-96464000D02*
X51168310Y-96464000D01*
X51368310Y-95621903D02*
X51368310Y-96264000D01*
X42982059Y-95221903D02*
X42982059Y-89638232D01*
X54921518Y-95221903D02*
X54921518Y-89638232D01*
X43182059Y-89438232D02*
X54721518Y-89438232D01*
X46568000Y-95621903D02*
X46568000Y-96264000D01*
X43182059Y-95421903D02*
X46368000Y-95421903D01*
X51368310Y-95621903D02*
G75*
G02*
X51568310Y-95421903I200000J0D01*
G01*
X51368310Y-96264000D02*
G75*
G02*
X51168310Y-96464000I-200000J0D01*
G01*
X42982059Y-89638232D02*
G75*
G02*
X43182059Y-89438232I200000J0D01*
G01*
X54921518Y-95221903D02*
G75*
G02*
X54721518Y-95421903I-200000J0D01*
G01*
X43182059Y-95421903D02*
G75*
G02*
X42982059Y-95221903I0J200000D01*
G01*
X54721518Y-89438232D02*
G75*
G02*
X54921518Y-89638232I0J-200000D01*
G01*
X46368000Y-95421903D02*
G75*
G02*
X46568000Y-95621903I0J-200000D01*
G01*
X46768000Y-96464000D02*
G75*
G02*
X46568000Y-96264000I0J200000D01*
G01*
%TO.C,SW3*%
X62182059Y-95421903D02*
X65368000Y-95421903D01*
X65568000Y-95621903D02*
X65568000Y-96264000D01*
X62182059Y-89438232D02*
X73721518Y-89438232D01*
X73921518Y-95221903D02*
X73921518Y-89638232D01*
X61982059Y-95221903D02*
X61982059Y-89638232D01*
X70368310Y-95621903D02*
X70368310Y-96264000D01*
X65768000Y-96464000D02*
X70168310Y-96464000D01*
X70568310Y-95421903D02*
X73721518Y-95421903D01*
X65768000Y-96464000D02*
G75*
G02*
X65568000Y-96264000I0J200000D01*
G01*
X65368000Y-95421903D02*
G75*
G02*
X65568000Y-95621903I0J-200000D01*
G01*
X73721518Y-89438232D02*
G75*
G02*
X73921518Y-89638232I0J-200000D01*
G01*
X62182059Y-95421903D02*
G75*
G02*
X61982059Y-95221903I0J200000D01*
G01*
X73921518Y-95221903D02*
G75*
G02*
X73721518Y-95421903I-200000J0D01*
G01*
X61982059Y-89638232D02*
G75*
G02*
X62182059Y-89438232I200000J0D01*
G01*
X70368310Y-96264000D02*
G75*
G02*
X70168310Y-96464000I-200000J0D01*
G01*
X70368310Y-95621903D02*
G75*
G02*
X70568310Y-95421903I200000J0D01*
G01*
%TO.C,SW4*%
X89568310Y-95421903D02*
X92721518Y-95421903D01*
X84768000Y-96464000D02*
X89168310Y-96464000D01*
X89368310Y-95621903D02*
X89368310Y-96264000D01*
X80982059Y-95221903D02*
X80982059Y-89638232D01*
X92921518Y-95221903D02*
X92921518Y-89638232D01*
X81182059Y-89438232D02*
X92721518Y-89438232D01*
X84568000Y-95621903D02*
X84568000Y-96264000D01*
X81182059Y-95421903D02*
X84368000Y-95421903D01*
X89368310Y-95621903D02*
G75*
G02*
X89568310Y-95421903I200000J0D01*
G01*
X89368310Y-96264000D02*
G75*
G02*
X89168310Y-96464000I-200000J0D01*
G01*
X80982059Y-89638232D02*
G75*
G02*
X81182059Y-89438232I200000J0D01*
G01*
X92921518Y-95221903D02*
G75*
G02*
X92721518Y-95421903I-200000J0D01*
G01*
X81182059Y-95421903D02*
G75*
G02*
X80982059Y-95221903I0J200000D01*
G01*
X92721518Y-89438232D02*
G75*
G02*
X92921518Y-89638232I0J-200000D01*
G01*
X84368000Y-95421903D02*
G75*
G02*
X84568000Y-95621903I0J-200000D01*
G01*
X84768000Y-96464000D02*
G75*
G02*
X84568000Y-96264000I0J200000D01*
G01*
%TO.C,SW5*%
X100182059Y-95421903D02*
X103368000Y-95421903D01*
X103568000Y-95621903D02*
X103568000Y-96264000D01*
X100182059Y-89438232D02*
X111721518Y-89438232D01*
X111921518Y-95221903D02*
X111921518Y-89638232D01*
X99982059Y-95221903D02*
X99982059Y-89638232D01*
X108368310Y-95621903D02*
X108368310Y-96264000D01*
X103768000Y-96464000D02*
X108168310Y-96464000D01*
X108568310Y-95421903D02*
X111721518Y-95421903D01*
X103768000Y-96464000D02*
G75*
G02*
X103568000Y-96264000I0J200000D01*
G01*
X103368000Y-95421903D02*
G75*
G02*
X103568000Y-95621903I0J-200000D01*
G01*
X111721518Y-89438232D02*
G75*
G02*
X111921518Y-89638232I0J-200000D01*
G01*
X100182059Y-95421903D02*
G75*
G02*
X99982059Y-95221903I0J200000D01*
G01*
X111921518Y-95221903D02*
G75*
G02*
X111721518Y-95421903I-200000J0D01*
G01*
X99982059Y-89638232D02*
G75*
G02*
X100182059Y-89438232I200000J0D01*
G01*
X108368310Y-96264000D02*
G75*
G02*
X108168310Y-96464000I-200000J0D01*
G01*
X108368310Y-95621903D02*
G75*
G02*
X108568310Y-95421903I200000J0D01*
G01*
%TO.C,SW6*%
X127568310Y-95421903D02*
X130721518Y-95421903D01*
X122768000Y-96464000D02*
X127168310Y-96464000D01*
X127368310Y-95621903D02*
X127368310Y-96264000D01*
X118982059Y-95221903D02*
X118982059Y-89638232D01*
X130921518Y-95221903D02*
X130921518Y-89638232D01*
X119182059Y-89438232D02*
X130721518Y-89438232D01*
X122568000Y-95621903D02*
X122568000Y-96264000D01*
X119182059Y-95421903D02*
X122368000Y-95421903D01*
X127368310Y-95621903D02*
G75*
G02*
X127568310Y-95421903I200000J0D01*
G01*
X127368310Y-96264000D02*
G75*
G02*
X127168310Y-96464000I-200000J0D01*
G01*
X118982059Y-89638232D02*
G75*
G02*
X119182059Y-89438232I200000J0D01*
G01*
X130921518Y-95221903D02*
G75*
G02*
X130721518Y-95421903I-200000J0D01*
G01*
X119182059Y-95421903D02*
G75*
G02*
X118982059Y-95221903I0J200000D01*
G01*
X130721518Y-89438232D02*
G75*
G02*
X130921518Y-89638232I0J-200000D01*
G01*
X122368000Y-95421903D02*
G75*
G02*
X122568000Y-95621903I0J-200000D01*
G01*
X122768000Y-96464000D02*
G75*
G02*
X122568000Y-96264000I0J200000D01*
G01*
%TO.C,SW7*%
X138182059Y-95421903D02*
X141368000Y-95421903D01*
X141568000Y-95621903D02*
X141568000Y-96264000D01*
X138182059Y-89438232D02*
X149721518Y-89438232D01*
X149921518Y-95221903D02*
X149921518Y-89638232D01*
X137982059Y-95221903D02*
X137982059Y-89638232D01*
X146368310Y-95621903D02*
X146368310Y-96264000D01*
X141768000Y-96464000D02*
X146168310Y-96464000D01*
X146568310Y-95421903D02*
X149721518Y-95421903D01*
X141768000Y-96464000D02*
G75*
G02*
X141568000Y-96264000I0J200000D01*
G01*
X141368000Y-95421903D02*
G75*
G02*
X141568000Y-95621903I0J-200000D01*
G01*
X149721518Y-89438232D02*
G75*
G02*
X149921518Y-89638232I0J-200000D01*
G01*
X138182059Y-95421903D02*
G75*
G02*
X137982059Y-95221903I0J200000D01*
G01*
X149921518Y-95221903D02*
G75*
G02*
X149721518Y-95421903I-200000J0D01*
G01*
X137982059Y-89638232D02*
G75*
G02*
X138182059Y-89438232I200000J0D01*
G01*
X146368310Y-96264000D02*
G75*
G02*
X146168310Y-96464000I-200000J0D01*
G01*
X146368310Y-95621903D02*
G75*
G02*
X146568310Y-95421903I200000J0D01*
G01*
%TO.C,SW8*%
X165568310Y-95421903D02*
X168721518Y-95421903D01*
X160768000Y-96464000D02*
X165168310Y-96464000D01*
X165368310Y-95621903D02*
X165368310Y-96264000D01*
X156982059Y-95221903D02*
X156982059Y-89638232D01*
X168921518Y-95221903D02*
X168921518Y-89638232D01*
X157182059Y-89438232D02*
X168721518Y-89438232D01*
X160568000Y-95621903D02*
X160568000Y-96264000D01*
X157182059Y-95421903D02*
X160368000Y-95421903D01*
X165368310Y-95621903D02*
G75*
G02*
X165568310Y-95421903I200000J0D01*
G01*
X165368310Y-96264000D02*
G75*
G02*
X165168310Y-96464000I-200000J0D01*
G01*
X156982059Y-89638232D02*
G75*
G02*
X157182059Y-89438232I200000J0D01*
G01*
X168921518Y-95221903D02*
G75*
G02*
X168721518Y-95421903I-200000J0D01*
G01*
X157182059Y-95421903D02*
G75*
G02*
X156982059Y-95221903I0J200000D01*
G01*
X168721518Y-89438232D02*
G75*
G02*
X168921518Y-89638232I0J-200000D01*
G01*
X160368000Y-95421903D02*
G75*
G02*
X160568000Y-95621903I0J-200000D01*
G01*
X160768000Y-96464000D02*
G75*
G02*
X160568000Y-96264000I0J200000D01*
G01*
%TO.C,SW9*%
X176182059Y-95421903D02*
X179368000Y-95421903D01*
X179568000Y-95621903D02*
X179568000Y-96264000D01*
X176182059Y-89438232D02*
X187721518Y-89438232D01*
X187921518Y-95221903D02*
X187921518Y-89638232D01*
X175982059Y-95221903D02*
X175982059Y-89638232D01*
X184368310Y-95621903D02*
X184368310Y-96264000D01*
X179768000Y-96464000D02*
X184168310Y-96464000D01*
X184568310Y-95421903D02*
X187721518Y-95421903D01*
X179768000Y-96464000D02*
G75*
G02*
X179568000Y-96264000I0J200000D01*
G01*
X179368000Y-95421903D02*
G75*
G02*
X179568000Y-95621903I0J-200000D01*
G01*
X187721518Y-89438232D02*
G75*
G02*
X187921518Y-89638232I0J-200000D01*
G01*
X176182059Y-95421903D02*
G75*
G02*
X175982059Y-95221903I0J200000D01*
G01*
X187921518Y-95221903D02*
G75*
G02*
X187721518Y-95421903I-200000J0D01*
G01*
X175982059Y-89638232D02*
G75*
G02*
X176182059Y-89438232I200000J0D01*
G01*
X184368310Y-96264000D02*
G75*
G02*
X184168310Y-96464000I-200000J0D01*
G01*
X184368310Y-95621903D02*
G75*
G02*
X184568310Y-95421903I200000J0D01*
G01*
%TO.C,SW10*%
X195182059Y-95421903D02*
X198368000Y-95421903D01*
X198568000Y-95621903D02*
X198568000Y-96264000D01*
X195182059Y-89438232D02*
X206721518Y-89438232D01*
X206921518Y-95221903D02*
X206921518Y-89638232D01*
X194982059Y-95221903D02*
X194982059Y-89638232D01*
X203368310Y-95621903D02*
X203368310Y-96264000D01*
X198768000Y-96464000D02*
X203168310Y-96464000D01*
X203568310Y-95421903D02*
X206721518Y-95421903D01*
X198768000Y-96464000D02*
G75*
G02*
X198568000Y-96264000I0J200000D01*
G01*
X198368000Y-95421903D02*
G75*
G02*
X198568000Y-95621903I0J-200000D01*
G01*
X206721518Y-89438232D02*
G75*
G02*
X206921518Y-89638232I0J-200000D01*
G01*
X195182059Y-95421903D02*
G75*
G02*
X194982059Y-95221903I0J200000D01*
G01*
X206921518Y-95221903D02*
G75*
G02*
X206721518Y-95421903I-200000J0D01*
G01*
X194982059Y-89638232D02*
G75*
G02*
X195182059Y-89438232I200000J0D01*
G01*
X203368310Y-96264000D02*
G75*
G02*
X203168310Y-96464000I-200000J0D01*
G01*
X203368310Y-95621903D02*
G75*
G02*
X203568310Y-95421903I200000J0D01*
G01*
%TO.C,SW11*%
X214182059Y-95421903D02*
X217368000Y-95421903D01*
X217568000Y-95621903D02*
X217568000Y-96264000D01*
X214182059Y-89438232D02*
X225721518Y-89438232D01*
X225921518Y-95221903D02*
X225921518Y-89638232D01*
X213982059Y-95221903D02*
X213982059Y-89638232D01*
X222368310Y-95621903D02*
X222368310Y-96264000D01*
X217768000Y-96464000D02*
X222168310Y-96464000D01*
X222568310Y-95421903D02*
X225721518Y-95421903D01*
X217768000Y-96464000D02*
G75*
G02*
X217568000Y-96264000I0J200000D01*
G01*
X217368000Y-95421903D02*
G75*
G02*
X217568000Y-95621903I0J-200000D01*
G01*
X225721518Y-89438232D02*
G75*
G02*
X225921518Y-89638232I0J-200000D01*
G01*
X214182059Y-95421903D02*
G75*
G02*
X213982059Y-95221903I0J200000D01*
G01*
X225921518Y-95221903D02*
G75*
G02*
X225721518Y-95421903I-200000J0D01*
G01*
X213982059Y-89638232D02*
G75*
G02*
X214182059Y-89438232I200000J0D01*
G01*
X222368310Y-96264000D02*
G75*
G02*
X222168310Y-96464000I-200000J0D01*
G01*
X222368310Y-95621903D02*
G75*
G02*
X222568310Y-95421903I200000J0D01*
G01*
%TO.C,SW12*%
X241568310Y-95421903D02*
X244721518Y-95421903D01*
X236768000Y-96464000D02*
X241168310Y-96464000D01*
X241368310Y-95621903D02*
X241368310Y-96264000D01*
X232982059Y-95221903D02*
X232982059Y-89638232D01*
X244921518Y-95221903D02*
X244921518Y-89638232D01*
X233182059Y-89438232D02*
X244721518Y-89438232D01*
X236568000Y-95621903D02*
X236568000Y-96264000D01*
X233182059Y-95421903D02*
X236368000Y-95421903D01*
X241368310Y-95621903D02*
G75*
G02*
X241568310Y-95421903I200000J0D01*
G01*
X241368310Y-96264000D02*
G75*
G02*
X241168310Y-96464000I-200000J0D01*
G01*
X232982059Y-89638232D02*
G75*
G02*
X233182059Y-89438232I200000J0D01*
G01*
X244921518Y-95221903D02*
G75*
G02*
X244721518Y-95421903I-200000J0D01*
G01*
X233182059Y-95421903D02*
G75*
G02*
X232982059Y-95221903I0J200000D01*
G01*
X244721518Y-89438232D02*
G75*
G02*
X244921518Y-89638232I0J-200000D01*
G01*
X236368000Y-95421903D02*
G75*
G02*
X236568000Y-95621903I0J-200000D01*
G01*
X236768000Y-96464000D02*
G75*
G02*
X236568000Y-96264000I0J200000D01*
G01*
%TO.C,SW13*%
X24182059Y-114421903D02*
X27368000Y-114421903D01*
X27568000Y-114621903D02*
X27568000Y-115264000D01*
X24182059Y-108438232D02*
X35721518Y-108438232D01*
X35921518Y-114221903D02*
X35921518Y-108638232D01*
X23982059Y-114221903D02*
X23982059Y-108638232D01*
X32368310Y-114621903D02*
X32368310Y-115264000D01*
X27768000Y-115464000D02*
X32168310Y-115464000D01*
X32568310Y-114421903D02*
X35721518Y-114421903D01*
X27768000Y-115464000D02*
G75*
G02*
X27568000Y-115264000I0J200000D01*
G01*
X27368000Y-114421903D02*
G75*
G02*
X27568000Y-114621903I0J-200000D01*
G01*
X35721518Y-108438232D02*
G75*
G02*
X35921518Y-108638232I0J-200000D01*
G01*
X24182059Y-114421903D02*
G75*
G02*
X23982059Y-114221903I0J200000D01*
G01*
X35921518Y-114221903D02*
G75*
G02*
X35721518Y-114421903I-200000J0D01*
G01*
X23982059Y-108638232D02*
G75*
G02*
X24182059Y-108438232I200000J0D01*
G01*
X32368310Y-115264000D02*
G75*
G02*
X32168310Y-115464000I-200000J0D01*
G01*
X32368310Y-114621903D02*
G75*
G02*
X32568310Y-114421903I200000J0D01*
G01*
%TO.C,SW14*%
X51568310Y-114421903D02*
X54721518Y-114421903D01*
X46768000Y-115464000D02*
X51168310Y-115464000D01*
X51368310Y-114621903D02*
X51368310Y-115264000D01*
X42982059Y-114221903D02*
X42982059Y-108638232D01*
X54921518Y-114221903D02*
X54921518Y-108638232D01*
X43182059Y-108438232D02*
X54721518Y-108438232D01*
X46568000Y-114621903D02*
X46568000Y-115264000D01*
X43182059Y-114421903D02*
X46368000Y-114421903D01*
X51368310Y-114621903D02*
G75*
G02*
X51568310Y-114421903I200000J0D01*
G01*
X51368310Y-115264000D02*
G75*
G02*
X51168310Y-115464000I-200000J0D01*
G01*
X42982059Y-108638232D02*
G75*
G02*
X43182059Y-108438232I200000J0D01*
G01*
X54921518Y-114221903D02*
G75*
G02*
X54721518Y-114421903I-200000J0D01*
G01*
X43182059Y-114421903D02*
G75*
G02*
X42982059Y-114221903I0J200000D01*
G01*
X54721518Y-108438232D02*
G75*
G02*
X54921518Y-108638232I0J-200000D01*
G01*
X46368000Y-114421903D02*
G75*
G02*
X46568000Y-114621903I0J-200000D01*
G01*
X46768000Y-115464000D02*
G75*
G02*
X46568000Y-115264000I0J200000D01*
G01*
%TO.C,SW15*%
X62182059Y-114421903D02*
X65368000Y-114421903D01*
X65568000Y-114621903D02*
X65568000Y-115264000D01*
X62182059Y-108438232D02*
X73721518Y-108438232D01*
X73921518Y-114221903D02*
X73921518Y-108638232D01*
X61982059Y-114221903D02*
X61982059Y-108638232D01*
X70368310Y-114621903D02*
X70368310Y-115264000D01*
X65768000Y-115464000D02*
X70168310Y-115464000D01*
X70568310Y-114421903D02*
X73721518Y-114421903D01*
X65768000Y-115464000D02*
G75*
G02*
X65568000Y-115264000I0J200000D01*
G01*
X65368000Y-114421903D02*
G75*
G02*
X65568000Y-114621903I0J-200000D01*
G01*
X73721518Y-108438232D02*
G75*
G02*
X73921518Y-108638232I0J-200000D01*
G01*
X62182059Y-114421903D02*
G75*
G02*
X61982059Y-114221903I0J200000D01*
G01*
X73921518Y-114221903D02*
G75*
G02*
X73721518Y-114421903I-200000J0D01*
G01*
X61982059Y-108638232D02*
G75*
G02*
X62182059Y-108438232I200000J0D01*
G01*
X70368310Y-115264000D02*
G75*
G02*
X70168310Y-115464000I-200000J0D01*
G01*
X70368310Y-114621903D02*
G75*
G02*
X70568310Y-114421903I200000J0D01*
G01*
%TO.C,SW16*%
X89568310Y-114421903D02*
X92721518Y-114421903D01*
X84768000Y-115464000D02*
X89168310Y-115464000D01*
X89368310Y-114621903D02*
X89368310Y-115264000D01*
X80982059Y-114221903D02*
X80982059Y-108638232D01*
X92921518Y-114221903D02*
X92921518Y-108638232D01*
X81182059Y-108438232D02*
X92721518Y-108438232D01*
X84568000Y-114621903D02*
X84568000Y-115264000D01*
X81182059Y-114421903D02*
X84368000Y-114421903D01*
X89368310Y-114621903D02*
G75*
G02*
X89568310Y-114421903I200000J0D01*
G01*
X89368310Y-115264000D02*
G75*
G02*
X89168310Y-115464000I-200000J0D01*
G01*
X80982059Y-108638232D02*
G75*
G02*
X81182059Y-108438232I200000J0D01*
G01*
X92921518Y-114221903D02*
G75*
G02*
X92721518Y-114421903I-200000J0D01*
G01*
X81182059Y-114421903D02*
G75*
G02*
X80982059Y-114221903I0J200000D01*
G01*
X92721518Y-108438232D02*
G75*
G02*
X92921518Y-108638232I0J-200000D01*
G01*
X84368000Y-114421903D02*
G75*
G02*
X84568000Y-114621903I0J-200000D01*
G01*
X84768000Y-115464000D02*
G75*
G02*
X84568000Y-115264000I0J200000D01*
G01*
%TO.C,SW17*%
X100182059Y-114421903D02*
X103368000Y-114421903D01*
X103568000Y-114621903D02*
X103568000Y-115264000D01*
X100182059Y-108438232D02*
X111721518Y-108438232D01*
X111921518Y-114221903D02*
X111921518Y-108638232D01*
X99982059Y-114221903D02*
X99982059Y-108638232D01*
X108368310Y-114621903D02*
X108368310Y-115264000D01*
X103768000Y-115464000D02*
X108168310Y-115464000D01*
X108568310Y-114421903D02*
X111721518Y-114421903D01*
X103768000Y-115464000D02*
G75*
G02*
X103568000Y-115264000I0J200000D01*
G01*
X103368000Y-114421903D02*
G75*
G02*
X103568000Y-114621903I0J-200000D01*
G01*
X111721518Y-108438232D02*
G75*
G02*
X111921518Y-108638232I0J-200000D01*
G01*
X100182059Y-114421903D02*
G75*
G02*
X99982059Y-114221903I0J200000D01*
G01*
X111921518Y-114221903D02*
G75*
G02*
X111721518Y-114421903I-200000J0D01*
G01*
X99982059Y-108638232D02*
G75*
G02*
X100182059Y-108438232I200000J0D01*
G01*
X108368310Y-115264000D02*
G75*
G02*
X108168310Y-115464000I-200000J0D01*
G01*
X108368310Y-114621903D02*
G75*
G02*
X108568310Y-114421903I200000J0D01*
G01*
%TO.C,SW18*%
X119182059Y-114421903D02*
X122368000Y-114421903D01*
X122568000Y-114621903D02*
X122568000Y-115264000D01*
X119182059Y-108438232D02*
X130721518Y-108438232D01*
X130921518Y-114221903D02*
X130921518Y-108638232D01*
X118982059Y-114221903D02*
X118982059Y-108638232D01*
X127368310Y-114621903D02*
X127368310Y-115264000D01*
X122768000Y-115464000D02*
X127168310Y-115464000D01*
X127568310Y-114421903D02*
X130721518Y-114421903D01*
X122768000Y-115464000D02*
G75*
G02*
X122568000Y-115264000I0J200000D01*
G01*
X122368000Y-114421903D02*
G75*
G02*
X122568000Y-114621903I0J-200000D01*
G01*
X130721518Y-108438232D02*
G75*
G02*
X130921518Y-108638232I0J-200000D01*
G01*
X119182059Y-114421903D02*
G75*
G02*
X118982059Y-114221903I0J200000D01*
G01*
X130921518Y-114221903D02*
G75*
G02*
X130721518Y-114421903I-200000J0D01*
G01*
X118982059Y-108638232D02*
G75*
G02*
X119182059Y-108438232I200000J0D01*
G01*
X127368310Y-115264000D02*
G75*
G02*
X127168310Y-115464000I-200000J0D01*
G01*
X127368310Y-114621903D02*
G75*
G02*
X127568310Y-114421903I200000J0D01*
G01*
%TO.C,SW19*%
X138182059Y-114421903D02*
X141368000Y-114421903D01*
X141568000Y-114621903D02*
X141568000Y-115264000D01*
X138182059Y-108438232D02*
X149721518Y-108438232D01*
X149921518Y-114221903D02*
X149921518Y-108638232D01*
X137982059Y-114221903D02*
X137982059Y-108638232D01*
X146368310Y-114621903D02*
X146368310Y-115264000D01*
X141768000Y-115464000D02*
X146168310Y-115464000D01*
X146568310Y-114421903D02*
X149721518Y-114421903D01*
X141768000Y-115464000D02*
G75*
G02*
X141568000Y-115264000I0J200000D01*
G01*
X141368000Y-114421903D02*
G75*
G02*
X141568000Y-114621903I0J-200000D01*
G01*
X149721518Y-108438232D02*
G75*
G02*
X149921518Y-108638232I0J-200000D01*
G01*
X138182059Y-114421903D02*
G75*
G02*
X137982059Y-114221903I0J200000D01*
G01*
X149921518Y-114221903D02*
G75*
G02*
X149721518Y-114421903I-200000J0D01*
G01*
X137982059Y-108638232D02*
G75*
G02*
X138182059Y-108438232I200000J0D01*
G01*
X146368310Y-115264000D02*
G75*
G02*
X146168310Y-115464000I-200000J0D01*
G01*
X146368310Y-114621903D02*
G75*
G02*
X146568310Y-114421903I200000J0D01*
G01*
%TO.C,SW20*%
X165568310Y-114421903D02*
X168721518Y-114421903D01*
X160768000Y-115464000D02*
X165168310Y-115464000D01*
X165368310Y-114621903D02*
X165368310Y-115264000D01*
X156982059Y-114221903D02*
X156982059Y-108638232D01*
X168921518Y-114221903D02*
X168921518Y-108638232D01*
X157182059Y-108438232D02*
X168721518Y-108438232D01*
X160568000Y-114621903D02*
X160568000Y-115264000D01*
X157182059Y-114421903D02*
X160368000Y-114421903D01*
X165368310Y-114621903D02*
G75*
G02*
X165568310Y-114421903I200000J0D01*
G01*
X165368310Y-115264000D02*
G75*
G02*
X165168310Y-115464000I-200000J0D01*
G01*
X156982059Y-108638232D02*
G75*
G02*
X157182059Y-108438232I200000J0D01*
G01*
X168921518Y-114221903D02*
G75*
G02*
X168721518Y-114421903I-200000J0D01*
G01*
X157182059Y-114421903D02*
G75*
G02*
X156982059Y-114221903I0J200000D01*
G01*
X168721518Y-108438232D02*
G75*
G02*
X168921518Y-108638232I0J-200000D01*
G01*
X160368000Y-114421903D02*
G75*
G02*
X160568000Y-114621903I0J-200000D01*
G01*
X160768000Y-115464000D02*
G75*
G02*
X160568000Y-115264000I0J200000D01*
G01*
%TO.C,SW21*%
X176182059Y-114421903D02*
X179368000Y-114421903D01*
X179568000Y-114621903D02*
X179568000Y-115264000D01*
X176182059Y-108438232D02*
X187721518Y-108438232D01*
X187921518Y-114221903D02*
X187921518Y-108638232D01*
X175982059Y-114221903D02*
X175982059Y-108638232D01*
X184368310Y-114621903D02*
X184368310Y-115264000D01*
X179768000Y-115464000D02*
X184168310Y-115464000D01*
X184568310Y-114421903D02*
X187721518Y-114421903D01*
X179768000Y-115464000D02*
G75*
G02*
X179568000Y-115264000I0J200000D01*
G01*
X179368000Y-114421903D02*
G75*
G02*
X179568000Y-114621903I0J-200000D01*
G01*
X187721518Y-108438232D02*
G75*
G02*
X187921518Y-108638232I0J-200000D01*
G01*
X176182059Y-114421903D02*
G75*
G02*
X175982059Y-114221903I0J200000D01*
G01*
X187921518Y-114221903D02*
G75*
G02*
X187721518Y-114421903I-200000J0D01*
G01*
X175982059Y-108638232D02*
G75*
G02*
X176182059Y-108438232I200000J0D01*
G01*
X184368310Y-115264000D02*
G75*
G02*
X184168310Y-115464000I-200000J0D01*
G01*
X184368310Y-114621903D02*
G75*
G02*
X184568310Y-114421903I200000J0D01*
G01*
%TO.C,SW22*%
X203468310Y-114421903D02*
X206621518Y-114421903D01*
X198668000Y-115464000D02*
X203068310Y-115464000D01*
X203268310Y-114621903D02*
X203268310Y-115264000D01*
X194882059Y-114221903D02*
X194882059Y-108638232D01*
X206821518Y-114221903D02*
X206821518Y-108638232D01*
X195082059Y-108438232D02*
X206621518Y-108438232D01*
X198468000Y-114621903D02*
X198468000Y-115264000D01*
X195082059Y-114421903D02*
X198268000Y-114421903D01*
X203268310Y-114621903D02*
G75*
G02*
X203468310Y-114421903I200000J0D01*
G01*
X203268310Y-115264000D02*
G75*
G02*
X203068310Y-115464000I-200000J0D01*
G01*
X194882059Y-108638232D02*
G75*
G02*
X195082059Y-108438232I200000J0D01*
G01*
X206821518Y-114221903D02*
G75*
G02*
X206621518Y-114421903I-200000J0D01*
G01*
X195082059Y-114421903D02*
G75*
G02*
X194882059Y-114221903I0J200000D01*
G01*
X206621518Y-108438232D02*
G75*
G02*
X206821518Y-108638232I0J-200000D01*
G01*
X198268000Y-114421903D02*
G75*
G02*
X198468000Y-114621903I0J-200000D01*
G01*
X198668000Y-115464000D02*
G75*
G02*
X198468000Y-115264000I0J200000D01*
G01*
%TO.C,SW23*%
X214182059Y-114421903D02*
X217368000Y-114421903D01*
X217568000Y-114621903D02*
X217568000Y-115264000D01*
X214182059Y-108438232D02*
X225721518Y-108438232D01*
X225921518Y-114221903D02*
X225921518Y-108638232D01*
X213982059Y-114221903D02*
X213982059Y-108638232D01*
X222368310Y-114621903D02*
X222368310Y-115264000D01*
X217768000Y-115464000D02*
X222168310Y-115464000D01*
X222568310Y-114421903D02*
X225721518Y-114421903D01*
X217768000Y-115464000D02*
G75*
G02*
X217568000Y-115264000I0J200000D01*
G01*
X217368000Y-114421903D02*
G75*
G02*
X217568000Y-114621903I0J-200000D01*
G01*
X225721518Y-108438232D02*
G75*
G02*
X225921518Y-108638232I0J-200000D01*
G01*
X214182059Y-114421903D02*
G75*
G02*
X213982059Y-114221903I0J200000D01*
G01*
X225921518Y-114221903D02*
G75*
G02*
X225721518Y-114421903I-200000J0D01*
G01*
X213982059Y-108638232D02*
G75*
G02*
X214182059Y-108438232I200000J0D01*
G01*
X222368310Y-115264000D02*
G75*
G02*
X222168310Y-115464000I-200000J0D01*
G01*
X222368310Y-114621903D02*
G75*
G02*
X222568310Y-114421903I200000J0D01*
G01*
%TO.C,SW24*%
X241568310Y-114421903D02*
X244721518Y-114421903D01*
X236768000Y-115464000D02*
X241168310Y-115464000D01*
X241368310Y-114621903D02*
X241368310Y-115264000D01*
X232982059Y-114221903D02*
X232982059Y-108638232D01*
X244921518Y-114221903D02*
X244921518Y-108638232D01*
X233182059Y-108438232D02*
X244721518Y-108438232D01*
X236568000Y-114621903D02*
X236568000Y-115264000D01*
X233182059Y-114421903D02*
X236368000Y-114421903D01*
X241368310Y-114621903D02*
G75*
G02*
X241568310Y-114421903I200000J0D01*
G01*
X241368310Y-115264000D02*
G75*
G02*
X241168310Y-115464000I-200000J0D01*
G01*
X232982059Y-108638232D02*
G75*
G02*
X233182059Y-108438232I200000J0D01*
G01*
X244921518Y-114221903D02*
G75*
G02*
X244721518Y-114421903I-200000J0D01*
G01*
X233182059Y-114421903D02*
G75*
G02*
X232982059Y-114221903I0J200000D01*
G01*
X244721518Y-108438232D02*
G75*
G02*
X244921518Y-108638232I0J-200000D01*
G01*
X236368000Y-114421903D02*
G75*
G02*
X236568000Y-114621903I0J-200000D01*
G01*
X236768000Y-115464000D02*
G75*
G02*
X236568000Y-115264000I0J200000D01*
G01*
%TO.C,SW25*%
X24182059Y-133421903D02*
X27368000Y-133421903D01*
X27568000Y-133621903D02*
X27568000Y-134264000D01*
X24182059Y-127438232D02*
X35721518Y-127438232D01*
X35921518Y-133221903D02*
X35921518Y-127638232D01*
X23982059Y-133221903D02*
X23982059Y-127638232D01*
X32368310Y-133621903D02*
X32368310Y-134264000D01*
X27768000Y-134464000D02*
X32168310Y-134464000D01*
X32568310Y-133421903D02*
X35721518Y-133421903D01*
X27768000Y-134464000D02*
G75*
G02*
X27568000Y-134264000I0J200000D01*
G01*
X27368000Y-133421903D02*
G75*
G02*
X27568000Y-133621903I0J-200000D01*
G01*
X35721518Y-127438232D02*
G75*
G02*
X35921518Y-127638232I0J-200000D01*
G01*
X24182059Y-133421903D02*
G75*
G02*
X23982059Y-133221903I0J200000D01*
G01*
X35921518Y-133221903D02*
G75*
G02*
X35721518Y-133421903I-200000J0D01*
G01*
X23982059Y-127638232D02*
G75*
G02*
X24182059Y-127438232I200000J0D01*
G01*
X32368310Y-134264000D02*
G75*
G02*
X32168310Y-134464000I-200000J0D01*
G01*
X32368310Y-133621903D02*
G75*
G02*
X32568310Y-133421903I200000J0D01*
G01*
%TO.C,SW26*%
X51568310Y-133421903D02*
X54721518Y-133421903D01*
X46768000Y-134464000D02*
X51168310Y-134464000D01*
X51368310Y-133621903D02*
X51368310Y-134264000D01*
X42982059Y-133221903D02*
X42982059Y-127638232D01*
X54921518Y-133221903D02*
X54921518Y-127638232D01*
X43182059Y-127438232D02*
X54721518Y-127438232D01*
X46568000Y-133621903D02*
X46568000Y-134264000D01*
X43182059Y-133421903D02*
X46368000Y-133421903D01*
X51368310Y-133621903D02*
G75*
G02*
X51568310Y-133421903I200000J0D01*
G01*
X51368310Y-134264000D02*
G75*
G02*
X51168310Y-134464000I-200000J0D01*
G01*
X42982059Y-127638232D02*
G75*
G02*
X43182059Y-127438232I200000J0D01*
G01*
X54921518Y-133221903D02*
G75*
G02*
X54721518Y-133421903I-200000J0D01*
G01*
X43182059Y-133421903D02*
G75*
G02*
X42982059Y-133221903I0J200000D01*
G01*
X54721518Y-127438232D02*
G75*
G02*
X54921518Y-127638232I0J-200000D01*
G01*
X46368000Y-133421903D02*
G75*
G02*
X46568000Y-133621903I0J-200000D01*
G01*
X46768000Y-134464000D02*
G75*
G02*
X46568000Y-134264000I0J200000D01*
G01*
%TO.C,SW27*%
X70568310Y-133421903D02*
X73721518Y-133421903D01*
X65768000Y-134464000D02*
X70168310Y-134464000D01*
X70368310Y-133621903D02*
X70368310Y-134264000D01*
X61982059Y-133221903D02*
X61982059Y-127638232D01*
X73921518Y-133221903D02*
X73921518Y-127638232D01*
X62182059Y-127438232D02*
X73721518Y-127438232D01*
X65568000Y-133621903D02*
X65568000Y-134264000D01*
X62182059Y-133421903D02*
X65368000Y-133421903D01*
X70368310Y-133621903D02*
G75*
G02*
X70568310Y-133421903I200000J0D01*
G01*
X70368310Y-134264000D02*
G75*
G02*
X70168310Y-134464000I-200000J0D01*
G01*
X61982059Y-127638232D02*
G75*
G02*
X62182059Y-127438232I200000J0D01*
G01*
X73921518Y-133221903D02*
G75*
G02*
X73721518Y-133421903I-200000J0D01*
G01*
X62182059Y-133421903D02*
G75*
G02*
X61982059Y-133221903I0J200000D01*
G01*
X73721518Y-127438232D02*
G75*
G02*
X73921518Y-127638232I0J-200000D01*
G01*
X65368000Y-133421903D02*
G75*
G02*
X65568000Y-133621903I0J-200000D01*
G01*
X65768000Y-134464000D02*
G75*
G02*
X65568000Y-134264000I0J200000D01*
G01*
%TO.C,SW28*%
X89568310Y-133421903D02*
X92721518Y-133421903D01*
X84768000Y-134464000D02*
X89168310Y-134464000D01*
X89368310Y-133621903D02*
X89368310Y-134264000D01*
X80982059Y-133221903D02*
X80982059Y-127638232D01*
X92921518Y-133221903D02*
X92921518Y-127638232D01*
X81182059Y-127438232D02*
X92721518Y-127438232D01*
X84568000Y-133621903D02*
X84568000Y-134264000D01*
X81182059Y-133421903D02*
X84368000Y-133421903D01*
X89368310Y-133621903D02*
G75*
G02*
X89568310Y-133421903I200000J0D01*
G01*
X89368310Y-134264000D02*
G75*
G02*
X89168310Y-134464000I-200000J0D01*
G01*
X80982059Y-127638232D02*
G75*
G02*
X81182059Y-127438232I200000J0D01*
G01*
X92921518Y-133221903D02*
G75*
G02*
X92721518Y-133421903I-200000J0D01*
G01*
X81182059Y-133421903D02*
G75*
G02*
X80982059Y-133221903I0J200000D01*
G01*
X92721518Y-127438232D02*
G75*
G02*
X92921518Y-127638232I0J-200000D01*
G01*
X84368000Y-133421903D02*
G75*
G02*
X84568000Y-133621903I0J-200000D01*
G01*
X84768000Y-134464000D02*
G75*
G02*
X84568000Y-134264000I0J200000D01*
G01*
%TO.C,SW29*%
X100182059Y-133421903D02*
X103368000Y-133421903D01*
X103568000Y-133621903D02*
X103568000Y-134264000D01*
X100182059Y-127438232D02*
X111721518Y-127438232D01*
X111921518Y-133221903D02*
X111921518Y-127638232D01*
X99982059Y-133221903D02*
X99982059Y-127638232D01*
X108368310Y-133621903D02*
X108368310Y-134264000D01*
X103768000Y-134464000D02*
X108168310Y-134464000D01*
X108568310Y-133421903D02*
X111721518Y-133421903D01*
X103768000Y-134464000D02*
G75*
G02*
X103568000Y-134264000I0J200000D01*
G01*
X103368000Y-133421903D02*
G75*
G02*
X103568000Y-133621903I0J-200000D01*
G01*
X111721518Y-127438232D02*
G75*
G02*
X111921518Y-127638232I0J-200000D01*
G01*
X100182059Y-133421903D02*
G75*
G02*
X99982059Y-133221903I0J200000D01*
G01*
X111921518Y-133221903D02*
G75*
G02*
X111721518Y-133421903I-200000J0D01*
G01*
X99982059Y-127638232D02*
G75*
G02*
X100182059Y-127438232I200000J0D01*
G01*
X108368310Y-134264000D02*
G75*
G02*
X108168310Y-134464000I-200000J0D01*
G01*
X108368310Y-133621903D02*
G75*
G02*
X108568310Y-133421903I200000J0D01*
G01*
%TO.C,SW30*%
X127568310Y-133421903D02*
X130721518Y-133421903D01*
X122768000Y-134464000D02*
X127168310Y-134464000D01*
X127368310Y-133621903D02*
X127368310Y-134264000D01*
X118982059Y-133221903D02*
X118982059Y-127638232D01*
X130921518Y-133221903D02*
X130921518Y-127638232D01*
X119182059Y-127438232D02*
X130721518Y-127438232D01*
X122568000Y-133621903D02*
X122568000Y-134264000D01*
X119182059Y-133421903D02*
X122368000Y-133421903D01*
X127368310Y-133621903D02*
G75*
G02*
X127568310Y-133421903I200000J0D01*
G01*
X127368310Y-134264000D02*
G75*
G02*
X127168310Y-134464000I-200000J0D01*
G01*
X118982059Y-127638232D02*
G75*
G02*
X119182059Y-127438232I200000J0D01*
G01*
X130921518Y-133221903D02*
G75*
G02*
X130721518Y-133421903I-200000J0D01*
G01*
X119182059Y-133421903D02*
G75*
G02*
X118982059Y-133221903I0J200000D01*
G01*
X130721518Y-127438232D02*
G75*
G02*
X130921518Y-127638232I0J-200000D01*
G01*
X122368000Y-133421903D02*
G75*
G02*
X122568000Y-133621903I0J-200000D01*
G01*
X122768000Y-134464000D02*
G75*
G02*
X122568000Y-134264000I0J200000D01*
G01*
%TO.C,SW31*%
X138182059Y-133421903D02*
X141368000Y-133421903D01*
X141568000Y-133621903D02*
X141568000Y-134264000D01*
X138182059Y-127438232D02*
X149721518Y-127438232D01*
X149921518Y-133221903D02*
X149921518Y-127638232D01*
X137982059Y-133221903D02*
X137982059Y-127638232D01*
X146368310Y-133621903D02*
X146368310Y-134264000D01*
X141768000Y-134464000D02*
X146168310Y-134464000D01*
X146568310Y-133421903D02*
X149721518Y-133421903D01*
X141768000Y-134464000D02*
G75*
G02*
X141568000Y-134264000I0J200000D01*
G01*
X141368000Y-133421903D02*
G75*
G02*
X141568000Y-133621903I0J-200000D01*
G01*
X149721518Y-127438232D02*
G75*
G02*
X149921518Y-127638232I0J-200000D01*
G01*
X138182059Y-133421903D02*
G75*
G02*
X137982059Y-133221903I0J200000D01*
G01*
X149921518Y-133221903D02*
G75*
G02*
X149721518Y-133421903I-200000J0D01*
G01*
X137982059Y-127638232D02*
G75*
G02*
X138182059Y-127438232I200000J0D01*
G01*
X146368310Y-134264000D02*
G75*
G02*
X146168310Y-134464000I-200000J0D01*
G01*
X146368310Y-133621903D02*
G75*
G02*
X146568310Y-133421903I200000J0D01*
G01*
%TO.C,SW32*%
X165568310Y-133421903D02*
X168721518Y-133421903D01*
X160768000Y-134464000D02*
X165168310Y-134464000D01*
X165368310Y-133621903D02*
X165368310Y-134264000D01*
X156982059Y-133221903D02*
X156982059Y-127638232D01*
X168921518Y-133221903D02*
X168921518Y-127638232D01*
X157182059Y-127438232D02*
X168721518Y-127438232D01*
X160568000Y-133621903D02*
X160568000Y-134264000D01*
X157182059Y-133421903D02*
X160368000Y-133421903D01*
X165368310Y-133621903D02*
G75*
G02*
X165568310Y-133421903I200000J0D01*
G01*
X165368310Y-134264000D02*
G75*
G02*
X165168310Y-134464000I-200000J0D01*
G01*
X156982059Y-127638232D02*
G75*
G02*
X157182059Y-127438232I200000J0D01*
G01*
X168921518Y-133221903D02*
G75*
G02*
X168721518Y-133421903I-200000J0D01*
G01*
X157182059Y-133421903D02*
G75*
G02*
X156982059Y-133221903I0J200000D01*
G01*
X168721518Y-127438232D02*
G75*
G02*
X168921518Y-127638232I0J-200000D01*
G01*
X160368000Y-133421903D02*
G75*
G02*
X160568000Y-133621903I0J-200000D01*
G01*
X160768000Y-134464000D02*
G75*
G02*
X160568000Y-134264000I0J200000D01*
G01*
%TO.C,SW33*%
X176182059Y-133421903D02*
X179368000Y-133421903D01*
X179568000Y-133621903D02*
X179568000Y-134264000D01*
X176182059Y-127438232D02*
X187721518Y-127438232D01*
X187921518Y-133221903D02*
X187921518Y-127638232D01*
X175982059Y-133221903D02*
X175982059Y-127638232D01*
X184368310Y-133621903D02*
X184368310Y-134264000D01*
X179768000Y-134464000D02*
X184168310Y-134464000D01*
X184568310Y-133421903D02*
X187721518Y-133421903D01*
X179768000Y-134464000D02*
G75*
G02*
X179568000Y-134264000I0J200000D01*
G01*
X179368000Y-133421903D02*
G75*
G02*
X179568000Y-133621903I0J-200000D01*
G01*
X187721518Y-127438232D02*
G75*
G02*
X187921518Y-127638232I0J-200000D01*
G01*
X176182059Y-133421903D02*
G75*
G02*
X175982059Y-133221903I0J200000D01*
G01*
X187921518Y-133221903D02*
G75*
G02*
X187721518Y-133421903I-200000J0D01*
G01*
X175982059Y-127638232D02*
G75*
G02*
X176182059Y-127438232I200000J0D01*
G01*
X184368310Y-134264000D02*
G75*
G02*
X184168310Y-134464000I-200000J0D01*
G01*
X184368310Y-133621903D02*
G75*
G02*
X184568310Y-133421903I200000J0D01*
G01*
%TO.C,SW34*%
X203568310Y-133421903D02*
X206721518Y-133421903D01*
X198768000Y-134464000D02*
X203168310Y-134464000D01*
X203368310Y-133621903D02*
X203368310Y-134264000D01*
X194982059Y-133221903D02*
X194982059Y-127638232D01*
X206921518Y-133221903D02*
X206921518Y-127638232D01*
X195182059Y-127438232D02*
X206721518Y-127438232D01*
X198568000Y-133621903D02*
X198568000Y-134264000D01*
X195182059Y-133421903D02*
X198368000Y-133421903D01*
X203368310Y-133621903D02*
G75*
G02*
X203568310Y-133421903I200000J0D01*
G01*
X203368310Y-134264000D02*
G75*
G02*
X203168310Y-134464000I-200000J0D01*
G01*
X194982059Y-127638232D02*
G75*
G02*
X195182059Y-127438232I200000J0D01*
G01*
X206921518Y-133221903D02*
G75*
G02*
X206721518Y-133421903I-200000J0D01*
G01*
X195182059Y-133421903D02*
G75*
G02*
X194982059Y-133221903I0J200000D01*
G01*
X206721518Y-127438232D02*
G75*
G02*
X206921518Y-127638232I0J-200000D01*
G01*
X198368000Y-133421903D02*
G75*
G02*
X198568000Y-133621903I0J-200000D01*
G01*
X198768000Y-134464000D02*
G75*
G02*
X198568000Y-134264000I0J200000D01*
G01*
%TO.C,SW35*%
X222568310Y-133421903D02*
X225721518Y-133421903D01*
X217768000Y-134464000D02*
X222168310Y-134464000D01*
X222368310Y-133621903D02*
X222368310Y-134264000D01*
X213982059Y-133221903D02*
X213982059Y-127638232D01*
X225921518Y-133221903D02*
X225921518Y-127638232D01*
X214182059Y-127438232D02*
X225721518Y-127438232D01*
X217568000Y-133621903D02*
X217568000Y-134264000D01*
X214182059Y-133421903D02*
X217368000Y-133421903D01*
X222368310Y-133621903D02*
G75*
G02*
X222568310Y-133421903I200000J0D01*
G01*
X222368310Y-134264000D02*
G75*
G02*
X222168310Y-134464000I-200000J0D01*
G01*
X213982059Y-127638232D02*
G75*
G02*
X214182059Y-127438232I200000J0D01*
G01*
X225921518Y-133221903D02*
G75*
G02*
X225721518Y-133421903I-200000J0D01*
G01*
X214182059Y-133421903D02*
G75*
G02*
X213982059Y-133221903I0J200000D01*
G01*
X225721518Y-127438232D02*
G75*
G02*
X225921518Y-127638232I0J-200000D01*
G01*
X217368000Y-133421903D02*
G75*
G02*
X217568000Y-133621903I0J-200000D01*
G01*
X217768000Y-134464000D02*
G75*
G02*
X217568000Y-134264000I0J200000D01*
G01*
%TO.C,SW36*%
X241568310Y-133421903D02*
X244721518Y-133421903D01*
X236768000Y-134464000D02*
X241168310Y-134464000D01*
X241368310Y-133621903D02*
X241368310Y-134264000D01*
X232982059Y-133221903D02*
X232982059Y-127638232D01*
X244921518Y-133221903D02*
X244921518Y-127638232D01*
X233182059Y-127438232D02*
X244721518Y-127438232D01*
X236568000Y-133621903D02*
X236568000Y-134264000D01*
X233182059Y-133421903D02*
X236368000Y-133421903D01*
X241368310Y-133621903D02*
G75*
G02*
X241568310Y-133421903I200000J0D01*
G01*
X241368310Y-134264000D02*
G75*
G02*
X241168310Y-134464000I-200000J0D01*
G01*
X232982059Y-127638232D02*
G75*
G02*
X233182059Y-127438232I200000J0D01*
G01*
X244921518Y-133221903D02*
G75*
G02*
X244721518Y-133421903I-200000J0D01*
G01*
X233182059Y-133421903D02*
G75*
G02*
X232982059Y-133221903I0J200000D01*
G01*
X244721518Y-127438232D02*
G75*
G02*
X244921518Y-127638232I0J-200000D01*
G01*
X236368000Y-133421903D02*
G75*
G02*
X236568000Y-133621903I0J-200000D01*
G01*
X236768000Y-134464000D02*
G75*
G02*
X236568000Y-134264000I0J200000D01*
G01*
%TO.C,SW37*%
X24182059Y-152421903D02*
X27368000Y-152421903D01*
X27568000Y-152621903D02*
X27568000Y-153264000D01*
X24182059Y-146438232D02*
X35721518Y-146438232D01*
X35921518Y-152221903D02*
X35921518Y-146638232D01*
X23982059Y-152221903D02*
X23982059Y-146638232D01*
X32368310Y-152621903D02*
X32368310Y-153264000D01*
X27768000Y-153464000D02*
X32168310Y-153464000D01*
X32568310Y-152421903D02*
X35721518Y-152421903D01*
X27768000Y-153464000D02*
G75*
G02*
X27568000Y-153264000I0J200000D01*
G01*
X27368000Y-152421903D02*
G75*
G02*
X27568000Y-152621903I0J-200000D01*
G01*
X35721518Y-146438232D02*
G75*
G02*
X35921518Y-146638232I0J-200000D01*
G01*
X24182059Y-152421903D02*
G75*
G02*
X23982059Y-152221903I0J200000D01*
G01*
X35921518Y-152221903D02*
G75*
G02*
X35721518Y-152421903I-200000J0D01*
G01*
X23982059Y-146638232D02*
G75*
G02*
X24182059Y-146438232I200000J0D01*
G01*
X32368310Y-153264000D02*
G75*
G02*
X32168310Y-153464000I-200000J0D01*
G01*
X32368310Y-152621903D02*
G75*
G02*
X32568310Y-152421903I200000J0D01*
G01*
%TO.C,SW38*%
X51568310Y-152421903D02*
X54721518Y-152421903D01*
X46768000Y-153464000D02*
X51168310Y-153464000D01*
X51368310Y-152621903D02*
X51368310Y-153264000D01*
X42982059Y-152221903D02*
X42982059Y-146638232D01*
X54921518Y-152221903D02*
X54921518Y-146638232D01*
X43182059Y-146438232D02*
X54721518Y-146438232D01*
X46568000Y-152621903D02*
X46568000Y-153264000D01*
X43182059Y-152421903D02*
X46368000Y-152421903D01*
X51368310Y-152621903D02*
G75*
G02*
X51568310Y-152421903I200000J0D01*
G01*
X51368310Y-153264000D02*
G75*
G02*
X51168310Y-153464000I-200000J0D01*
G01*
X42982059Y-146638232D02*
G75*
G02*
X43182059Y-146438232I200000J0D01*
G01*
X54921518Y-152221903D02*
G75*
G02*
X54721518Y-152421903I-200000J0D01*
G01*
X43182059Y-152421903D02*
G75*
G02*
X42982059Y-152221903I0J200000D01*
G01*
X54721518Y-146438232D02*
G75*
G02*
X54921518Y-146638232I0J-200000D01*
G01*
X46368000Y-152421903D02*
G75*
G02*
X46568000Y-152621903I0J-200000D01*
G01*
X46768000Y-153464000D02*
G75*
G02*
X46568000Y-153264000I0J200000D01*
G01*
%TO.C,SW39*%
X62182059Y-152421903D02*
X65368000Y-152421903D01*
X65568000Y-152621903D02*
X65568000Y-153264000D01*
X62182059Y-146438232D02*
X73721518Y-146438232D01*
X73921518Y-152221903D02*
X73921518Y-146638232D01*
X61982059Y-152221903D02*
X61982059Y-146638232D01*
X70368310Y-152621903D02*
X70368310Y-153264000D01*
X65768000Y-153464000D02*
X70168310Y-153464000D01*
X70568310Y-152421903D02*
X73721518Y-152421903D01*
X65768000Y-153464000D02*
G75*
G02*
X65568000Y-153264000I0J200000D01*
G01*
X65368000Y-152421903D02*
G75*
G02*
X65568000Y-152621903I0J-200000D01*
G01*
X73721518Y-146438232D02*
G75*
G02*
X73921518Y-146638232I0J-200000D01*
G01*
X62182059Y-152421903D02*
G75*
G02*
X61982059Y-152221903I0J200000D01*
G01*
X73921518Y-152221903D02*
G75*
G02*
X73721518Y-152421903I-200000J0D01*
G01*
X61982059Y-146638232D02*
G75*
G02*
X62182059Y-146438232I200000J0D01*
G01*
X70368310Y-153264000D02*
G75*
G02*
X70168310Y-153464000I-200000J0D01*
G01*
X70368310Y-152621903D02*
G75*
G02*
X70568310Y-152421903I200000J0D01*
G01*
%TO.C,SW40*%
X89568310Y-152421903D02*
X92721518Y-152421903D01*
X84768000Y-153464000D02*
X89168310Y-153464000D01*
X89368310Y-152621903D02*
X89368310Y-153264000D01*
X80982059Y-152221903D02*
X80982059Y-146638232D01*
X92921518Y-152221903D02*
X92921518Y-146638232D01*
X81182059Y-146438232D02*
X92721518Y-146438232D01*
X84568000Y-152621903D02*
X84568000Y-153264000D01*
X81182059Y-152421903D02*
X84368000Y-152421903D01*
X89368310Y-152621903D02*
G75*
G02*
X89568310Y-152421903I200000J0D01*
G01*
X89368310Y-153264000D02*
G75*
G02*
X89168310Y-153464000I-200000J0D01*
G01*
X80982059Y-146638232D02*
G75*
G02*
X81182059Y-146438232I200000J0D01*
G01*
X92921518Y-152221903D02*
G75*
G02*
X92721518Y-152421903I-200000J0D01*
G01*
X81182059Y-152421903D02*
G75*
G02*
X80982059Y-152221903I0J200000D01*
G01*
X92721518Y-146438232D02*
G75*
G02*
X92921518Y-146638232I0J-200000D01*
G01*
X84368000Y-152421903D02*
G75*
G02*
X84568000Y-152621903I0J-200000D01*
G01*
X84768000Y-153464000D02*
G75*
G02*
X84568000Y-153264000I0J200000D01*
G01*
%TO.C,SW41*%
X100182059Y-152421903D02*
X103368000Y-152421903D01*
X103568000Y-152621903D02*
X103568000Y-153264000D01*
X100182059Y-146438232D02*
X111721518Y-146438232D01*
X111921518Y-152221903D02*
X111921518Y-146638232D01*
X99982059Y-152221903D02*
X99982059Y-146638232D01*
X108368310Y-152621903D02*
X108368310Y-153264000D01*
X103768000Y-153464000D02*
X108168310Y-153464000D01*
X108568310Y-152421903D02*
X111721518Y-152421903D01*
X103768000Y-153464000D02*
G75*
G02*
X103568000Y-153264000I0J200000D01*
G01*
X103368000Y-152421903D02*
G75*
G02*
X103568000Y-152621903I0J-200000D01*
G01*
X111721518Y-146438232D02*
G75*
G02*
X111921518Y-146638232I0J-200000D01*
G01*
X100182059Y-152421903D02*
G75*
G02*
X99982059Y-152221903I0J200000D01*
G01*
X111921518Y-152221903D02*
G75*
G02*
X111721518Y-152421903I-200000J0D01*
G01*
X99982059Y-146638232D02*
G75*
G02*
X100182059Y-146438232I200000J0D01*
G01*
X108368310Y-153264000D02*
G75*
G02*
X108168310Y-153464000I-200000J0D01*
G01*
X108368310Y-152621903D02*
G75*
G02*
X108568310Y-152421903I200000J0D01*
G01*
%TO.C,SW42*%
X127568310Y-152421903D02*
X130721518Y-152421903D01*
X122768000Y-153464000D02*
X127168310Y-153464000D01*
X127368310Y-152621903D02*
X127368310Y-153264000D01*
X118982059Y-152221903D02*
X118982059Y-146638232D01*
X130921518Y-152221903D02*
X130921518Y-146638232D01*
X119182059Y-146438232D02*
X130721518Y-146438232D01*
X122568000Y-152621903D02*
X122568000Y-153264000D01*
X119182059Y-152421903D02*
X122368000Y-152421903D01*
X127368310Y-152621903D02*
G75*
G02*
X127568310Y-152421903I200000J0D01*
G01*
X127368310Y-153264000D02*
G75*
G02*
X127168310Y-153464000I-200000J0D01*
G01*
X118982059Y-146638232D02*
G75*
G02*
X119182059Y-146438232I200000J0D01*
G01*
X130921518Y-152221903D02*
G75*
G02*
X130721518Y-152421903I-200000J0D01*
G01*
X119182059Y-152421903D02*
G75*
G02*
X118982059Y-152221903I0J200000D01*
G01*
X130721518Y-146438232D02*
G75*
G02*
X130921518Y-146638232I0J-200000D01*
G01*
X122368000Y-152421903D02*
G75*
G02*
X122568000Y-152621903I0J-200000D01*
G01*
X122768000Y-153464000D02*
G75*
G02*
X122568000Y-153264000I0J200000D01*
G01*
%TO.C,SW43*%
X138182059Y-152421903D02*
X141368000Y-152421903D01*
X141568000Y-152621903D02*
X141568000Y-153264000D01*
X138182059Y-146438232D02*
X149721518Y-146438232D01*
X149921518Y-152221903D02*
X149921518Y-146638232D01*
X137982059Y-152221903D02*
X137982059Y-146638232D01*
X146368310Y-152621903D02*
X146368310Y-153264000D01*
X141768000Y-153464000D02*
X146168310Y-153464000D01*
X146568310Y-152421903D02*
X149721518Y-152421903D01*
X141768000Y-153464000D02*
G75*
G02*
X141568000Y-153264000I0J200000D01*
G01*
X141368000Y-152421903D02*
G75*
G02*
X141568000Y-152621903I0J-200000D01*
G01*
X149721518Y-146438232D02*
G75*
G02*
X149921518Y-146638232I0J-200000D01*
G01*
X138182059Y-152421903D02*
G75*
G02*
X137982059Y-152221903I0J200000D01*
G01*
X149921518Y-152221903D02*
G75*
G02*
X149721518Y-152421903I-200000J0D01*
G01*
X137982059Y-146638232D02*
G75*
G02*
X138182059Y-146438232I200000J0D01*
G01*
X146368310Y-153264000D02*
G75*
G02*
X146168310Y-153464000I-200000J0D01*
G01*
X146368310Y-152621903D02*
G75*
G02*
X146568310Y-152421903I200000J0D01*
G01*
%TO.C,SW44*%
X165568310Y-152421903D02*
X168721518Y-152421903D01*
X160768000Y-153464000D02*
X165168310Y-153464000D01*
X165368310Y-152621903D02*
X165368310Y-153264000D01*
X156982059Y-152221903D02*
X156982059Y-146638232D01*
X168921518Y-152221903D02*
X168921518Y-146638232D01*
X157182059Y-146438232D02*
X168721518Y-146438232D01*
X160568000Y-152621903D02*
X160568000Y-153264000D01*
X157182059Y-152421903D02*
X160368000Y-152421903D01*
X165368310Y-152621903D02*
G75*
G02*
X165568310Y-152421903I200000J0D01*
G01*
X165368310Y-153264000D02*
G75*
G02*
X165168310Y-153464000I-200000J0D01*
G01*
X156982059Y-146638232D02*
G75*
G02*
X157182059Y-146438232I200000J0D01*
G01*
X168921518Y-152221903D02*
G75*
G02*
X168721518Y-152421903I-200000J0D01*
G01*
X157182059Y-152421903D02*
G75*
G02*
X156982059Y-152221903I0J200000D01*
G01*
X168721518Y-146438232D02*
G75*
G02*
X168921518Y-146638232I0J-200000D01*
G01*
X160368000Y-152421903D02*
G75*
G02*
X160568000Y-152621903I0J-200000D01*
G01*
X160768000Y-153464000D02*
G75*
G02*
X160568000Y-153264000I0J200000D01*
G01*
%TO.C,SW45*%
X176182059Y-152421903D02*
X179368000Y-152421903D01*
X179568000Y-152621903D02*
X179568000Y-153264000D01*
X176182059Y-146438232D02*
X187721518Y-146438232D01*
X187921518Y-152221903D02*
X187921518Y-146638232D01*
X175982059Y-152221903D02*
X175982059Y-146638232D01*
X184368310Y-152621903D02*
X184368310Y-153264000D01*
X179768000Y-153464000D02*
X184168310Y-153464000D01*
X184568310Y-152421903D02*
X187721518Y-152421903D01*
X179768000Y-153464000D02*
G75*
G02*
X179568000Y-153264000I0J200000D01*
G01*
X179368000Y-152421903D02*
G75*
G02*
X179568000Y-152621903I0J-200000D01*
G01*
X187721518Y-146438232D02*
G75*
G02*
X187921518Y-146638232I0J-200000D01*
G01*
X176182059Y-152421903D02*
G75*
G02*
X175982059Y-152221903I0J200000D01*
G01*
X187921518Y-152221903D02*
G75*
G02*
X187721518Y-152421903I-200000J0D01*
G01*
X175982059Y-146638232D02*
G75*
G02*
X176182059Y-146438232I200000J0D01*
G01*
X184368310Y-153264000D02*
G75*
G02*
X184168310Y-153464000I-200000J0D01*
G01*
X184368310Y-152621903D02*
G75*
G02*
X184568310Y-152421903I200000J0D01*
G01*
%TO.C,SW46*%
X203568310Y-152421903D02*
X206721518Y-152421903D01*
X198768000Y-153464000D02*
X203168310Y-153464000D01*
X203368310Y-152621903D02*
X203368310Y-153264000D01*
X194982059Y-152221903D02*
X194982059Y-146638232D01*
X206921518Y-152221903D02*
X206921518Y-146638232D01*
X195182059Y-146438232D02*
X206721518Y-146438232D01*
X198568000Y-152621903D02*
X198568000Y-153264000D01*
X195182059Y-152421903D02*
X198368000Y-152421903D01*
X203368310Y-152621903D02*
G75*
G02*
X203568310Y-152421903I200000J0D01*
G01*
X203368310Y-153264000D02*
G75*
G02*
X203168310Y-153464000I-200000J0D01*
G01*
X194982059Y-146638232D02*
G75*
G02*
X195182059Y-146438232I200000J0D01*
G01*
X206921518Y-152221903D02*
G75*
G02*
X206721518Y-152421903I-200000J0D01*
G01*
X195182059Y-152421903D02*
G75*
G02*
X194982059Y-152221903I0J200000D01*
G01*
X206721518Y-146438232D02*
G75*
G02*
X206921518Y-146638232I0J-200000D01*
G01*
X198368000Y-152421903D02*
G75*
G02*
X198568000Y-152621903I0J-200000D01*
G01*
X198768000Y-153464000D02*
G75*
G02*
X198568000Y-153264000I0J200000D01*
G01*
%TO.C,SW47*%
X222568310Y-152421903D02*
X225721518Y-152421903D01*
X217768000Y-153464000D02*
X222168310Y-153464000D01*
X222368310Y-152621903D02*
X222368310Y-153264000D01*
X213982059Y-152221903D02*
X213982059Y-146638232D01*
X225921518Y-152221903D02*
X225921518Y-146638232D01*
X214182059Y-146438232D02*
X225721518Y-146438232D01*
X217568000Y-152621903D02*
X217568000Y-153264000D01*
X214182059Y-152421903D02*
X217368000Y-152421903D01*
X222368310Y-152621903D02*
G75*
G02*
X222568310Y-152421903I200000J0D01*
G01*
X222368310Y-153264000D02*
G75*
G02*
X222168310Y-153464000I-200000J0D01*
G01*
X213982059Y-146638232D02*
G75*
G02*
X214182059Y-146438232I200000J0D01*
G01*
X225921518Y-152221903D02*
G75*
G02*
X225721518Y-152421903I-200000J0D01*
G01*
X214182059Y-152421903D02*
G75*
G02*
X213982059Y-152221903I0J200000D01*
G01*
X225721518Y-146438232D02*
G75*
G02*
X225921518Y-146638232I0J-200000D01*
G01*
X217368000Y-152421903D02*
G75*
G02*
X217568000Y-152621903I0J-200000D01*
G01*
X217768000Y-153464000D02*
G75*
G02*
X217568000Y-153264000I0J200000D01*
G01*
%TO.C,SW48*%
X233182059Y-152421903D02*
X236368000Y-152421903D01*
X236568000Y-152621903D02*
X236568000Y-153264000D01*
X233182059Y-146438232D02*
X244721518Y-146438232D01*
X244921518Y-152221903D02*
X244921518Y-146638232D01*
X232982059Y-152221903D02*
X232982059Y-146638232D01*
X241368310Y-152621903D02*
X241368310Y-153264000D01*
X236768000Y-153464000D02*
X241168310Y-153464000D01*
X241568310Y-152421903D02*
X244721518Y-152421903D01*
X236768000Y-153464000D02*
G75*
G02*
X236568000Y-153264000I0J200000D01*
G01*
X236368000Y-152421903D02*
G75*
G02*
X236568000Y-152621903I0J-200000D01*
G01*
X244721518Y-146438232D02*
G75*
G02*
X244921518Y-146638232I0J-200000D01*
G01*
X233182059Y-152421903D02*
G75*
G02*
X232982059Y-152221903I0J200000D01*
G01*
X244921518Y-152221903D02*
G75*
G02*
X244721518Y-152421903I-200000J0D01*
G01*
X232982059Y-146638232D02*
G75*
G02*
X233182059Y-146438232I200000J0D01*
G01*
X241368310Y-153264000D02*
G75*
G02*
X241168310Y-153464000I-200000J0D01*
G01*
X241368310Y-152621903D02*
G75*
G02*
X241568310Y-152421903I200000J0D01*
G01*
%TO.C,SW49*%
X24182059Y-171421903D02*
X27368000Y-171421903D01*
X27568000Y-171621903D02*
X27568000Y-172264000D01*
X24182059Y-165438232D02*
X35721518Y-165438232D01*
X35921518Y-171221903D02*
X35921518Y-165638232D01*
X23982059Y-171221903D02*
X23982059Y-165638232D01*
X32368310Y-171621903D02*
X32368310Y-172264000D01*
X27768000Y-172464000D02*
X32168310Y-172464000D01*
X32568310Y-171421903D02*
X35721518Y-171421903D01*
X27768000Y-172464000D02*
G75*
G02*
X27568000Y-172264000I0J200000D01*
G01*
X27368000Y-171421903D02*
G75*
G02*
X27568000Y-171621903I0J-200000D01*
G01*
X35721518Y-165438232D02*
G75*
G02*
X35921518Y-165638232I0J-200000D01*
G01*
X24182059Y-171421903D02*
G75*
G02*
X23982059Y-171221903I0J200000D01*
G01*
X35921518Y-171221903D02*
G75*
G02*
X35721518Y-171421903I-200000J0D01*
G01*
X23982059Y-165638232D02*
G75*
G02*
X24182059Y-165438232I200000J0D01*
G01*
X32368310Y-172264000D02*
G75*
G02*
X32168310Y-172464000I-200000J0D01*
G01*
X32368310Y-171621903D02*
G75*
G02*
X32568310Y-171421903I200000J0D01*
G01*
%TO.C,SW50*%
X51568310Y-171421903D02*
X54721518Y-171421903D01*
X46768000Y-172464000D02*
X51168310Y-172464000D01*
X51368310Y-171621903D02*
X51368310Y-172264000D01*
X42982059Y-171221903D02*
X42982059Y-165638232D01*
X54921518Y-171221903D02*
X54921518Y-165638232D01*
X43182059Y-165438232D02*
X54721518Y-165438232D01*
X46568000Y-171621903D02*
X46568000Y-172264000D01*
X43182059Y-171421903D02*
X46368000Y-171421903D01*
X51368310Y-171621903D02*
G75*
G02*
X51568310Y-171421903I200000J0D01*
G01*
X51368310Y-172264000D02*
G75*
G02*
X51168310Y-172464000I-200000J0D01*
G01*
X42982059Y-165638232D02*
G75*
G02*
X43182059Y-165438232I200000J0D01*
G01*
X54921518Y-171221903D02*
G75*
G02*
X54721518Y-171421903I-200000J0D01*
G01*
X43182059Y-171421903D02*
G75*
G02*
X42982059Y-171221903I0J200000D01*
G01*
X54721518Y-165438232D02*
G75*
G02*
X54921518Y-165638232I0J-200000D01*
G01*
X46368000Y-171421903D02*
G75*
G02*
X46568000Y-171621903I0J-200000D01*
G01*
X46768000Y-172464000D02*
G75*
G02*
X46568000Y-172264000I0J200000D01*
G01*
%TO.C,SW51*%
X62182059Y-171421903D02*
X65368000Y-171421903D01*
X65568000Y-171621903D02*
X65568000Y-172264000D01*
X62182059Y-165438232D02*
X73721518Y-165438232D01*
X73921518Y-171221903D02*
X73921518Y-165638232D01*
X61982059Y-171221903D02*
X61982059Y-165638232D01*
X70368310Y-171621903D02*
X70368310Y-172264000D01*
X65768000Y-172464000D02*
X70168310Y-172464000D01*
X70568310Y-171421903D02*
X73721518Y-171421903D01*
X65768000Y-172464000D02*
G75*
G02*
X65568000Y-172264000I0J200000D01*
G01*
X65368000Y-171421903D02*
G75*
G02*
X65568000Y-171621903I0J-200000D01*
G01*
X73721518Y-165438232D02*
G75*
G02*
X73921518Y-165638232I0J-200000D01*
G01*
X62182059Y-171421903D02*
G75*
G02*
X61982059Y-171221903I0J200000D01*
G01*
X73921518Y-171221903D02*
G75*
G02*
X73721518Y-171421903I-200000J0D01*
G01*
X61982059Y-165638232D02*
G75*
G02*
X62182059Y-165438232I200000J0D01*
G01*
X70368310Y-172264000D02*
G75*
G02*
X70168310Y-172464000I-200000J0D01*
G01*
X70368310Y-171621903D02*
G75*
G02*
X70568310Y-171421903I200000J0D01*
G01*
%TO.C,SW52*%
X89568310Y-171421903D02*
X92721518Y-171421903D01*
X84768000Y-172464000D02*
X89168310Y-172464000D01*
X89368310Y-171621903D02*
X89368310Y-172264000D01*
X80982059Y-171221903D02*
X80982059Y-165638232D01*
X92921518Y-171221903D02*
X92921518Y-165638232D01*
X81182059Y-165438232D02*
X92721518Y-165438232D01*
X84568000Y-171621903D02*
X84568000Y-172264000D01*
X81182059Y-171421903D02*
X84368000Y-171421903D01*
X89368310Y-171621903D02*
G75*
G02*
X89568310Y-171421903I200000J0D01*
G01*
X89368310Y-172264000D02*
G75*
G02*
X89168310Y-172464000I-200000J0D01*
G01*
X80982059Y-165638232D02*
G75*
G02*
X81182059Y-165438232I200000J0D01*
G01*
X92921518Y-171221903D02*
G75*
G02*
X92721518Y-171421903I-200000J0D01*
G01*
X81182059Y-171421903D02*
G75*
G02*
X80982059Y-171221903I0J200000D01*
G01*
X92721518Y-165438232D02*
G75*
G02*
X92921518Y-165638232I0J-200000D01*
G01*
X84368000Y-171421903D02*
G75*
G02*
X84568000Y-171621903I0J-200000D01*
G01*
X84768000Y-172464000D02*
G75*
G02*
X84568000Y-172264000I0J200000D01*
G01*
%TO.C,SW53*%
X100182059Y-171421903D02*
X103368000Y-171421903D01*
X103568000Y-171621903D02*
X103568000Y-172264000D01*
X100182059Y-165438232D02*
X111721518Y-165438232D01*
X111921518Y-171221903D02*
X111921518Y-165638232D01*
X99982059Y-171221903D02*
X99982059Y-165638232D01*
X108368310Y-171621903D02*
X108368310Y-172264000D01*
X103768000Y-172464000D02*
X108168310Y-172464000D01*
X108568310Y-171421903D02*
X111721518Y-171421903D01*
X103768000Y-172464000D02*
G75*
G02*
X103568000Y-172264000I0J200000D01*
G01*
X103368000Y-171421903D02*
G75*
G02*
X103568000Y-171621903I0J-200000D01*
G01*
X111721518Y-165438232D02*
G75*
G02*
X111921518Y-165638232I0J-200000D01*
G01*
X100182059Y-171421903D02*
G75*
G02*
X99982059Y-171221903I0J200000D01*
G01*
X111921518Y-171221903D02*
G75*
G02*
X111721518Y-171421903I-200000J0D01*
G01*
X99982059Y-165638232D02*
G75*
G02*
X100182059Y-165438232I200000J0D01*
G01*
X108368310Y-172264000D02*
G75*
G02*
X108168310Y-172464000I-200000J0D01*
G01*
X108368310Y-171621903D02*
G75*
G02*
X108568310Y-171421903I200000J0D01*
G01*
%TO.C,SW54*%
X127568310Y-171421903D02*
X130721518Y-171421903D01*
X122768000Y-172464000D02*
X127168310Y-172464000D01*
X127368310Y-171621903D02*
X127368310Y-172264000D01*
X118982059Y-171221903D02*
X118982059Y-165638232D01*
X130921518Y-171221903D02*
X130921518Y-165638232D01*
X119182059Y-165438232D02*
X130721518Y-165438232D01*
X122568000Y-171621903D02*
X122568000Y-172264000D01*
X119182059Y-171421903D02*
X122368000Y-171421903D01*
X127368310Y-171621903D02*
G75*
G02*
X127568310Y-171421903I200000J0D01*
G01*
X127368310Y-172264000D02*
G75*
G02*
X127168310Y-172464000I-200000J0D01*
G01*
X118982059Y-165638232D02*
G75*
G02*
X119182059Y-165438232I200000J0D01*
G01*
X130921518Y-171221903D02*
G75*
G02*
X130721518Y-171421903I-200000J0D01*
G01*
X119182059Y-171421903D02*
G75*
G02*
X118982059Y-171221903I0J200000D01*
G01*
X130721518Y-165438232D02*
G75*
G02*
X130921518Y-165638232I0J-200000D01*
G01*
X122368000Y-171421903D02*
G75*
G02*
X122568000Y-171621903I0J-200000D01*
G01*
X122768000Y-172464000D02*
G75*
G02*
X122568000Y-172264000I0J200000D01*
G01*
%TO.C,SW55*%
X138182059Y-171421903D02*
X141368000Y-171421903D01*
X141568000Y-171621903D02*
X141568000Y-172264000D01*
X138182059Y-165438232D02*
X149721518Y-165438232D01*
X149921518Y-171221903D02*
X149921518Y-165638232D01*
X137982059Y-171221903D02*
X137982059Y-165638232D01*
X146368310Y-171621903D02*
X146368310Y-172264000D01*
X141768000Y-172464000D02*
X146168310Y-172464000D01*
X146568310Y-171421903D02*
X149721518Y-171421903D01*
X141768000Y-172464000D02*
G75*
G02*
X141568000Y-172264000I0J200000D01*
G01*
X141368000Y-171421903D02*
G75*
G02*
X141568000Y-171621903I0J-200000D01*
G01*
X149721518Y-165438232D02*
G75*
G02*
X149921518Y-165638232I0J-200000D01*
G01*
X138182059Y-171421903D02*
G75*
G02*
X137982059Y-171221903I0J200000D01*
G01*
X149921518Y-171221903D02*
G75*
G02*
X149721518Y-171421903I-200000J0D01*
G01*
X137982059Y-165638232D02*
G75*
G02*
X138182059Y-165438232I200000J0D01*
G01*
X146368310Y-172264000D02*
G75*
G02*
X146168310Y-172464000I-200000J0D01*
G01*
X146368310Y-171621903D02*
G75*
G02*
X146568310Y-171421903I200000J0D01*
G01*
%TO.C,SW56*%
X165568310Y-171421903D02*
X168721518Y-171421903D01*
X160768000Y-172464000D02*
X165168310Y-172464000D01*
X165368310Y-171621903D02*
X165368310Y-172264000D01*
X156982059Y-171221903D02*
X156982059Y-165638232D01*
X168921518Y-171221903D02*
X168921518Y-165638232D01*
X157182059Y-165438232D02*
X168721518Y-165438232D01*
X160568000Y-171621903D02*
X160568000Y-172264000D01*
X157182059Y-171421903D02*
X160368000Y-171421903D01*
X165368310Y-171621903D02*
G75*
G02*
X165568310Y-171421903I200000J0D01*
G01*
X165368310Y-172264000D02*
G75*
G02*
X165168310Y-172464000I-200000J0D01*
G01*
X156982059Y-165638232D02*
G75*
G02*
X157182059Y-165438232I200000J0D01*
G01*
X168921518Y-171221903D02*
G75*
G02*
X168721518Y-171421903I-200000J0D01*
G01*
X157182059Y-171421903D02*
G75*
G02*
X156982059Y-171221903I0J200000D01*
G01*
X168721518Y-165438232D02*
G75*
G02*
X168921518Y-165638232I0J-200000D01*
G01*
X160368000Y-171421903D02*
G75*
G02*
X160568000Y-171621903I0J-200000D01*
G01*
X160768000Y-172464000D02*
G75*
G02*
X160568000Y-172264000I0J200000D01*
G01*
%TO.C,SW57*%
X176182059Y-171421903D02*
X179368000Y-171421903D01*
X179568000Y-171621903D02*
X179568000Y-172264000D01*
X176182059Y-165438232D02*
X187721518Y-165438232D01*
X187921518Y-171221903D02*
X187921518Y-165638232D01*
X175982059Y-171221903D02*
X175982059Y-165638232D01*
X184368310Y-171621903D02*
X184368310Y-172264000D01*
X179768000Y-172464000D02*
X184168310Y-172464000D01*
X184568310Y-171421903D02*
X187721518Y-171421903D01*
X179768000Y-172464000D02*
G75*
G02*
X179568000Y-172264000I0J200000D01*
G01*
X179368000Y-171421903D02*
G75*
G02*
X179568000Y-171621903I0J-200000D01*
G01*
X187721518Y-165438232D02*
G75*
G02*
X187921518Y-165638232I0J-200000D01*
G01*
X176182059Y-171421903D02*
G75*
G02*
X175982059Y-171221903I0J200000D01*
G01*
X187921518Y-171221903D02*
G75*
G02*
X187721518Y-171421903I-200000J0D01*
G01*
X175982059Y-165638232D02*
G75*
G02*
X176182059Y-165438232I200000J0D01*
G01*
X184368310Y-172264000D02*
G75*
G02*
X184168310Y-172464000I-200000J0D01*
G01*
X184368310Y-171621903D02*
G75*
G02*
X184568310Y-171421903I200000J0D01*
G01*
%TO.C,SW58*%
X203568310Y-171421903D02*
X206721518Y-171421903D01*
X198768000Y-172464000D02*
X203168310Y-172464000D01*
X203368310Y-171621903D02*
X203368310Y-172264000D01*
X194982059Y-171221903D02*
X194982059Y-165638232D01*
X206921518Y-171221903D02*
X206921518Y-165638232D01*
X195182059Y-165438232D02*
X206721518Y-165438232D01*
X198568000Y-171621903D02*
X198568000Y-172264000D01*
X195182059Y-171421903D02*
X198368000Y-171421903D01*
X203368310Y-171621903D02*
G75*
G02*
X203568310Y-171421903I200000J0D01*
G01*
X203368310Y-172264000D02*
G75*
G02*
X203168310Y-172464000I-200000J0D01*
G01*
X194982059Y-165638232D02*
G75*
G02*
X195182059Y-165438232I200000J0D01*
G01*
X206921518Y-171221903D02*
G75*
G02*
X206721518Y-171421903I-200000J0D01*
G01*
X195182059Y-171421903D02*
G75*
G02*
X194982059Y-171221903I0J200000D01*
G01*
X206721518Y-165438232D02*
G75*
G02*
X206921518Y-165638232I0J-200000D01*
G01*
X198368000Y-171421903D02*
G75*
G02*
X198568000Y-171621903I0J-200000D01*
G01*
X198768000Y-172464000D02*
G75*
G02*
X198568000Y-172264000I0J200000D01*
G01*
%TO.C,SW59*%
X214182059Y-171421903D02*
X217368000Y-171421903D01*
X217568000Y-171621903D02*
X217568000Y-172264000D01*
X214182059Y-165438232D02*
X225721518Y-165438232D01*
X225921518Y-171221903D02*
X225921518Y-165638232D01*
X213982059Y-171221903D02*
X213982059Y-165638232D01*
X222368310Y-171621903D02*
X222368310Y-172264000D01*
X217768000Y-172464000D02*
X222168310Y-172464000D01*
X222568310Y-171421903D02*
X225721518Y-171421903D01*
X217768000Y-172464000D02*
G75*
G02*
X217568000Y-172264000I0J200000D01*
G01*
X217368000Y-171421903D02*
G75*
G02*
X217568000Y-171621903I0J-200000D01*
G01*
X225721518Y-165438232D02*
G75*
G02*
X225921518Y-165638232I0J-200000D01*
G01*
X214182059Y-171421903D02*
G75*
G02*
X213982059Y-171221903I0J200000D01*
G01*
X225921518Y-171221903D02*
G75*
G02*
X225721518Y-171421903I-200000J0D01*
G01*
X213982059Y-165638232D02*
G75*
G02*
X214182059Y-165438232I200000J0D01*
G01*
X222368310Y-172264000D02*
G75*
G02*
X222168310Y-172464000I-200000J0D01*
G01*
X222368310Y-171621903D02*
G75*
G02*
X222568310Y-171421903I200000J0D01*
G01*
%TO.C,SW60*%
X241568310Y-171421903D02*
X244721518Y-171421903D01*
X236768000Y-172464000D02*
X241168310Y-172464000D01*
X241368310Y-171621903D02*
X241368310Y-172264000D01*
X232982059Y-171221903D02*
X232982059Y-165638232D01*
X244921518Y-171221903D02*
X244921518Y-165638232D01*
X233182059Y-165438232D02*
X244721518Y-165438232D01*
X236568000Y-171621903D02*
X236568000Y-172264000D01*
X233182059Y-171421903D02*
X236368000Y-171421903D01*
X241368310Y-171621903D02*
G75*
G02*
X241568310Y-171421903I200000J0D01*
G01*
X241368310Y-172264000D02*
G75*
G02*
X241168310Y-172464000I-200000J0D01*
G01*
X232982059Y-165638232D02*
G75*
G02*
X233182059Y-165438232I200000J0D01*
G01*
X244921518Y-171221903D02*
G75*
G02*
X244721518Y-171421903I-200000J0D01*
G01*
X233182059Y-171421903D02*
G75*
G02*
X232982059Y-171221903I0J200000D01*
G01*
X244721518Y-165438232D02*
G75*
G02*
X244921518Y-165638232I0J-200000D01*
G01*
X236368000Y-171421903D02*
G75*
G02*
X236568000Y-171621903I0J-200000D01*
G01*
X236768000Y-172464000D02*
G75*
G02*
X236568000Y-172264000I0J200000D01*
G01*
%TD*%
M02*
